<?xml version="1.0" encoding="iso-8859-1"?>
<!-- Generator: Adobe Illustrator 23.0.6, SVG Export Plug-In . SVG Version: 6.00 Build 0)  -->
<svg version="1.1" xmlns="http://www.w3.org/2000/svg" xmlns:xlink="http://www.w3.org/1999/xlink" x="0px" y="0px"
	 viewBox="0 0 512 512" style="enable-background:new 0 0 512 512;" xml:space="preserve">
<g id="&#x30D1;&#x30F3;">
</g>
<g id="&#x30B9;&#x30EA;&#x30C3;&#x30C8;">
	<path style="fill:#040000;stroke:#50342F;stroke-miterlimit:10;" d="M454,267.12c0,39.903-88.648,58.495-198,58.495
		S58,307.023,58,267.12s88.648-86.005,198-86.005S454,227.217,454,267.12z"/>
	<path style="fill:#CCCCCC;" d="M352,240l0-112l24,0C376,183.864,364.008,240,352,240z"/>
	<path style="fill:#CCCCCC;" d="M240,240l0-112l24,0C264,183.864,252.008,240,240,240z"/>
	<path style="fill:#CCCCCC;" d="M184,240l0-112l24,0C208,183.864,196.008,240,184,240z"/>
	<path style="fill:#CCCCCC;" d="M296,240l0-112l24,0C320,183.864,308.008,240,296,240z"/>
	<path style="fill:#CCCCCC;" d="M128,240l0-112h24C152,183.864,140.008,240,128,240z"/>
</g>
</svg>
