<?xml version="1.0" encoding="iso-8859-1"?>
<!-- Generator: Adobe Illustrator 23.0.6, SVG Export Plug-In . SVG Version: 6.00 Build 0)  -->
<svg version="1.1" xmlns="http://www.w3.org/2000/svg" xmlns:xlink="http://www.w3.org/1999/xlink" x="0px" y="0px"
	 viewBox="0 0 500 500" style="enable-background:new 0 0 500 500;" xml:space="preserve">
<g id="&#x30D1;&#x30F3;">
</g>
<g id="&#x30B9;&#x30EA;&#x30C3;&#x30C8;">
	<g>
		<path style="fill:#040000;stroke:#50342F;stroke-miterlimit:10;" d="M448,267.12c0,39.903-88.648,58.495-198,58.495
			S52,307.023,52,267.12s88.648-86.005,198-86.005S448,227.217,448,267.12z"/>
		<path style="fill:#CCCCCC;" d="M330.307,245.171l18.928-107.344l26.836,4.732C366.63,196.1,343.734,247.539,330.307,245.171z"/>
		<path style="fill:#CCCCCC;" d="M268.302,239.97l9.5-108.585l27.146,2.375C300.21,187.92,281.885,241.158,268.302,239.97z"/>
		<path style="fill:#CCCCCC;" d="M206.121,239.345l-9.5-108.585l27.146-2.375C228.505,182.545,219.703,238.157,206.121,239.345z"/>
		<path style="fill:#CCCCCC;" d="M139.792,244.903l-18.928-107.344l26.836-4.732C157.141,186.368,153.22,242.535,139.792,244.903z"
			/>
	</g>
</g>
</svg>
