<?xml version="1.0" encoding="iso-8859-1"?>
<!-- Generator: Adobe Illustrator 23.0.6, SVG Export Plug-In . SVG Version: 6.00 Build 0)  -->
<svg version="1.1" id="&#x30EC;&#x30A4;&#x30E4;&#x30FC;_2"
	 xmlns="http://www.w3.org/2000/svg" xmlns:xlink="http://www.w3.org/1999/xlink" x="0px" y="0px" viewBox="0 0 512 512"
	 style="enable-background:new 0 0 512 512;" xml:space="preserve">
<g id="&#x4E0A;&#x306E;&#x7126;&#x3052;&#x76EE;">
	<g>
		<polygon style="fill:#040000;" points="97.644,188.073 97.644,181.552 145.045,233.163 145.045,239.685 		"/>
		<path style="fill:#040000;" d="M98.144,182.835l46.401,50.522v5.043l-46.401-50.523L98.144,182.835 M97.144,180.268l0,8
			l48.401,52.7v-8L97.144,180.268L97.144,180.268z"/>
	</g>
	<g>
		<polygon style="fill:#040000;" points="146.045,233.345 398.818,160.864 398.818,167.823 146.045,240.305 		"/>
		<path style="fill:#040000;" d="M398.318,161.527v5.919l-251.773,72.195v-5.919L398.318,161.527 M399.318,160.2l-253.773,72.768v8
			L399.318,168.2V160.2L399.318,160.2z"/>
	</g>
</g>
<g id="&#x4E0B;&#x306E;&#x7126;&#x3052;&#x76EE;">
	<g>
		<polygon style="fill:#040000;" points="97.644,340.073 97.644,333.552 145.045,385.163 145.045,391.685 		"/>
		<path style="fill:#040000;" d="M98.144,334.835l46.401,50.522v5.043l-46.401-50.522V334.835 M97.144,332.268v8l48.401,52.7v-8
			L97.144,332.268L97.144,332.268z"/>
	</g>
	<g>
		<polygon style="fill:#040000;" points="146.045,385.345 398.818,312.864 398.818,319.823 146.045,392.305 		"/>
		<path style="fill:#040000;" d="M398.318,313.527v5.919l-251.773,72.195v-5.919L398.318,313.527 M399.318,312.2l-253.773,72.768v8
			L399.318,320.2V312.2L399.318,312.2z"/>
	</g>
</g>
<g id="&#x5074;&#x9762;">
	<g>
		<polygon style="fill:#FFFFFF;" points="97.644,332.073 97.644,189.552 145.045,241.163 145.045,383.685 		"/>
		<path style="fill:#040000;" d="M98.144,190.835l46.401,50.523v141.043l-46.401-50.523V190.835 M97.144,188.268v144l48.401,52.7
			v-144L97.144,188.268L97.144,188.268z"/>
	</g>
	<g>
		<polygon style="fill:#FFFFFF;" points="146.045,241.345 398.818,168.864 398.818,311.823 146.045,384.305 		"/>
		<path style="fill:#040000;" d="M398.318,169.527v141.919l-251.773,72.195V241.722L398.318,169.527 M399.318,168.2l-253.773,72.768
			v144L399.318,312.2V168.2L399.318,168.2z"/>
	</g>
</g>
<polygon style="opacity:0.5;fill:#CCCCCC;" points="97.144,180.268 145.545,232.968 399.318,160.2 350.917,107.5 "/>
</svg>
