<?xml version="1.0" encoding="iso-8859-1"?>
<!-- Generator: Adobe Illustrator 23.0.6, SVG Export Plug-In . SVG Version: 6.00 Build 0)  -->
<svg version="1.1" id="&#x30EC;&#x30A4;&#x30E4;&#x30FC;_2"
	 xmlns="http://www.w3.org/2000/svg" xmlns:xlink="http://www.w3.org/1999/xlink" x="0px" y="0px" viewBox="0 0 512 512"
	 style="enable-background:new 0 0 512 512;" xml:space="preserve">
<g id="&#x4E0A;&#x306E;&#x7126;&#x3052;&#x76EE;">
	<g>
		<polygon style="fill:#040000;" points="97.644,187.573 97.644,181.052 145.045,232.663 145.045,239.185 		"/>
		<path style="fill:#040000;" d="M98.144,182.335l46.401,50.522v5.043l-46.401-50.523L98.144,182.335 M97.144,179.768l0,8
			l48.401,52.7v-8L97.144,179.768L97.144,179.768z"/>
	</g>
	<g>
		<polygon style="fill:#040000;" points="146.045,232.845 398.818,160.364 398.818,167.323 146.045,239.805 		"/>
		<path style="fill:#040000;" d="M398.318,161.027v5.919l-251.773,72.195v-5.919L398.318,161.027 M399.318,159.7l-253.773,72.768v8
			L399.318,167.7V159.7L399.318,159.7z"/>
	</g>
</g>
<g id="&#x4E0B;&#x306E;&#x7126;&#x3052;&#x76EE;">
	<g>
		<polygon style="fill:#040000;" points="97.644,339.573 97.644,333.052 145.045,384.663 145.045,391.185 		"/>
		<path style="fill:#040000;" d="M98.144,334.335l46.401,50.522v5.043l-46.401-50.522V334.335 M97.144,331.768v8l48.401,52.7v-8
			L97.144,331.768L97.144,331.768z"/>
	</g>
	<g>
		<polygon style="fill:#040000;" points="146.045,384.845 398.818,312.364 398.818,319.323 146.045,391.805 		"/>
		<path style="fill:#040000;" d="M398.318,313.027v5.919l-251.773,72.195v-5.919L398.318,313.027 M399.318,311.7l-253.773,72.768v8
			L399.318,319.7V311.7L399.318,311.7z"/>
	</g>
</g>
<g id="&#x5074;&#x9762;">
	<g>
		<polygon style="fill:#FFFFFF;" points="97.644,331.573 97.644,189.052 145.045,240.663 145.045,383.185 		"/>
		<path style="fill:#040000;" d="M98.144,190.335l46.401,50.523v141.043l-46.401-50.523V190.335 M97.144,187.768v144l48.401,52.7
			v-144L97.144,187.768L97.144,187.768z"/>
	</g>
	<g>
		<polygon style="fill:#FFFFFF;" points="146.045,240.845 398.818,168.364 398.818,311.323 146.045,383.805 		"/>
		<path style="fill:#040000;" d="M398.318,169.027v141.919l-251.773,72.195V241.222L398.318,169.027 M399.318,167.7l-253.773,72.768
			v144L399.318,311.7V167.7L399.318,167.7z"/>
	</g>
</g>
<polygon style="opacity:0.5;fill:#CCCCCC;" points="97.144,179.768 145.545,232.468 399.318,159.7 350.917,107 "/>
</svg>
