<?xml version="1.0" encoding="iso-8859-1"?>
<!-- Generator: Adobe Illustrator 23.0.6, SVG Export Plug-In . SVG Version: 6.00 Build 0)  -->
<svg version="1.1" id="&#x30EC;&#x30A4;&#x30E4;&#x30FC;_2"
	 xmlns="http://www.w3.org/2000/svg" xmlns:xlink="http://www.w3.org/1999/xlink" x="0px" y="0px" viewBox="0 0 500 500"
	 style="enable-background:new 0 0 500 500;" xml:space="preserve">
<g>
	<polygon style="fill:#CCCCCC;stroke:#CCCCCC;stroke-miterlimit:10;" points="398.898,307.286 153.512,375.902 101.102,327.596 
		346.488,258.98 	"/>
	<polygon style="fill:#CCCCCC;stroke:#CCCCCC;stroke-miterlimit:10;" points="398.898,317.261 153.512,385.876 101.102,337.57 
		346.488,268.955 	"/>
	<polygon style="fill:#CCCCCC;stroke:#CCCCCC;stroke-miterlimit:10;" points="101.102,182.739 101.102,337.57 153.512,385.876 
		153.512,231.045 	"/>
	<polygon style="fill:#CCCCCC;stroke:#CCCCCC;stroke-miterlimit:10;" points="398.898,162.43 398.898,317.261 346.488,268.955 
		346.488,114.124 	"/>
	<polygon style="fill:#FFFFFF;stroke:#50342F;stroke-miterlimit:10;" points="101.102,191.387 101.102,327.596 153.512,375.902 
		153.512,239.693 	"/>
	<polygon style="fill:#FFFFFF;stroke:#50342F;stroke-miterlimit:10;" points="346.488,122.772 346.488,127.132 346.488,258.98 
		398.898,307.286 398.898,171.078 	"/>
	<polygon style="fill:#FFFFFF;stroke:#50342F;stroke-miterlimit:10;" points="153.512,239.693 153.512,375.902 398.898,307.286 
		398.898,171.078 	"/>
	<polygon style="fill:#CCCCCC;stroke:#CCCCCC;stroke-miterlimit:10;" points="398.898,171.078 153.512,239.693 101.102,191.387 
		346.488,122.772 	"/>
	<polygon style="fill:#CCCCCC;stroke:#CCCCCC;stroke-miterlimit:10;" points="398.898,162.43 153.512,231.045 101.102,182.739 
		346.488,114.124 	"/>
</g>
</svg>
