<?xml version="1.0" encoding="iso-8859-1"?>
<!-- Generator: Adobe Illustrator 23.0.6, SVG Export Plug-In . SVG Version: 6.00 Build 0)  -->
<svg version="1.1" id="&#x30EC;&#x30A4;&#x30E4;&#x30FC;_2"
	 xmlns="http://www.w3.org/2000/svg" xmlns:xlink="http://www.w3.org/1999/xlink" x="0px" y="0px" viewBox="0 0 512 512"
	 style="enable-background:new 0 0 512 512;" xml:space="preserve">
<g id="&#x4E0A;&#x306E;&#x7126;&#x3052;&#x76EE;">
	<g>
		<polygon style="fill:#040000;" points="97.644,188.56 97.644,182.039 145.045,233.65 145.045,240.171 		"/>
		<path style="fill:#040000;" d="M98.144,183.322l46.401,50.522v5.043l-46.401-50.523L98.144,183.322 M97.144,180.755l0,8
			l48.401,52.7v-8L97.144,180.755L97.144,180.755z"/>
	</g>
	<g>
		<polygon style="fill:#040000;" points="146.045,233.832 398.818,161.351 398.818,168.31 146.045,240.792 		"/>
		<path style="fill:#040000;" d="M398.318,162.014v5.919l-251.773,72.195v-5.919L398.318,162.014 M399.318,160.687l-253.773,72.768
			v8l253.773-72.768V160.687L399.318,160.687z"/>
	</g>
</g>
<g id="&#x4E0B;&#x306E;&#x7126;&#x3052;&#x76EE;">
	<g>
		<polygon style="fill:#040000;" points="97.644,340.56 97.644,334.039 145.045,385.65 145.045,392.171 		"/>
		<path style="fill:#040000;" d="M98.144,335.322l46.401,50.522v5.043l-46.401-50.522V335.322 M97.144,332.755v8l48.401,52.7v-8
			L97.144,332.755L97.144,332.755z"/>
	</g>
	<g>
		<polygon style="fill:#040000;" points="146.045,385.832 398.818,313.351 398.818,320.31 146.045,392.792 		"/>
		<path style="fill:#040000;" d="M398.318,314.014v5.919l-251.773,72.195v-5.919L398.318,314.014 M399.318,312.687l-253.773,72.768
			v8l253.773-72.768V312.687L399.318,312.687z"/>
	</g>
</g>
<g id="&#x5074;&#x9762;">
	<g>
		<polygon style="fill:#FFFFFF;" points="97.644,332.56 97.644,190.039 145.045,241.65 145.045,384.171 		"/>
		<path style="fill:#040000;" d="M98.144,191.322l46.401,50.523v141.043l-46.401-50.523V191.322 M97.144,188.755v144l48.401,52.7
			v-144L97.144,188.755L97.144,188.755z"/>
	</g>
	<g>
		<polygon style="fill:#FFFFFF;" points="146.045,241.832 398.818,169.351 398.818,312.31 146.045,384.792 		"/>
		<path style="fill:#040000;" d="M398.318,170.014v141.919l-251.773,72.195V242.209L398.318,170.014 M399.318,168.687
			l-253.773,72.768v144l253.773-72.768V168.687L399.318,168.687z"/>
	</g>
</g>
<polygon style="opacity:0.5;fill:#CCCCCC;" points="97.144,180.755 145.545,233.455 399.318,160.687 350.917,107.987 "/>
</svg>
