<?xml version="1.0" encoding="iso-8859-1"?>
<!-- Generator: Adobe Illustrator 23.0.3, SVG Export Plug-In . SVG Version: 6.00 Build 0)  -->
<svg version="1.1" xmlns="http://www.w3.org/2000/svg" xmlns:xlink="http://www.w3.org/1999/xlink" x="0px" y="0px"
	 viewBox="0 0 1024 768" style="enable-background:new 0 0 1024 768;" xml:space="preserve">
<g id="&#x30AB;&#x30E1;&#x30EC;&#x30AA;&#x30F3;">
	
		<path id="&#x3057;&#x3063;&#x307D;&#x7528;&#x30DE;&#x30B9;&#x30AF;_2_" style="fill:none;stroke:#040000;stroke-miterlimit:10;" d="
		M491.14,387.579v164.66h141.061C636.478,468.511,566.326,387.157,491.14,387.579z"/>
	<path id="&#x3057;&#x3063;&#x307D;" style="fill:none;stroke:#040000;stroke-miterlimit:10;" d="M610.074,642.635l-82.953-308.271
		l210.717-56.702C785.962,438.173,724.098,614.098,610.074,642.635z"/>
	
		<rect id="&#x3064;&#x304B;&#x307E;&#x308A;&#x68D2;_2_" x="244.175" y="466.919" transform="matrix(0.866 0.5 -0.5 0.866 315.7733 -213.6694)" style="fill:none;stroke:#040000;stroke-miterlimit:10;" width="624.848" height="30.975"/>
	<g id="&#x3046;&#x305A;&#x307E;&#x304D;">
		<path style="display:none;stroke:#FFFFFF;stroke-miterlimit:10;" d="M662.42,564.193H492.342
			c0,46.966,38.073,85.039,85.039,85.039S662.42,611.159,662.42,564.193z"/>
		<path style="fill:none;stroke:#040000;stroke-miterlimit:10;" d="M492.342,564.661c0-39.138,31.728-70.866,70.866-70.866
			s70.866,31.728,70.866,70.866H492.342z"/>
		<path style="fill:none;stroke:#040000;stroke-miterlimit:10;" d="M520.688,563.944c0,31.311,25.382,56.693,56.693,56.693
			s56.693-25.382,56.693-56.693H520.688z"/>
		<path style="fill:none;stroke:#040000;stroke-miterlimit:10;" d="M520.688,564.412c0-23.483,19.037-42.52,42.52-42.52
			s42.52,19.037,42.52,42.52H520.688z"/>
		<path style="fill:none;stroke:#040000;stroke-miterlimit:10;" d="M549.034,563.944c0,15.655,12.691,28.346,28.346,28.346
			s28.346-12.691,28.346-28.346H549.034z"/>
		<path style="fill:none;stroke:#040000;stroke-miterlimit:10;" d="M549.034,564.632c0-6.844,6.346-12.393,14.173-12.393
			s14.173,5.548,14.173,12.393H549.034z"/>
	</g>
	
		<ellipse transform="matrix(0.3508 -0.9364 0.9364 0.3508 108.4001 689.2318)" style="fill:none;stroke:#040000;stroke-miterlimit:10;" cx="551.32" cy="266.43" rx="128.431" ry="197.834"/>
	<path id="&#x984E;_2_" style="display:none;fill:none;stroke:#040000;stroke-miterlimit:10;" d="M348.127,291.154
		c-6.664,25.034-42.206,37.305-79.384,27.408c-37.178-9.897-61.915-38.214-55.251-63.248L348.127,291.154z"/>
	
		<ellipse id="&#x984E;" transform="matrix(0.2616 -0.9652 0.9652 0.2616 -55.7887 472.6808)" style="fill:none;stroke:#070001;stroke-miterlimit:10;" cx="281.018" cy="272.8" rx="45.644" ry="69.283"/>
	<path id="&#x982D;_2_" style="fill:none;stroke:#040000;stroke-miterlimit:10;" d="M402.913,295.663l6.653-181.995
		c0.423-11.578-12.737-18.502-22.039-11.596L204.736,237.786c-9.302,6.907-6.481,21.507,4.724,24.452l176.137,46.28
		C394.155,310.767,402.59,304.504,402.913,295.663z"/>
	<circle id="&#x773C;_4_" style="fill:none;stroke:#040000;stroke-miterlimit:10;" cx="301.793" cy="221.879" r="30.857"/>
	<circle id="&#x773C;_2_" style="fill:none;stroke:#040000;stroke-miterlimit:10;" cx="301.793" cy="221.879" r="7.714"/>
	<path id="&#x5F8C;&#x8DB3;_x5F_&#x5143;_2_" style="display:none;" d="M585.238,337.931L585.238,337.931
		c9.631-6.027,22.324-3.105,28.351,6.526l41.835,66.855c6.027,9.631,3.105,22.324-6.526,28.351l0,0
		c-9.631,6.027-22.324,3.105-28.351-6.526l-41.835-66.855C572.685,356.651,575.607,343.958,585.238,337.931z"/>
	<path id="&#x5F8C;&#x8DB3;_x5F_&#x5148;" style="fill:none;stroke:#040000;stroke-miterlimit:10;" d="M513.385,449.579
		L513.385,449.579c-9.839-5.681-13.21-18.262-7.53-28.101l63.84-110.575c5.681-9.839,18.262-13.21,28.101-7.53h0
		c9.839,5.681,13.21,18.262,7.53,28.101l-63.84,110.575C535.805,451.888,523.224,455.259,513.385,449.579z"/>
	<path id="&#x524D;&#x8DB3;_x5F_&#x5143;_2_" style="display:none;" d="M408.212,268.148L408.212,268.148
		c2.887-10.988,14.136-17.556,25.124-14.668l73.712,19.368c10.988,2.887,17.556,14.136,14.668,25.124v0
		c-2.887,10.988-14.136,17.556-25.124,14.668l-73.712-19.368C411.892,290.385,405.325,279.137,408.212,268.148z"/>
	<path id="&#x524D;&#x8DB3;_x5F_&#x5148;_2_" style="fill:none;stroke:#040000;stroke-miterlimit:10;" d="M398.879,385.542
		L398.879,385.542c-8.955-6.992-10.546-19.92-3.554-28.874l78.578-100.638c6.992-8.955,19.92-10.546,28.874-3.554l0,0
		c8.955,6.992,10.546,19.92,3.554,28.874l-78.578,100.638C420.761,390.942,407.834,392.534,398.879,385.542z"/>
	
		<ellipse transform="matrix(0.9046 -0.4262 0.4262 0.9046 -123.4293 205.206)" style="fill:none;stroke:#040000;stroke-miterlimit:10;" cx="396.85" cy="378.425" rx="37.8" ry="18.235"/>
	
		<ellipse transform="matrix(0.8029 -0.5961 0.5961 0.8029 -164.8664 391.4562)" style="fill:none;stroke:#040000;stroke-miterlimit:10;" cx="509.528" cy="445.039" rx="37.8" ry="18.235"/>
	<path style="fill:none;stroke:#040000;stroke-miterlimit:10;" d="M662.42,564.193"/>
	<path style="fill:none;stroke:#040000;stroke-miterlimit:10;" d="M662.42,564.193"/>
	<path style="fill:none;stroke:#040000;stroke-miterlimit:10;" d="M662.42,564.193H492.342c0,46.966,38.073,85.039,85.039,85.039
		S662.42,611.159,662.42,564.193"/>
</g>
<g id="&#x30AC;&#x30A4;&#x30C9;" style="display:none;">
</g>
</svg>
