<?xml version="1.0" encoding="iso-8859-1"?>
<!-- Generator: Adobe Illustrator 23.0.6, SVG Export Plug-In . SVG Version: 6.00 Build 0)  -->
<svg version="1.1" id="&#x30EC;&#x30A4;&#x30E4;&#x30FC;_1"
	 xmlns="http://www.w3.org/2000/svg" xmlns:xlink="http://www.w3.org/1999/xlink" x="0px" y="0px" viewBox="0 0 512 512"
	 style="enable-background:new 0 0 512 512;" xml:space="preserve">
<rect x="140.516" y="175.042" style="fill:none;stroke:#50342F;stroke-miterlimit:10;" width="226.378" height="31.787"/>
<rect x="160.016" y="143.255" style="fill:none;stroke:#50342F;stroke-miterlimit:10;" width="187.378" height="31.787"/>
<polygon style="fill:none;stroke:#50342F;stroke-miterlimit:10;" points="324.516,450.828 182.516,450.828 157.516,206.828 
	349.516,206.828 "/>
<polygon style="fill:#CCCCCC;stroke:#CCCCCC;stroke-miterlimit:10;" points="153,240 162.745,328 343.254,328 353,240 "/>
<g id="&#x6E6F;&#x6C17;">
	<path style="fill:none;stroke:#50342F;" d="M209.969,113.243c-2.146,7.467-5.549,13.203-4.514,15.282
		c1.892-0.204,7.237-3.713,11.892-12.31c2.208-4.266,3.837-9.982,3.558-16.166c-0.262-6.14-2.551-12.455-5.491-17.655
		c-4.732-8.244-4.663-18.376-2.266-25.792c2.21-7.539,5.928-12.33,5.664-14.499c-1.901-0.577-8.32,2.761-12.985,11.385
		c-4.842,8.233-6.323,22.599,0.319,34.062C211.487,96.399,212.334,105.682,209.969,113.243z"/>
	<path style="fill:none;stroke:#50342F;" d="M252.182,113.243c-2.146,7.467-5.549,13.203-4.514,15.282
		c1.892-0.204,7.237-3.713,11.892-12.31c2.208-4.266,3.837-9.982,3.558-16.166c-0.262-6.14-2.551-12.455-5.491-17.655
		c-4.732-8.244-4.663-18.376-2.266-25.792c2.21-7.539,5.928-12.33,5.664-14.499c-1.901-0.577-8.32,2.761-12.985,11.385
		c-4.842,8.233-6.323,22.599,0.319,34.062C253.699,96.399,254.546,105.682,252.182,113.243z"/>
	<path style="fill:none;stroke:#50342F;" d="M294.231,113.243c-2.146,7.467-5.549,13.203-4.514,15.282
		c1.892-0.204,7.237-3.713,11.892-12.31c2.208-4.266,3.837-9.982,3.558-16.166c-0.262-6.14-2.551-12.455-5.491-17.655
		c-4.732-8.244-4.663-18.376-2.266-25.792c2.21-7.539,5.928-12.33,5.664-14.499c-1.901-0.577-8.32,2.761-12.985,11.385
		c-4.842,8.233-6.323,22.599,0.319,34.062C295.748,96.399,296.595,105.682,294.231,113.243z"/>
</g>
</svg>
