<?xml version="1.0" encoding="iso-8859-1"?>
<!-- Generator: Adobe Illustrator 23.0.6, SVG Export Plug-In . SVG Version: 6.00 Build 0)  -->
<svg version="1.1" id="&#x30EC;&#x30A4;&#x30E4;&#x30FC;_1"
	 xmlns="http://www.w3.org/2000/svg" xmlns:xlink="http://www.w3.org/1999/xlink" x="0px" y="0px" viewBox="0 0 500 500"
	 style="enable-background:new 0 0 500 500;" xml:space="preserve">
<g>
	<g id="&#x30AB;&#x30C3;&#x30D7;">
		<rect x="136.811" y="178.608" style="fill:none;stroke:#50342F;stroke-miterlimit:10;" width="226.378" height="31.787"/>
		<rect x="156.311" y="146.822" style="fill:none;stroke:#50342F;stroke-miterlimit:10;" width="187.378" height="31.787"/>
		<polygon style="fill:none;stroke:#50342F;stroke-miterlimit:10;" points="320.811,454.395 178.811,454.395 153.811,210.395 
			345.811,210.395 		"/>
		<polygon style="fill:#CCCCCC;stroke:#CCCCCC;stroke-miterlimit:10;" points="149.295,243.566 159.114,333.223 340.991,333.223 
			350.811,243.566 		"/>
	</g>
	<g id="&#x6E6F;&#x6C17;">
		<path style="fill:none;stroke:#50342F;" d="M206.264,116.809c-2.146,7.467-5.549,13.203-4.514,15.282
			c1.892-0.204,7.237-3.713,11.892-12.31c2.208-4.266,3.837-9.982,3.558-16.166c-0.262-6.14-2.551-12.455-5.491-17.655
			c-4.732-8.244-4.663-18.376-2.266-25.792c2.21-7.539,5.928-12.33,5.664-14.499c-1.901-0.577-8.32,2.761-12.985,11.385
			c-4.842,8.233-6.323,22.599,0.319,34.062C207.782,99.966,208.629,109.249,206.264,116.809z"/>
		<path style="fill:none;stroke:#50342F;" d="M248.477,116.809c-2.146,7.467-5.549,13.203-4.514,15.282
			c1.892-0.204,7.237-3.713,11.892-12.31c2.208-4.266,3.837-9.982,3.558-16.166c-0.262-6.14-2.551-12.455-5.491-17.655
			c-4.732-8.244-4.663-18.376-2.266-25.792c2.21-7.539,5.928-12.33,5.664-14.499c-1.902-0.577-8.32,2.761-12.985,11.385
			c-4.842,8.233-6.323,22.599,0.319,34.062C249.994,99.966,250.841,109.249,248.477,116.809z"/>
		<path style="fill:none;stroke:#50342F;" d="M290.526,116.809c-2.146,7.467-5.549,13.203-4.514,15.282
			c1.892-0.204,7.237-3.713,11.892-12.31c2.208-4.266,3.837-9.982,3.558-16.166c-0.262-6.14-2.551-12.455-5.491-17.655
			c-4.732-8.244-4.663-18.376-2.266-25.792c2.21-7.539,5.928-12.33,5.664-14.499c-1.901-0.577-8.32,2.761-12.985,11.385
			c-4.842,8.233-6.323,22.599,0.319,34.062C292.044,99.966,292.89,109.249,290.526,116.809z"/>
	</g>
</g>
</svg>
