<?xml version="1.0" encoding="iso-8859-1"?>
<!-- Generator: Adobe Illustrator 23.0.6, SVG Export Plug-In . SVG Version: 6.00 Build 0)  -->
<svg version="1.1" xmlns="http://www.w3.org/2000/svg" xmlns:xlink="http://www.w3.org/1999/xlink" x="0px" y="0px"
	 viewBox="0 0 512 512" style="enable-background:new 0 0 512 512;" xml:space="preserve">
<g id="&#x30D5;&#x30EB;&#x30FC;&#x30C4;">
</g>
<g id="&#x5916;&#x306E;&#x751F;&#x5730;">
</g>
<g id="&#x5305;&#x307F;&#x7D19;">
	<g>
		<g id="&#x30A4;&#x30C1;&#x30B4;_2_">
			<path style="fill:#FFFFFF;stroke:#50342F;stroke-miterlimit:10;" d="M278.779,102.138c0,16.223-10.199,21.363-22.779,21.363
				s-22.779-5.14-22.779-21.363S251.367,64.753,256,64.753C260.768,64.753,278.779,85.915,278.779,102.138z"/>
			<path style="fill:#FFFFFF;stroke:#50342F;stroke-miterlimit:10;" d="M261.338,107.112c0,12.727,0,16.389-5.338,16.389
				c-5.338,0-5.338-3.662-5.338-16.389s2.39-29.701,5.338-29.701C258.948,77.411,261.338,94.384,261.338,107.112z"/>
		</g>
		
			<ellipse id="&#x30D0;&#x30CA;&#x30CA;" transform="matrix(0.9904 -0.1382 0.1382 0.9904 -15.1574 31.1174)" style="fill:#FFFFFF;stroke:#50342F;stroke-miterlimit:10;" cx="216.558" cy="124.737" rx="20.789" ry="48.809"/>
		
			<ellipse id="&#x30D0;&#x30CA;&#x30CA;_1_" transform="matrix(0.1382 -0.9904 0.9904 0.1382 129.7702 398.6035)" style="fill:#FFFFFF;stroke:#50342F;stroke-miterlimit:10;" cx="293.92" cy="124.737" rx="48.809" ry="20.789"/>
		<g id="&#x30A4;&#x30C1;&#x30B4;_1_">
			<path style="fill:#FFFFFF;stroke:#50342F;stroke-miterlimit:10;" d="M205.425,129.947c2.246,16.065-7.142,22.582-19.6,24.341
				s-23.27-1.903-25.516-17.968c-2.246-16.065,12.794-39.56,17.381-40.208C182.412,95.446,203.179,113.882,205.425,129.947z"/>
			<path style="fill:#FFFFFF;stroke:#50342F;stroke-miterlimit:10;" d="M188.842,137.312c1.762,12.603,2.269,16.23-3.017,16.976
				s-5.793-2.879-7.555-15.483c-1.762-12.603-1.746-29.746,1.173-30.158C182.363,108.235,187.08,124.709,188.842,137.312z"/>
		</g>
		<g id="&#x30A4;&#x30C1;&#x30B4;">
			<path style="fill:#FFFFFF;stroke:#50342F;stroke-miterlimit:10;" d="M351.685,136.28c-2.246,16.065-13.057,19.728-25.516,17.968
				c-12.458-1.76-21.846-8.277-19.6-24.341c2.246-16.065,23.147-34.483,27.734-33.835C339.025,96.74,353.931,120.216,351.685,136.28
				z"/>
			<path style="fill:#FFFFFF;stroke:#50342F;stroke-miterlimit:10;" d="M333.724,138.766c-1.762,12.603-2.269,16.23-7.555,15.483
				c-5.286-0.747-4.779-4.373-3.017-16.976c1.762-12.603,6.479-29.077,9.398-28.665S335.486,126.162,333.724,138.766z"/>
		</g>
		
			<ellipse id="&#x30D0;&#x30CB;&#x30E9;&#x30A2;&#x30A4;&#x30B9;" style="fill:#FFFFFF;stroke:#50342F;stroke-miterlimit:10;" cx="256" cy="144.539" rx="54.319" ry="39.661"/>
		<path id="&#x30C1;&#x30E7;&#x30B3;&#x30BD;&#x30FC;&#x30B9;" style="fill:#FFFFFF;stroke:#50342F;stroke-miterlimit:10;" d="
			M209.134,135.799c9.216-12.723,16.535-21.526,18.505-20.4c2.877,1.643-7.412,23.455-4.94,24.756
			c3.001,1.58,21.048-29.06,23.446-27.756c2.354,1.281-12.976,31.963-10.148,33.601c3.157,1.829,25.921-34.309,29.25-32.401
			c2.99,1.714-12.616,32.438-9.551,34.201c3.227,1.856,24.24-30.093,26.266-28.801c1.765,1.126-12.812,26.255-10.745,27.601
			c2.164,1.408,20.581-24.533,23.281-22.8c2.018,1.295-6.812,16.73-4.179,18.6c1.696,1.204,7.366-3.771,13.133-9.6"/>
		
			<ellipse transform="matrix(0.9904 -0.1383 0.1383 0.9904 -13.5314 30.0082)" style="stroke:#50342F;stroke-miterlimit:10;" cx="209.134" cy="112.358" rx="0.822" ry="2.625"/>
		
			<ellipse transform="matrix(0.9904 -0.1383 0.1383 0.9904 -13.2686 31.2427)" style="stroke:#50342F;stroke-miterlimit:10;" cx="218.146" cy="111.085" rx="0.822" ry="2.625"/>
		
			<ellipse transform="matrix(0.1383 -0.9904 0.9904 0.1383 146.7057 393.3354)" style="stroke:#50342F;stroke-miterlimit:10;" cx="299.397" cy="112.358" rx="2.625" ry="0.822"/>
		
			<ellipse transform="matrix(0.1383 -0.9904 0.9904 0.1383 140.2005 383.3122)" style="stroke:#50342F;stroke-miterlimit:10;" cx="290.384" cy="111.085" rx="2.625" ry="0.822"/>
		<path style="fill:#FFFFFF;stroke:#50342F;stroke-miterlimit:10;" d="M336.766,201.966
			c-50.584-38.999-113.84-62.217-182.498-62.296L256,441.938L336.766,201.966z"/>
		<path style="fill:#FFFFFF;stroke:#50342F;stroke-miterlimit:10;" d="M357.732,139.67c-68.658,0.076-131.915,23.292-182.5,62.289
			L256,441.938L357.732,139.67z"/>
		<polygon style="fill:#CCCCCC;stroke:#CCCCCC;stroke-miterlimit:10;" points="336,210 176,210 256,442 		"/>
	</g>
</g>
<g id="&#x30AC;&#x30A4;&#x30C9;">
</g>
</svg>
