<?xml version="1.0" encoding="iso-8859-1"?>
<!-- Generator: Adobe Illustrator 23.0.6, SVG Export Plug-In . SVG Version: 6.00 Build 0)  -->
<svg version="1.1" xmlns="http://www.w3.org/2000/svg" xmlns:xlink="http://www.w3.org/1999/xlink" x="0px" y="0px"
	 viewBox="0 0 500 500" style="enable-background:new 0 0 500 500;" xml:space="preserve">
<g id="&#x30D5;&#x30EB;&#x30FC;&#x30C4;">
</g>
<g id="&#x5916;&#x306E;&#x751F;&#x5730;">
</g>
<g id="&#x5305;&#x307F;&#x7D19;">
	<g>
		<g id="&#x30A4;&#x30C1;&#x30B4;_2_">
			<path style="fill:#FFFFFF;stroke:#50342F;stroke-miterlimit:10;" d="M272.779,99.565c0,16.14-10.199,21.254-22.779,21.254
				s-22.779-5.114-22.779-21.254S245.367,62.371,250,62.371C254.768,62.371,272.779,83.425,272.779,99.565z"/>
			<path style="fill:#FFFFFF;stroke:#50342F;stroke-miterlimit:10;" d="M255.338,104.513c0,12.662,0,16.305-5.338,16.305
				c-5.338,0-5.338-3.643-5.338-16.305s2.39-29.549,5.338-29.549C252.948,74.964,255.338,91.851,255.338,104.513z"/>
		</g>
		
			<ellipse id="&#x30D0;&#x30CA;&#x30CA;" transform="matrix(0.9903 -0.1392 0.1392 0.9903 -14.9367 30.4919)" style="fill:#FFFFFF;stroke:#50342F;stroke-miterlimit:10;" cx="210.558" cy="122.048" rx="20.787" ry="48.565"/>
		
			<ellipse id="&#x30D0;&#x30CA;&#x30CA;_1_" transform="matrix(0.1392 -0.9903 0.9903 0.1392 126.9889 390.1805)" style="fill:#FFFFFF;stroke:#50342F;stroke-miterlimit:10;" cx="287.92" cy="122.048" rx="48.565" ry="20.787"/>
		<g id="&#x30A4;&#x30C1;&#x30B4;_1_">
			<path style="fill:#FFFFFF;stroke:#50342F;stroke-miterlimit:10;" d="M199.425,127.232c2.246,15.983-7.142,22.466-19.6,24.217
				s-23.27-1.894-25.516-17.876c-2.246-15.983,12.794-39.357,17.381-40.002C176.412,92.907,197.179,111.249,199.425,127.232z"/>
			<path style="fill:#FFFFFF;stroke:#50342F;stroke-miterlimit:10;" d="M182.842,134.56c1.762,12.539,2.269,16.147-3.017,16.89
				s-5.793-2.865-7.555-15.404c-1.762-12.539-1.746-29.594,1.173-30.004C176.363,105.631,181.08,122.02,182.842,134.56z"/>
		</g>
		<g id="&#x30A4;&#x30C1;&#x30B4;">
			<path style="fill:#FFFFFF;stroke:#50342F;stroke-miterlimit:10;" d="M345.685,133.533c-2.246,15.983-13.057,19.627-25.516,17.877
				c-12.458-1.751-21.846-8.234-19.6-24.217c2.246-15.983,23.147-34.306,27.734-33.662
				C333.025,94.194,347.931,117.55,345.685,133.533z"/>
			<path style="fill:#FFFFFF;stroke:#50342F;stroke-miterlimit:10;" d="M327.724,136.006c-1.762,12.539-2.269,16.147-7.555,15.404
				c-5.286-0.743-4.779-4.351-3.017-16.89c1.762-12.539,6.479-28.929,9.398-28.518S329.486,123.467,327.724,136.006z"/>
		</g>
		
			<ellipse id="&#x30D0;&#x30CB;&#x30E9;&#x30A2;&#x30A4;&#x30B9;" style="fill:#FFFFFF;stroke:#50342F;stroke-miterlimit:10;" cx="250" cy="141.749" rx="54.319" ry="39.458"/>
		<path id="&#x30C1;&#x30E7;&#x30B3;&#x30BD;&#x30FC;&#x30B9;" style="fill:#FFFFFF;stroke:#50342F;stroke-miterlimit:10;" d="
			M203.134,133.054c9.216-12.658,16.535-21.416,18.505-20.296c2.877,1.635-7.412,23.335-4.94,24.629
			c3.001,1.572,21.048-28.911,23.446-27.614c2.354,1.274-12.976,31.799-10.148,33.429c3.157,1.819,25.921-34.133,29.25-32.235
			c2.99,1.705-12.616,32.273-9.551,34.026c3.227,1.846,24.24-29.939,26.266-28.653c1.765,1.12-12.812,26.121-10.745,27.46
			c2.164,1.401,20.581-24.407,23.281-22.684c2.018,1.288-6.812,16.645-4.179,18.505c1.696,1.198,7.366-3.752,13.133-9.551"/>
		
			<ellipse transform="matrix(0.9903 -0.1392 0.1392 0.9903 -13.295 29.3386)" style="stroke:#50342F;stroke-miterlimit:10;" cx="203.134" cy="109.733" rx="0.822" ry="2.612"/>
		
			<ellipse transform="matrix(0.9903 -0.1392 0.1392 0.9903 -13.031 30.5807)" style="stroke:#50342F;stroke-miterlimit:10;" cx="212.146" cy="108.466" rx="0.822" ry="2.612"/>
		
			<ellipse transform="matrix(0.1392 -0.9903 0.9903 0.1392 143.8994 385.003)" style="stroke:#50342F;stroke-miterlimit:10;" cx="293.397" cy="109.733" rx="2.612" ry="0.822"/>
		
			<ellipse transform="matrix(0.1392 -0.9903 0.9903 0.1392 137.3952 374.9875)" style="stroke:#50342F;stroke-miterlimit:10;" cx="284.384" cy="108.466" rx="2.612" ry="0.822"/>
		<path style="fill:#FFFFFF;stroke:#50342F;stroke-miterlimit:10;" d="M330.766,198.883
			c-50.584-38.799-113.84-61.899-182.498-61.978L250,437.629L330.766,198.883z"/>
		<path style="fill:#FFFFFF;stroke:#50342F;stroke-miterlimit:10;" d="M351.732,136.905c-68.658,0.076-131.915,23.173-182.5,61.97
			L250,437.629L351.732,136.905z"/>
		<polygon style="fill:#CCCCCC;stroke:#CCCCCC;stroke-miterlimit:10;" points="328.062,206.876 171.938,206.876 250,437.629 		"/>
	</g>
</g>
<g id="&#x30AC;&#x30A4;&#x30C9;">
</g>
</svg>
