<?xml version="1.0" encoding="iso-8859-1"?>
<!-- Generator: Adobe Illustrator 23.0.3, SVG Export Plug-In . SVG Version: 6.00 Build 0)  -->
<svg version="1.1" xmlns="http://www.w3.org/2000/svg" xmlns:xlink="http://www.w3.org/1999/xlink" x="0px" y="0px"
	 viewBox="0 0 1024 768" style="enable-background:new 0 0 1024 768;" xml:space="preserve">
<g id="&#x30CF;&#x30C1;&#x30C9;&#x30EA;">
	<polygon id="&#x3057;&#x3063;&#x307D;1" style="fill:none;stroke:#040000;stroke-miterlimit:10;" points="371.855,596.357 
		362.209,490.736 453.343,511.48 	"/>
	<polygon id="&#x3057;&#x3063;&#x307D;2" style="fill:none;stroke:#040000;stroke-miterlimit:10;" points="382.938,501.179 
		345.127,682.408 431.179,654.376 	"/>
	<path id="&#x7FBD;1" style="fill:none;stroke:#040000;stroke-miterlimit:10;" d="M131.997,353.882h343.701v113.97
		C356.082,465.429,138.011,444.966,131.997,353.882z"/>
	<path id="&#x7FBD;2_1_" style="fill:none;stroke:#040000;stroke-miterlimit:10;" d="M437.113,458.284
		c0,0-236.978-194.816-190.643-251.372l237.304,194.419L437.113,458.284z"/>
	
		<ellipse id="&#x80F4;&#x4F53;" transform="matrix(0.2901 -0.957 0.957 0.2901 -115.0975 716.6016)" style="fill:none;stroke:#040000;stroke-miterlimit:10;" cx="425.456" cy="435.879" rx="104.993" ry="61.5"/>
	<circle id="&#x982D;" style="fill:none;stroke:#040000;stroke-miterlimit:10;" cx="453.343" cy="325.816" r="45.633"/>
	<polygon id="&#x9F3B;" style="fill:none;stroke:#040000;stroke-miterlimit:10;" points="523.236,285.157 465.466,311.317 
		451.638,280.778 	"/>
	<polygon id="&#x53E3;" style="fill:none;stroke:#040000;stroke-miterlimit:10;" points="517.855,288.036 482.988,302.836 
		489.385,317.906 	"/>
	
		<rect id="&#x304F;&#x3061;&#x3070;&#x3057;" x="469.543" y="271.124" transform="matrix(0.9182 -0.3961 0.3961 0.9182 -65.534 234.9386)" style="fill:none;stroke:#040000;stroke-miterlimit:10;" width="133.131" height="10.056"/>
	<circle id="&#x767D;&#x773C;" style="fill:none;stroke:#040000;stroke-miterlimit:10;" cx="456.799" cy="303.658" r="10.545"/>
	<circle id="&#x9ED2;&#x773C;" style="fill:none;stroke:#040000;stroke-miterlimit:10;" cx="459.694" cy="300.544" r="3.114"/>
	<polygon style="fill:none;stroke:#040000;stroke-miterlimit:10;" points="619.388,245.628 599.223,254.377 595.217,245.143 	"/>
</g>
<g id="&#x82B1;">
	<ellipse style="fill:none;stroke:#040000;stroke-miterlimit:10;" cx="724.68" cy="256.769" rx="75.457" ry="37.728"/>
	
		<ellipse transform="matrix(0.7071 -0.7071 0.7071 0.7071 8.6373 609.8474)" style="fill:none;stroke:#040000;stroke-miterlimit:10;" cx="740.47" cy="294.497" rx="75.457" ry="37.728"/>
	
		<ellipse transform="matrix(0.7071 -0.7071 0.7071 0.7071 61.9475 587.7656)" style="fill:none;stroke:#040000;stroke-miterlimit:10;" cx="740.47" cy="219.105" rx="37.728" ry="75.457"/>
	<ellipse style="fill:none;stroke:#040000;stroke-miterlimit:10;" cx="800.136" cy="256.801" rx="22.092" ry="12.712"/>
	
		<rect x="840.64" y="67.941" transform="matrix(0.9798 -0.2001 0.2001 0.9798 -60.1046 177.6164)" style="fill:none;stroke:#040000;stroke-miterlimit:10;" width="16.215" height="636.498"/>
</g>
</svg>
