<?xml version="1.0" encoding="iso-8859-1"?>
<!-- Generator: Adobe Illustrator 23.0.6, SVG Export Plug-In . SVG Version: 6.00 Build 0)  -->
<svg version="1.1" id="&#x30EC;&#x30A4;&#x30E4;&#x30FC;_1"
	 xmlns="http://www.w3.org/2000/svg" xmlns:xlink="http://www.w3.org/1999/xlink" x="0px" y="0px" viewBox="0 0 500 500"
	 style="enable-background:new 0 0 500 500;" xml:space="preserve">
<path id="&#x30D0;&#x30FC;" style="fill:#FFFFFF;stroke:#50342F;stroke-miterlimit:10;" d="M255.18,462.327H244.82
	c-4.677,0-8.504-3.827-8.504-8.504V128.463c0-4.677,3.827-8.504,8.504-8.504h10.361c4.677,0,8.504,3.827,8.504,8.504v325.359
	C263.684,458.5,259.857,462.327,255.18,462.327z"/>
<path id="&#x306F;&#x307F;&#x51FA;&#x3057;" style="fill:#040000;stroke:#50342F;stroke-miterlimit:10;" d="M288.496,330h-76.992
	c-4.677,0-8.504-3.827-8.504-8.504V316h94v5.496C297,326.173,293.173,330,288.496,330z"/>
<g id="&#x5168;&#x4F53;">
	<path style="fill:#CCCCCC;" d="M180,316.5c-6.341,0-11.5-5.159-11.5-11.5V49c0-6.341,5.159-11.5,11.5-11.5h140
		c6.341,0,11.5,5.159,11.5,11.5v256c0,6.341-5.159,11.5-11.5,11.5H180z"/>
	<path style="fill:#CCCCCC;" d="M320,38c6.065,0,11,4.935,11,11v256c0,6.065-4.935,11-11,11H180c-6.065,0-11-4.935-11-11V49
		c0-6.065,4.935-11,11-11H320 M320,37H180c-6.6,0-12,5.4-12,12v256c0,6.6,5.4,12,12,12h140c6.6,0,12-5.4,12-12V49
		C332,42.4,326.6,37,320,37L320,37z"/>
</g>
<g id="&#x3059;&#x3058;">
	<path style="fill:#FFFFFF;" d="M211.587,277.376c-4.414,0-8.004-3.59-8.004-8.004V37.5h22.232v231.873
		c0,4.414-3.59,8.004-8.004,8.004H211.587z"/>
	<path style="fill:#50342F;" d="M225.316,38v231.373c0,4.138-3.366,7.504-7.504,7.504h-6.224c-4.138,0-7.504-3.366-7.504-7.504V38
		H225.316 M226.316,37h-23.232v232.373c0,4.677,3.827,8.504,8.504,8.504h6.224c4.677,0,8.504-3.827,8.504-8.504V37L226.316,37z"/>
</g>
<g id="&#x3059;&#x3058;_1_">
	<path style="fill:#FFFFFF;" d="M282.188,277.376c-4.414,0-8.004-3.59-8.004-8.004V37.5h22.232v231.873
		c0,4.414-3.59,8.004-8.004,8.004H282.188z"/>
	<path style="fill:#50342F;" d="M295.917,38v231.373c0,4.138-3.366,7.504-7.504,7.504h-6.224c-4.138,0-7.504-3.366-7.504-7.504V38
		H295.917 M296.917,37h-23.232v232.373c0,4.677,3.827,8.504,8.504,8.504h6.224c4.677,0,8.504-3.827,8.504-8.504V37L296.917,37z"/>
</g>
</svg>
