<?xml version="1.0" encoding="iso-8859-1"?>
<!-- Generator: Adobe Illustrator 23.0.6, SVG Export Plug-In . SVG Version: 6.00 Build 0)  -->
<svg version="1.1" id="&#x30EC;&#x30A4;&#x30E4;&#x30FC;_1"
	 xmlns="http://www.w3.org/2000/svg" xmlns:xlink="http://www.w3.org/1999/xlink" x="0px" y="0px" viewBox="0 0 500 500"
	 style="enable-background:new 0 0 500 500;" xml:space="preserve">
<path id="&#x30D0;&#x30FC;" style="fill:#FFFFFF;stroke:#50342F;stroke-miterlimit:10;" d="M255.18,462.327H244.82
	c-4.677,0-8.504-3.827-8.504-8.504V128.463c0-4.677,3.827-8.504,8.504-8.504h10.361c4.677,0,8.504,3.827,8.504,8.504v325.359
	C263.684,458.5,259.857,462.327,255.18,462.327z"/>
<path id="&#x306F;&#x307F;&#x51FA;&#x3057;" style="fill:#040000;stroke:#50342F;stroke-miterlimit:10;" d="M288.496,331h-76.992
	c-4.677,0-8.504-3.827-8.504-8.504V317h94v5.496C297,327.173,293.173,331,288.496,331z"/>
<path id="&#x5168;&#x4F53;" style="fill:#CCCCCC;stroke:#CCCCCC;stroke-miterlimit:10;" d="M320,317H180c-6.6,0-12-5.4-12-12V49
	c0-6.6,5.4-12,12-12h140c6.6,0,12,5.4,12,12v256C332,311.6,326.6,317,320,317z"/>
<g>
	<path id="&#x3059;&#x3058;" style="fill:#FFFFFF;stroke:#50342F;stroke-miterlimit:10;" d="M217.812,277.876h-6.224
		c-4.677,0-8.504-3.827-8.504-8.504V37h23.232v232.372C226.316,274.05,222.489,277.876,217.812,277.876z"/>
	<path id="&#x3059;&#x3058;_1_" style="fill:#FFFFFF;stroke:#50342F;stroke-miterlimit:10;" d="M288.413,277.876h-6.224
		c-4.677,0-8.504-3.827-8.504-8.504V37h23.232v232.372C296.917,274.05,293.09,277.876,288.413,277.876z"/>
</g>
</svg>
