<?xml version="1.0" encoding="iso-8859-1"?>
<!-- Generator: Adobe Illustrator 23.0.6, SVG Export Plug-In . SVG Version: 6.00 Build 0)  -->
<svg version="1.1" id="&#x30EC;&#x30A4;&#x30E4;&#x30FC;_1"
	 xmlns="http://www.w3.org/2000/svg" xmlns:xlink="http://www.w3.org/1999/xlink" x="0px" y="0px" viewBox="0 0 500 500"
	 style="enable-background:new 0 0 500 500;" xml:space="preserve">
<g>
	<path id="&#x30D0;&#x30FC;" style="fill:#FFFFFF;stroke:#50342F;stroke-miterlimit:10;" d="M255.18,462.327H244.82
		c-4.677,0-8.504-3.827-8.504-8.504V128.463c0-4.677,3.827-8.504,8.504-8.504h10.361c4.677,0,8.504,3.827,8.504,8.504v325.359
		C263.684,458.5,259.857,462.327,255.18,462.327z"/>
	<path id="&#x5168;&#x4F53;" style="fill:#CCCCCC;stroke:#CCCCCC;stroke-miterlimit:10;" d="M320.286,319.061H179.714
		c-6.6,0-12-5.4-12-12V49.673c0-6.6,5.4-12,12-12h140.571c6.6,0,12,5.4,12,12v257.388
		C332.286,313.661,326.886,319.061,320.286,319.061z"/>
	<path id="&#x306F;&#x307F;&#x51FA;&#x3057;" style="fill:#FFFFFF;stroke:#50342F;stroke-miterlimit:10;" d="M288.413,332.531
		h-76.825c-4.677,0-8.504-3.827-8.504-8.504v-4.965h93.833v4.965C296.917,328.704,293.09,332.531,288.413,332.531z"/>
	<path id="&#x3059;&#x3058;" style="fill:#FFFFFF;stroke:#50342F;stroke-miterlimit:10;" d="M217.812,278.55h-6.224
		c-4.677,0-8.504-3.827-8.504-8.504V37.673h23.232v232.373C226.316,274.723,222.489,278.55,217.812,278.55z"/>
	<path id="&#x3059;&#x3058;_1_" style="fill:#FFFFFF;stroke:#50342F;stroke-miterlimit:10;" d="M288.413,278.55h-6.224
		c-4.677,0-8.504-3.827-8.504-8.504V37.673h23.232v232.373C296.917,274.723,293.09,278.55,288.413,278.55z"/>
</g>
</svg>
