<?xml version="1.0" encoding="iso-8859-1"?>
<!-- Generator: Adobe Illustrator 23.0.3, SVG Export Plug-In . SVG Version: 6.00 Build 0)  -->
<svg version="1.1" xmlns="http://www.w3.org/2000/svg" xmlns:xlink="http://www.w3.org/1999/xlink" x="0px" y="0px"
	 viewBox="0 0 1024 768" style="enable-background:new 0 0 1024 768;" xml:space="preserve">
<g id="&#x30AB;&#x30CB;">
	<g id="&#x80F4;&#x4F53;">
		<polygon style="fill:none;stroke:#000000;stroke-miterlimit:10;" points="695.145,480.088 695.187,479.979 695.104,479.979 
			660.125,388.806 512,328.078 512,327.979 511.88,328.029 511.611,327.919 511.611,328.139 511.611,632.038 511.611,632.258 
			511.88,632.148 512,632.197 512,632.099 660.125,571.371 695.104,480.197 695.187,480.197 		"/>
		<polygon style="fill:none;stroke:#000000;stroke-miterlimit:10;" points="512,328.078 512,327.979 511.88,328.029 
			511.611,328.139 363.486,388.867 328.554,479.919 328.424,479.919 328.489,480.088 328.424,480.258 328.554,480.258 
			363.486,571.31 512,632.197 512,632.099 		"/>
	</g>
	<g id="&#x8DB3;">
		<g id="&#x53F3;1">
			
				<rect x="633.255" y="396.953" transform="matrix(0.9029 -0.4298 0.4298 0.9029 -110.3845 345.8279)" style="fill:none;stroke:#000000;stroke-miterlimit:10;" width="154.124" height="40.608"/>
			<polygon style="fill:none;stroke:#000000;stroke-miterlimit:10;" points="788.624,402.465 771.17,365.8 867.197,402.816 			"/>
		</g>
		<g id="&#x53F3;2">
			
				<rect x="669.039" y="453.13" transform="matrix(0.9909 -0.1344 0.1344 0.9909 -56.8652 104.582)" style="fill:none;stroke:#000000;stroke-miterlimit:10;" width="154.124" height="40.608"/>
			<polygon style="fill:none;stroke:#000000;stroke-miterlimit:10;" points="825.193,483.195 819.734,442.956 899.926,507.46 			"/>
		</g>
		<g id="&#x53F3;3">
			
				<rect x="658.262" y="509.012" transform="matrix(0.9933 0.1152 -0.1152 0.9933 65.8671 -81.1791)" style="fill:none;stroke:#000000;stroke-miterlimit:10;" width="154.124" height="40.608"/>
			<polygon style="fill:none;stroke:#000000;stroke-miterlimit:10;" points="809.534,558.362 814.212,518.024 875.93,600.379 			"/>
		</g>
		<g id="&#x53F3;4">
			
				<rect x="628.971" y="559.227" transform="matrix(0.9452 0.3266 -0.3266 0.9452 227.9665 -198.7949)" style="fill:none;stroke:#000000;stroke-miterlimit:10;" width="154.124" height="40.608"/>
			<polygon style="fill:none;stroke:#000000;stroke-miterlimit:10;" points="772.24,623.888 785.501,585.507 828.019,679.228 			"/>
		</g>
		<g id="&#x5DE6;1">
			
				<rect x="236.621" y="396.953" transform="matrix(-0.9029 -0.4298 0.4298 -0.9029 417.5605 928.8315)" style="fill:none;stroke:#000000;stroke-miterlimit:10;" width="154.124" height="40.608"/>
			<polygon style="fill:none;stroke:#000000;stroke-miterlimit:10;" points="235.376,402.465 252.83,365.8 156.803,402.816 			"/>
		</g>
		<g id="&#x5DE6;2">
			
				<rect x="200.837" y="453.13" transform="matrix(-0.9909 -0.1344 0.1344 -0.9909 489.6409 979.9248)" style="fill:none;stroke:#000000;stroke-miterlimit:10;" width="154.124" height="40.608"/>
			<polygon style="fill:none;stroke:#000000;stroke-miterlimit:10;" points="198.807,483.195 204.266,442.956 124.074,507.46 			"/>
		</g>
		<g id="&#x5DE6;3">
			
				<rect x="211.614" y="509.012" transform="matrix(-0.9933 0.1152 -0.1152 -0.9933 636.4027 1021.8558)" style="fill:none;stroke:#000000;stroke-miterlimit:10;" width="154.124" height="40.608"/>
			<polygon style="fill:none;stroke:#000000;stroke-miterlimit:10;" points="214.466,558.362 209.788,518.024 148.07,600.379 			"/>
		</g>
		<g id="&#x5DE6;4">
			
				<rect x="240.905" y="559.227" transform="matrix(-0.9452 0.3266 -0.3266 -0.9452 807.7578 1023.4505)" style="fill:none;stroke:#000000;stroke-miterlimit:10;" width="154.124" height="40.608"/>
			<polygon style="fill:none;stroke:#000000;stroke-miterlimit:10;" points="251.76,623.888 238.499,585.507 195.981,679.228 			"/>
		</g>
	</g>
	<g id="&#x306F;&#x3055;&#x307F;">
		<g id="&#x53F3;">
			
				<rect x="578.071" y="350.973" transform="matrix(0.866 -0.5 0.5 0.866 -97.867 377.308)" style="fill:none;stroke:#000000;stroke-miterlimit:10;" width="154.124" height="40.608"/>
			
				<ellipse transform="matrix(0.9488 -0.3158 0.3158 0.9488 -36.5162 229.7498)" style="fill:none;stroke:#000000;stroke-miterlimit:10;" cx="690.62" cy="227.543" rx="61.291" ry="129.838"/>
			
				<ellipse transform="matrix(0.9488 -0.3158 0.3158 0.9488 -20.3325 221.2889)" style="fill:none;stroke:#000000;stroke-miterlimit:10;" cx="672.606" cy="173.379" rx="38.987" ry="82.59"/>
		</g>
		<g id="&#x5DE6;">
			
				<rect x="291.805" y="350.973" transform="matrix(-0.866 -0.5 0.5 -0.866 502.6774 877.2447)" style="fill:none;stroke:#000000;stroke-miterlimit:10;" width="154.124" height="40.608"/>
			
				<ellipse transform="matrix(0.3158 -0.9488 0.9488 0.3158 12.1972 472.0013)" style="fill:none;stroke:#000000;stroke-miterlimit:10;" cx="333.38" cy="227.543" rx="129.838" ry="61.291"/>
			
				<ellipse transform="matrix(0.3158 -0.9488 0.9488 0.3158 75.9142 452.0345)" style="fill:none;stroke:#000000;stroke-miterlimit:10;" cx="351.394" cy="173.379" rx="82.59" ry="38.987"/>
		</g>
	</g>
	<g id="&#x773C;">
		
			<ellipse id="&#x53F3;_2_" style="fill:none;stroke:#000000;stroke-miterlimit:10;" cx="564.426" cy="333.098" rx="15.574" ry="35.647"/>
		
			<ellipse id="&#x5DE6;_2_" style="fill:none;stroke:#000000;stroke-miterlimit:10;" cx="459.574" cy="333.098" rx="15.574" ry="35.647"/>
	</g>
</g>
<g id="&#x30AC;&#x30A4;&#x30C9;">
</g>
</svg>
