<?xml version="1.0" encoding="iso-8859-1"?>
<!-- Generator: Adobe Illustrator 23.0.6, SVG Export Plug-In . SVG Version: 6.00 Build 0)  -->
<svg version="1.1" id="&#x30EC;&#x30A4;&#x30E4;&#x30FC;_1"
	 xmlns="http://www.w3.org/2000/svg" xmlns:xlink="http://www.w3.org/1999/xlink" x="0px" y="0px" viewBox="0 0 512 512"
	 style="enable-background:new 0 0 512 512;" xml:space="preserve">
<g>
	
		<rect id="&#x304F;&#x3057;" x="249.264" y="74.538" style="fill:#040000;stroke:#50342F;stroke-miterlimit:10;" width="13.473" height="389.823"/>
	<path style="fill:#FFFFFF;stroke:#50342F;stroke-miterlimit:10;" d="M250.075,38.101l-61.886,62.154
		c-5.249,5.272-1.515,14.26,5.925,14.26h123.771c7.44,0,11.174-8.988,5.925-14.26l-61.886-62.154
		C258.657,34.819,253.343,34.819,250.075,38.101z"/>
	<path style="fill:#CCCCCC;" d="M308,360H204c-4.4,0-8-3.6-8-8V248c0-4.4,3.6-8,8-8h104c4.4,0,8,3.6,8,8v104
		C316,356.4,312.4,360,308,360z"/>
</g>
<g id="&#x5927;&#x6839;">
	<g>
		<line style="fill:#FFFFFF;" x1="208" y1="176.894" x2="304" y2="176.894"/>
		<line style="fill:#FFFFFF;" x1="222.059" y1="210.835" x2="289.941" y2="142.953"/>
		<line style="fill:#FFFFFF;" x1="256" y1="224.894" x2="256" y2="128.894"/>
		<line style="fill:#FFFFFF;" x1="289.941" y1="210.835" x2="222.059" y2="142.953"/>
		<circle style="fill:#FFFFFF;" cx="256" cy="176.894" r="55.054"/>
	</g>
	<g>
		<line style="fill:none;stroke:#50342F;stroke-miterlimit:10;" x1="208" y1="176.894" x2="304" y2="176.894"/>
		<line style="fill:none;stroke:#50342F;stroke-miterlimit:10;" x1="222.059" y1="210.835" x2="289.941" y2="142.953"/>
		<line style="fill:none;stroke:#50342F;stroke-miterlimit:10;" x1="256" y1="224.894" x2="256" y2="128.894"/>
		<line style="fill:none;stroke:#50342F;stroke-miterlimit:10;" x1="289.941" y1="210.835" x2="222.059" y2="142.953"/>
		<circle style="fill:#FFFFFF;stroke:#50342F;stroke-miterlimit:10;" cx="256" cy="176.894" r="55.054"/>
	</g>
	<g>
		<line style="fill:none;stroke:#50342F;stroke-miterlimit:10;" x1="208" y1="176.894" x2="304" y2="176.894"/>
		<line style="fill:none;stroke:#50342F;stroke-miterlimit:10;" x1="222.059" y1="210.835" x2="289.941" y2="142.953"/>
		<line style="fill:none;stroke:#50342F;stroke-miterlimit:10;" x1="256" y1="224.894" x2="256" y2="128.894"/>
		<line style="fill:none;stroke:#50342F;stroke-miterlimit:10;" x1="289.941" y1="210.835" x2="222.059" y2="142.953"/>
		<circle style="fill:none;stroke:#50342F;stroke-miterlimit:10;" cx="256" cy="176.894" r="55.054"/>
	</g>
</g>
</svg>
