<?xml version="1.0" encoding="iso-8859-1"?>
<!-- Generator: Adobe Illustrator 23.0.6, SVG Export Plug-In . SVG Version: 6.00 Build 0)  -->
<svg version="1.1" id="&#x30EC;&#x30A4;&#x30E4;&#x30FC;_1"
	 xmlns="http://www.w3.org/2000/svg" xmlns:xlink="http://www.w3.org/1999/xlink" x="0px" y="0px" viewBox="0 0 500 500"
	 style="enable-background:new 0 0 500 500;" xml:space="preserve">
<g>
	
		<rect id="&#x304F;&#x3057;" x="243.264" y="74.538" style="fill:#040000;stroke:#50342F;stroke-miterlimit:10;" width="13.473" height="389.823"/>
	<path style="fill:#FFFFFF;stroke:#50342F;stroke-miterlimit:10;" d="M244.075,38.101l-61.886,62.154
		c-5.249,5.272-1.515,14.26,5.925,14.26h123.771c7.44,0,11.174-8.988,5.925-14.26l-61.886-62.154
		C252.657,34.819,247.343,34.819,244.075,38.101z"/>
	<circle style="fill:#FFFFFF;stroke:#50342F;stroke-miterlimit:10;" cx="250" cy="173.894" r="55.054"/>
	<path style="fill:#CCCCCC;stroke:#CCCCCC;stroke-miterlimit:10;" d="M302.23,362.081H197.77c-6.6,0-12-5.4-12-12V245.622
		c0-6.6,5.4-12,12-12H302.23c6.6,0,12,5.4,12,12v104.459C314.23,356.681,308.83,362.081,302.23,362.081z"/>
</g>
</svg>
