<?xml version="1.0" encoding="iso-8859-1"?>
<!-- Generator: Adobe Illustrator 23.0.6, SVG Export Plug-In . SVG Version: 6.00 Build 0)  -->
<svg version="1.1" id="&#x30EC;&#x30A4;&#x30E4;&#x30FC;_2"
	 xmlns="http://www.w3.org/2000/svg" xmlns:xlink="http://www.w3.org/1999/xlink" x="0px" y="0px" viewBox="0 0 512 512"
	 style="enable-background:new 0 0 512 512;" xml:space="preserve">
<polygon id="&#x30D1;&#x30F3;_2_" style="display:none;fill:#CCCCCC;stroke:#040000;stroke-linecap:round;stroke-linejoin:round;stroke-miterlimit:10;" points="
	395,400.003 155,400.003 155,72 "/>
<polygon id="&#x30D1;&#x30F3;_1_" style="fill:#CCCCCC;" points="352,432.003 112,432.003 112,104 "/>
<polygon style="display:none;fill:#CCCCCC;stroke:#040000;stroke-linecap:round;stroke-linejoin:round;stroke-miterlimit:10;" points="
	155,72 112,104 352,432 395,400 "/>
<polygon style="display:none;fill:#FFFFFF;stroke:#040000;stroke-linecap:round;stroke-linejoin:round;stroke-miterlimit:10;" points="
	112,104 352,432 367.107,420.758 127.107,92.758 "/>
<polygon style="display:none;fill:#FFFFFF;stroke:#040000;stroke-linecap:round;stroke-linejoin:round;stroke-miterlimit:10;" points="
	139.893,83.242 379.893,411.242 395,400 155,72 "/>
<polygon style="display:none;fill:#FFFFFF;" points="155,72 112,104 352,432 395,400 "/>
<g>
	<polygon style="fill:#FFFFFF;" points="112.696,104.105 127.001,93.459 366.411,420.652 352.106,431.298 	"/>
	<path style="fill:#040000;" d="M126.895,94.162l238.819,326.386l-13.503,10.048L113.393,104.21L126.895,94.162 M127.107,92.758
		L112,104l240,328l15.107-11.242L127.107,92.758L127.107,92.758z"/>
</g>
<g>
	<polygon style="fill:#FFFFFF;" points="140.589,83.348 154.894,72.702 394.304,399.895 379.999,410.541 	"/>
	<path style="fill:#040000;" d="M154.788,73.404L393.607,399.79l-13.503,10.048L141.286,83.452L154.788,73.404 M155,72
		l-15.107,11.242l240,328L395,400L155,72L155,72z"/>
</g>
<polygon style="fill:#040000;" points="127.107,92.758 367.107,420.758 374.073,415.574 134.073,87.573 "/>
<g>
	<polygon style="fill:#FFFFFF;" points="134.77,87.678 139.787,83.945 379.197,411.138 374.179,414.872 	"/>
	<path style="fill:#040000;" d="M139.681,84.647L378.5,411.032l-4.215,3.137L135.466,87.783L139.681,84.647 M139.893,83.242
		l-5.82,4.331l240,328l5.82-4.331L139.893,83.242L139.893,83.242z"/>
</g>
</svg>
