<?xml version="1.0" encoding="iso-8859-1"?>
<!-- Generator: Adobe Illustrator 23.0.6, SVG Export Plug-In . SVG Version: 6.00 Build 0)  -->
<svg version="1.1" id="&#x30EC;&#x30A4;&#x30E4;&#x30FC;_1"
	 xmlns="http://www.w3.org/2000/svg" xmlns:xlink="http://www.w3.org/1999/xlink" x="0px" y="0px" viewBox="0 0 512 512"
	 style="enable-background:new 0 0 512 512;" xml:space="preserve">
<g>
	<g id="&#x8089;">
		<ellipse id="&#x304A;&#x76BF;_1_" style="fill:#FFFFFF;stroke:#50342F;" cx="250" cy="247.756" rx="203.489" ry="100.248"/>
		<path style="fill:#FFFFFF;stroke:#50342F;" d="M342.635,223.996c-16.779-17.369-51.941-29.327-92.608-29.327
			c-40.667,0-75.83,11.959-92.608,29.327H146.93v23.026c0,28.914,46.158,52.353,103.096,52.353s103.097-23.439,103.097-52.353
			v-23.026H342.635z"/>
		<g>
			<polygon style="fill:#040000;stroke:#FFFFFF;" points="266.052,236.028 282.078,248.037 298.104,236.028 282.078,224.019 			"/>
			<polygon style="fill:#040000;stroke:#FFFFFF;" points="201.949,212.01 185.924,224.019 201.949,236.028 217.975,224.019 			"/>
			<polygon style="fill:#040000;stroke:#FFFFFF;" points="234.001,212.01 217.975,224.019 234.001,236.028 250.026,224.019 			"/>
			<polygon style="fill:#040000;stroke:#FFFFFF;" points="266.052,212.01 250.026,224.019 266.052,236.028 282.078,224.019 			"/>
			<polygon style="fill:#040000;stroke:#FFFFFF;" points="169.898,236.028 185.924,248.037 201.949,236.028 185.924,224.019 			"/>
			<polygon style="fill:#040000;stroke:#FFFFFF;" points="201.949,236.028 217.975,248.037 234.001,236.028 217.975,224.019 			"/>
			<path style="fill:#040000;stroke:#FFFFFF;" d="M314.129,200l13.766-10.316c-5.863-3.428-12.591-6.465-20.009-9.024l-9.782,7.331
				L314.129,200z"/>
			<path style="fill:#040000;stroke:#FFFFFF;" d="M298.104,187.991l9.782-7.331c-7.344-2.534-15.368-4.596-23.901-6.107
				l-1.906,1.429L298.104,187.991z"/>
			<path style="fill:#040000;stroke:#FFFFFF;" d="M330.155,212.01l13.41-10.049c-4.09-4.47-9.381-8.598-15.67-12.276L314.129,200
				L330.155,212.01z"/>
			<polygon style="fill:#040000;stroke:#FFFFFF;" points="298.104,212.01 314.129,224.019 330.155,212.01 314.129,200 			"/>
			<polygon style="fill:#040000;stroke:#FFFFFF;" points="298.104,236.028 314.129,248.037 330.155,236.028 314.129,224.019 			"/>
			<polygon style="fill:#040000;stroke:#FFFFFF;" points="298.104,212.01 282.078,224.019 298.104,236.028 314.129,224.019 			"/>
			<polygon style="fill:#040000;stroke:#FFFFFF;" points="330.155,236.028 346.181,224.019 330.155,212.01 314.129,224.019 			"/>
			<polygon style="fill:#040000;stroke:#FFFFFF;" points="234.001,236.028 250.027,248.037 266.052,236.028 250.026,224.019 			"/>
			<path style="fill:#040000;stroke:#FFFFFF;" d="M283.984,174.553c-1.607-0.285-3.231-0.549-4.873-0.794l2.966,2.223
				L283.984,174.553z"/>
			<path style="fill:#040000;stroke:#FFFFFF;" d="M250.026,276.35c1.888,0,3.763-0.028,5.626-0.078l-5.626-4.216l-5.626,4.216
				C246.264,276.322,248.139,276.35,250.026,276.35z"/>
			<polygon style="fill:#040000;stroke:#FFFFFF;" points="298.104,187.991 282.078,175.982 266.052,187.991 282.078,200 			"/>
			<polygon style="fill:#040000;stroke:#FFFFFF;" points="298.104,212.01 314.129,200 298.104,187.991 282.078,200 			"/>
			<polygon style="fill:#040000;stroke:#FFFFFF;" points="266.052,212.01 282.078,224.019 298.104,212.01 282.078,200 			"/>
			<polygon style="fill:#040000;stroke:#FFFFFF;" points="201.949,212.01 217.975,224.019 234.001,212.01 217.975,200 			"/>
			<polygon style="fill:#CCCCCC;stroke:#FFFFFF;" points="234.001,212.01 250.026,224.019 266.052,212.01 250.026,200 			"/>
			<polygon style="fill:#040000;stroke:#FFFFFF;" points="266.052,187.991 250.027,175.982 234.001,187.991 250.026,200 			"/>
			<polygon style="fill:#040000;stroke:#FFFFFF;" points="234.001,187.991 217.975,175.982 201.949,187.991 217.975,200 			"/>
			<polygon style="fill:#040000;stroke:#FFFFFF;" points="217.975,200 201.949,187.991 185.924,200 201.949,212.01 			"/>
			<polygon style="fill:#040000;stroke:#FFFFFF;" points="266.052,212.01 282.078,200 266.052,187.991 250.026,200 			"/>
			<polygon style="fill:#040000;stroke:#FFFFFF;" points="201.949,212.01 185.924,200 169.898,212.01 185.924,224.019 			"/>
			<polygon style="fill:#040000;stroke:#FFFFFF;" points="169.898,212.01 153.872,224.019 169.898,236.028 185.924,224.019 			"/>
			<polygon style="fill:#040000;stroke:#FFFFFF;" points="234.001,212.01 250.026,200 234.001,187.991 217.975,200 			"/>
			<path style="fill:#040000;stroke:#FFFFFF;" d="M330.155,236.028l13.385,10.031c4.86-5.303,8.022-11.088,9.132-17.175
				l-6.492-4.865L330.155,236.028z"/>
			<path style="fill:#040000;stroke:#FFFFFF;" d="M330.155,212.01l16.026,12.009l6.498-4.87c-1.102-6.092-4.257-11.881-9.114-17.188
				L330.155,212.01z"/>
			<path style="fill:#040000;stroke:#FFFFFF;" d="M266.052,187.991l16.026-12.009l-2.966-2.223
				c-7.483-1.115-15.318-1.813-23.402-2.036l-5.683,4.259L266.052,187.991z"/>
			<path style="fill:#040000;stroke:#FFFFFF;" d="M352.672,228.883c0.293-1.609,0.451-3.239,0.451-4.887
				c0-1.635-0.155-3.251-0.444-4.847l-6.498,4.87L352.672,228.883z"/>
			<path style="fill:#040000;stroke:#FFFFFF;" d="M314.129,248.037l13.732,10.29c6.292-3.675,11.585-7.801,15.679-12.269
				l-13.385-10.031L314.129,248.037z"/>
			<polygon style="fill:#040000;stroke:#FFFFFF;" points="298.104,236.028 282.078,248.037 298.104,260.047 314.129,248.037 			"/>
			<polygon style="fill:#040000;stroke:#FFFFFF;" points="266.052,236.028 250.027,248.037 266.052,260.047 282.078,248.037 			"/>
			<polygon style="fill:#040000;stroke:#FFFFFF;" points="266.052,260.047 282.078,272.056 298.104,260.047 282.078,248.037 			"/>
			<path style="fill:#040000;stroke:#FFFFFF;" d="M298.104,260.047l9.742,7.3c7.42-2.557,14.15-5.592,20.016-9.019l-13.732-10.29
				L298.104,260.047z"/>
			<path style="fill:#040000;stroke:#FFFFFF;" d="M279.187,274.222c1.6-0.239,3.183-0.497,4.749-0.774l-1.858-1.392L279.187,274.222
				z"/>
			<path style="fill:#040000;stroke:#FFFFFF;" d="M298.104,260.047l-16.026,12.009l1.858,1.392
				c8.535-1.509,16.562-3.57,23.909-6.102L298.104,260.047z"/>
			<path style="fill:#040000;stroke:#FFFFFF;" d="M266.052,260.047l-16.026,12.009l5.626,4.216
				c8.132-0.222,16.011-0.924,23.535-2.049l2.891-2.167L266.052,260.047z"/>
			<path style="fill:#040000;stroke:#FFFFFF;" d="M250.027,272.056l-16.026-12.009l-16.026,12.009l2.891,2.167
				c7.524,1.125,15.403,1.827,23.535,2.049L250.027,272.056z"/>
			<path style="fill:#040000;stroke:#FFFFFF;" d="M201.949,260.047l-9.742,7.3c7.347,2.532,15.374,4.592,23.909,6.102l1.858-1.392
				L201.949,260.047z"/>
			<path style="fill:#040000;stroke:#FFFFFF;" d="M216.117,273.448c1.566,0.277,3.15,0.535,4.749,0.774l-2.891-2.167
				L216.117,273.448z"/>
			<polygon style="fill:#040000;stroke:#FFFFFF;" points="234.001,260.047 250.027,272.056 266.052,260.047 250.027,248.037 			"/>
			<path style="fill:#040000;stroke:#FFFFFF;" d="M201.949,187.991l-9.782-7.331c-7.418,2.559-14.146,5.596-20.009,9.024
				L185.924,200L201.949,187.991z"/>
			<path style="fill:#040000;stroke:#FFFFFF;" d="M169.898,212.01l-13.41-10.049c-4.857,5.307-8.013,11.097-9.114,17.188l6.498,4.87
				L169.898,212.01z"/>
			<path style="fill:#040000;stroke:#FFFFFF;" d="M217.975,175.982l-1.907-1.429c-8.533,1.511-16.557,3.574-23.901,6.107
				l9.782,7.331L217.975,175.982z"/>
			<path style="fill:#040000;stroke:#FFFFFF;" d="M185.924,200l-13.766-10.316c-6.289,3.678-11.58,7.806-15.67,12.276l13.41,10.049
				L185.924,200z"/>
			<path style="fill:#040000;stroke:#FFFFFF;" d="M220.941,173.759c-1.642,0.245-3.266,0.51-4.873,0.794l1.907,1.429
				L220.941,173.759z"/>
			<path style="fill:#040000;stroke:#FFFFFF;" d="M255.709,171.723c-1.882-0.052-3.776-0.08-5.683-0.08
				c-1.907,0-3.801,0.028-5.683,0.08l5.683,4.259L255.709,171.723z"/>
			<path style="fill:#040000;stroke:#FFFFFF;" d="M234.001,187.991l16.026-12.009l-5.683-4.259
				c-8.084,0.223-15.919,0.92-23.402,2.036l-2.966,2.223L234.001,187.991z"/>
			<path style="fill:#040000;stroke:#FFFFFF;" d="M147.374,219.149c-0.289,1.596-0.444,3.213-0.444,4.847
				c0,1.648,0.157,3.278,0.451,4.887l6.492-4.865L147.374,219.149z"/>
			<polygon style="fill:#040000;stroke:#FFFFFF;" points="201.949,236.028 185.924,248.037 201.949,260.047 217.975,248.037 			"/>
			<path style="fill:#040000;stroke:#FFFFFF;" d="M172.192,258.327c5.866,3.427,12.595,6.462,20.016,9.019l9.742-7.3l-16.026-12.009
				L172.192,258.327z"/>
			<polygon style="fill:#040000;stroke:#FFFFFF;" points="201.949,260.047 217.975,272.056 234.001,260.047 217.975,248.037 			"/>
			<polygon style="fill:#040000;stroke:#FFFFFF;" points="234.001,236.028 217.975,248.037 234.001,260.047 250.027,248.037 			"/>
			<path style="fill:#040000;stroke:#FFFFFF;" d="M169.898,236.028l-13.385,10.031c4.094,4.467,9.388,8.594,15.679,12.269
				l13.732-10.29L169.898,236.028z"/>
			<path style="fill:#040000;stroke:#FFFFFF;" d="M153.872,224.019l-6.492,4.865c1.11,6.088,4.272,11.872,9.132,17.175
				l13.385-10.031L153.872,224.019z"/>
		</g>
	</g>
	<path id="&#x30CA;&#x30A4;&#x30D5;" style="fill:#FFFFFF;stroke:#50342F;" d="M382.858,124.721c3.991-3.472,6.066,0.6,6.147,3.868
		c0.091,3.267,5.018,35.705,6.825,48.563c1.596,11.355,10.586,77.374,12.656,92.604c1.739-0.085,2.43,0.017,2.473,0.319
		c0.077,0.546,0.821,5.344,0.821,5.344l-0.947,0.202c0,0,1.191,0.047,1.862,2.983c0.413,1.803,10.773,68.65,12.842,78.063
		c2.069,9.413-1.566,18.881-8.525,19.859c-6.949,0.977-13.063-7.121-13.658-16.741c-0.606-9.618-9.082-76.73-9.182-78.577
		c-0.164-3.007,0.968-3.38,0.968-3.38l-0.966,0.066c0,0-0.607-4.817-0.684-5.363c-0.041-0.293,0.565-0.582,2.184-0.959
		c-1.417-8.315-5.262-15.841-9.018-16.298c-4.181-0.507-4.814-7.699-5.837-12.287C363.809,140.506,378.868,128.193,382.858,124.721z
		"/>
	<path id="&#x30D5;&#x30A9;&#x30FC;&#x30AF;" style="fill:#FFFFFF;stroke:#50342F;" d="M122.515,210.338
		c2.476-7.49,8.035-72.398,5.688-73.475c-2.347-1.076-8.905,52.173-10.114,54.192c-0.924,1.547-3.751,1.339-3.39-1.228
		c0.359-2.557,7.044-53.872,5.287-54.119c-1.747-0.246-8.184,51.652-9.598,53.14c-0.63,0.663-2.505,1.325-2.505,1.325
		s-1.62-1.154-2.043-1.964c-0.949-1.82,7.158-53.483,5.411-53.728c-1.747-0.246-9.476,50.923-9.835,53.48
		c-0.361,2.567-3.126,1.989-3.597,0.246c-0.606-2.275,7.767-55.268,5.225-54.879c-2.553,0.388-15.1,64.314-14.784,72.196
		c0.316,7.877,7.432,15.599,9.11,21.429c1.187,4.163-3.312,23.072-5.994,33.587c-1.631-0.08-2.293,0.031-2.334,0.324
		c-0.077,0.546-0.821,5.344-0.821,5.344l0.947,0.202c0,0-1.2,0.045-1.872,2.981c-0.403,1.805-10.763,68.651-12.833,78.064
		c-2.069,9.413,1.567,18.881,8.525,19.859c6.949,0.977,13.053-7.122,13.658-16.741c0.605-9.618,9.072-76.731,9.182-78.577
		c0.164-3.007-0.968-3.38-0.968-3.38l0.966,0.066c0,0,0.617-4.815,0.694-5.361c0.041-0.293-0.575-0.584-2.165-0.956
		c0.31-10.849,1.198-30.265,3.496-33.938C111.071,223.284,120.04,217.822,122.515,210.338z"/>
</g>
</svg>
