<?xml version="1.0" encoding="iso-8859-1"?>
<!-- Generator: Adobe Illustrator 23.0.6, SVG Export Plug-In . SVG Version: 6.00 Build 0)  -->
<svg version="1.1" id="&#x30EC;&#x30A4;&#x30E4;&#x30FC;_1"
	 xmlns="http://www.w3.org/2000/svg" xmlns:xlink="http://www.w3.org/1999/xlink" x="0px" y="0px" viewBox="0 0 512 512"
	 style="enable-background:new 0 0 512 512;" xml:space="preserve">
<g>
	<g id="&#x8089;">
		<ellipse id="&#x304A;&#x76BF;_1_" style="fill:#FFFFFF;stroke:#50342F;" cx="250" cy="247.756" rx="203.489" ry="100.248"/>
		<path style="fill:#FFFFFF;stroke:#50342F;" d="M344.35,224.505c-16.926-17.537-52.396-29.612-93.42-29.612
			s-76.494,12.075-93.42,29.612h-10.58v23.25c0,29.195,46.562,52.862,104,52.862s104-23.667,104-52.862v-23.25H344.35z"/>
		<g>
			<polygon style="fill:#040000;stroke:#FFFFFF;" points="267.096,236.653 283.262,248.779 299.428,236.653 283.262,224.527 			"/>
			<polygon style="fill:#040000;stroke:#FFFFFF;" points="202.432,212.402 186.265,224.527 202.432,236.653 218.598,224.527 			"/>
			<polygon style="fill:#040000;stroke:#FFFFFF;" points="234.764,212.402 218.598,224.527 234.764,236.653 250.93,224.527 			"/>
			<polygon style="fill:#040000;stroke:#FFFFFF;" points="267.096,212.402 250.93,224.527 267.096,236.653 283.262,224.527 			"/>
			<polygon style="fill:#040000;stroke:#FFFFFF;" points="170.099,236.653 186.265,248.779 202.432,236.653 186.265,224.527 			"/>
			<polygon style="fill:#040000;stroke:#FFFFFF;" points="202.432,236.653 218.598,248.779 234.764,236.653 218.598,224.527 			"/>
			<path style="fill:#040000;stroke:#FFFFFF;" d="M315.595,200.276l13.886-10.416c-5.915-3.462-12.701-6.528-20.184-9.112
				l-9.868,7.402L315.595,200.276z"/>
			<path style="fill:#040000;stroke:#FFFFFF;" d="M299.428,188.15l9.868-7.402c-7.409-2.558-15.503-4.641-24.111-6.167l-1.923,1.443
				L299.428,188.15z"/>
			<path style="fill:#040000;stroke:#FFFFFF;" d="M331.761,212.402l13.527-10.147c-4.126-4.513-9.463-8.682-15.807-12.395
				l-13.886,10.416L331.761,212.402z"/>
			<polygon style="fill:#040000;stroke:#FFFFFF;" points="299.428,212.402 315.595,224.527 331.761,212.402 315.595,200.276 			"/>
			<polygon style="fill:#040000;stroke:#FFFFFF;" points="299.428,236.653 315.595,248.779 331.761,236.653 315.595,224.527 			"/>
			<polygon style="fill:#040000;stroke:#FFFFFF;" points="299.428,212.402 283.262,224.527 299.428,236.653 315.595,224.527 			"/>
			<polygon style="fill:#040000;stroke:#FFFFFF;" points="331.761,236.653 347.927,224.527 331.761,212.402 315.595,224.527 			"/>
			<polygon style="fill:#040000;stroke:#FFFFFF;" points="234.764,236.653 250.93,248.779 267.096,236.653 250.93,224.527 			"/>
			<path style="fill:#040000;stroke:#FFFFFF;" d="M285.185,174.582c-1.621-0.287-3.259-0.555-4.915-0.802l2.992,2.244
				L285.185,174.582z"/>
			<path style="fill:#040000;stroke:#FFFFFF;" d="M250.93,277.366c1.904,0,3.796-0.028,5.675-0.079l-5.675-4.257l-5.675,4.257
				C247.134,277.339,249.026,277.366,250.93,277.366z"/>
			<polygon style="fill:#040000;stroke:#FFFFFF;" points="299.428,188.15 283.262,176.024 267.096,188.15 283.262,200.276 			"/>
			<polygon style="fill:#040000;stroke:#FFFFFF;" points="299.428,212.402 315.595,200.276 299.428,188.15 283.262,200.276 			"/>
			<polygon style="fill:#040000;stroke:#FFFFFF;" points="267.096,212.402 283.262,224.527 299.428,212.402 283.262,200.276 			"/>
			<polygon style="fill:#040000;stroke:#FFFFFF;" points="202.432,212.402 218.598,224.527 234.764,212.402 218.598,200.276 			"/>
			<polygon style="fill:#CCCCCC;stroke:#FFFFFF;" points="234.764,212.402 250.93,224.527 267.096,212.402 250.93,200.276 			"/>
			<polygon style="fill:#040000;stroke:#FFFFFF;" points="267.096,188.15 250.93,176.024 234.764,188.15 250.93,200.276 			"/>
			<polygon style="fill:#040000;stroke:#FFFFFF;" points="234.764,188.15 218.598,176.024 202.432,188.15 218.598,200.276 			"/>
			<polygon style="fill:#040000;stroke:#FFFFFF;" points="218.598,200.276 202.432,188.15 186.265,200.276 202.432,212.402 			"/>
			<polygon style="fill:#040000;stroke:#FFFFFF;" points="267.096,212.402 283.262,200.276 267.096,188.15 250.93,200.276 			"/>
			<polygon style="fill:#040000;stroke:#FFFFFF;" points="202.432,212.402 186.265,200.276 170.099,212.402 186.265,224.527 			"/>
			<polygon style="fill:#040000;stroke:#FFFFFF;" points="170.099,212.402 153.933,224.527 170.099,236.653 186.265,224.527 			"/>
			<polygon style="fill:#040000;stroke:#FFFFFF;" points="234.764,212.402 250.93,200.276 234.764,188.15 218.598,200.276 			"/>
			<path style="fill:#040000;stroke:#FFFFFF;" d="M331.761,236.653l13.503,10.128c4.903-5.355,8.092-11.195,9.212-17.342
				l-6.548-4.912L331.761,236.653z"/>
			<path style="fill:#040000;stroke:#FFFFFF;" d="M331.761,212.402l16.166,12.126l6.555-4.917
				c-1.111-6.151-4.295-11.996-9.194-17.355L331.761,212.402z"/>
			<path style="fill:#040000;stroke:#FFFFFF;" d="M267.096,188.15l16.166-12.126l-2.992-2.244
				c-7.549-1.126-15.452-1.83-23.607-2.056l-5.733,4.3L267.096,188.15z"/>
			<path style="fill:#040000;stroke:#FFFFFF;" d="M354.475,229.439c0.296-1.625,0.455-3.27,0.455-4.934
				c0-1.651-0.157-3.282-0.448-4.894l-6.555,4.917L354.475,229.439z"/>
			<path style="fill:#040000;stroke:#FFFFFF;" d="M315.595,248.779l13.852,10.39c6.347-3.711,11.687-7.877,15.817-12.388
				l-13.503-10.128L315.595,248.779z"/>
			<polygon style="fill:#040000;stroke:#FFFFFF;" points="299.428,236.653 283.262,248.779 299.428,260.905 315.595,248.779 			"/>
			<polygon style="fill:#040000;stroke:#FFFFFF;" points="267.096,236.653 250.93,248.779 267.096,260.905 283.262,248.779 			"/>
			<polygon style="fill:#040000;stroke:#FFFFFF;" points="267.096,260.905 283.262,273.031 299.428,260.905 283.262,248.779 			"/>
			<path style="fill:#040000;stroke:#FFFFFF;" d="M299.428,260.905l9.827,7.371c7.485-2.582,14.274-5.647,20.191-9.107
				l-13.852-10.39L299.428,260.905z"/>
			<path style="fill:#040000;stroke:#FFFFFF;" d="M280.346,275.218c1.614-0.241,3.211-0.502,4.791-0.782l-1.874-1.406
				L280.346,275.218z"/>
			<path style="fill:#040000;stroke:#FFFFFF;" d="M299.428,260.905l-16.166,12.126l1.874,1.406
				c8.61-1.524,16.707-3.604,24.119-6.161L299.428,260.905z"/>
			<path style="fill:#040000;stroke:#FFFFFF;" d="M267.096,260.905l-16.166,12.126l5.675,4.257
				c8.203-0.224,16.151-0.933,23.741-2.069l2.917-2.188L267.096,260.905z"/>
			<path style="fill:#040000;stroke:#FFFFFF;" d="M250.93,273.031l-16.166-12.126l-16.166,12.126l2.917,2.188
				c7.59,1.136,15.538,1.845,23.741,2.069L250.93,273.031z"/>
			<path style="fill:#040000;stroke:#FFFFFF;" d="M202.432,260.905l-9.827,7.371c7.412,2.556,15.508,4.637,24.119,6.161l1.874-1.406
				L202.432,260.905z"/>
			<path style="fill:#040000;stroke:#FFFFFF;" d="M216.723,274.437c1.58,0.28,3.177,0.54,4.791,0.782l-2.917-2.188L216.723,274.437z
				"/>
			<polygon style="fill:#040000;stroke:#FFFFFF;" points="234.764,260.905 250.93,273.031 267.096,260.905 250.93,248.779 			"/>
			<path style="fill:#040000;stroke:#FFFFFF;" d="M202.432,188.15l-9.868-7.402c-7.483,2.584-14.27,5.65-20.184,9.112l13.886,10.416
				L202.432,188.15z"/>
			<path style="fill:#040000;stroke:#FFFFFF;" d="M170.099,212.402l-13.527-10.147c-4.899,5.359-8.083,11.204-9.194,17.355
				l6.555,4.917L170.099,212.402z"/>
			<path style="fill:#040000;stroke:#FFFFFF;" d="M218.598,176.024l-1.923-1.443c-8.608,1.526-16.702,3.608-24.111,6.167
				l9.868,7.402L218.598,176.024z"/>
			<path style="fill:#040000;stroke:#FFFFFF;" d="M186.265,200.276l-13.886-10.416c-6.344,3.713-11.681,7.882-15.807,12.395
				l13.527,10.147L186.265,200.276z"/>
			<path style="fill:#040000;stroke:#FFFFFF;" d="M221.59,173.78c-1.656,0.247-3.295,0.515-4.915,0.802l1.923,1.443L221.59,173.78z"
				/>
			<path style="fill:#040000;stroke:#FFFFFF;" d="M256.663,171.724c-1.898-0.052-3.809-0.081-5.733-0.081s-3.835,0.029-5.733,0.081
				l5.733,4.3L256.663,171.724z"/>
			<path style="fill:#040000;stroke:#FFFFFF;" d="M234.764,188.15l16.166-12.126l-5.733-4.3c-8.155,0.225-16.058,0.929-23.607,2.056
				l-2.992,2.244L234.764,188.15z"/>
			<path style="fill:#040000;stroke:#FFFFFF;" d="M147.378,219.61c-0.291,1.612-0.448,3.244-0.448,4.894
				c0,1.664,0.159,3.309,0.455,4.934l6.548-4.912L147.378,219.61z"/>
			<polygon style="fill:#040000;stroke:#FFFFFF;" points="202.432,236.653 186.265,248.779 202.432,260.905 218.598,248.779 			"/>
			<path style="fill:#040000;stroke:#FFFFFF;" d="M172.413,259.169c5.918,3.46,12.706,6.525,20.191,9.107l9.827-7.371
				l-16.166-12.126L172.413,259.169z"/>
			<polygon style="fill:#040000;stroke:#FFFFFF;" points="202.432,260.905 218.598,273.031 234.764,260.905 218.598,248.779 			"/>
			<polygon style="fill:#040000;stroke:#FFFFFF;" points="234.764,236.653 218.598,248.779 234.764,260.905 250.93,248.779 			"/>
			<path style="fill:#040000;stroke:#FFFFFF;" d="M170.099,236.653l-13.503,10.128c4.13,4.511,9.47,8.677,15.817,12.388
				l13.852-10.39L170.099,236.653z"/>
			<path style="fill:#040000;stroke:#FFFFFF;" d="M153.933,224.527l-6.548,4.912c1.12,6.147,4.309,11.987,9.212,17.342
				l13.503-10.128L153.933,224.527z"/>
		</g>
	</g>
	<path id="&#x30CA;&#x30A4;&#x30D5;" style="fill:#FFFFFF;stroke:#50342F;" d="M382.858,124.721c3.991-3.472,6.066,0.6,6.147,3.868
		c0.091,3.267,5.018,35.705,6.825,48.563c1.596,11.355,10.586,77.374,12.656,92.604c1.739-0.085,2.43,0.017,2.473,0.319
		c0.077,0.546,0.821,5.344,0.821,5.344l-0.947,0.202c0,0,1.191,0.047,1.862,2.983c0.413,1.803,10.773,68.65,12.842,78.063
		c2.069,9.413-1.566,18.881-8.525,19.859c-6.949,0.977-13.063-7.121-13.658-16.741c-0.606-9.618-9.082-76.73-9.182-78.577
		c-0.164-3.007,0.968-3.38,0.968-3.38l-0.966,0.066c0,0-0.607-4.817-0.684-5.363c-0.041-0.293,0.565-0.582,2.184-0.959
		c-1.417-8.315-5.262-15.841-9.018-16.298c-4.181-0.507-4.814-7.699-5.837-12.287C363.809,140.506,378.868,128.193,382.858,124.721z
		"/>
	<path id="&#x30D5;&#x30A9;&#x30FC;&#x30AF;" style="fill:#FFFFFF;stroke:#50342F;" d="M122.515,210.338
		c2.476-7.49,8.035-72.398,5.688-73.475c-2.347-1.076-8.905,52.173-10.114,54.192c-0.924,1.547-3.751,1.339-3.39-1.228
		c0.359-2.557,7.044-53.872,5.287-54.119c-1.747-0.246-8.184,51.652-9.598,53.14c-0.63,0.663-2.505,1.325-2.505,1.325
		s-1.62-1.154-2.043-1.964c-0.949-1.82,7.158-53.483,5.411-53.728c-1.747-0.246-9.476,50.923-9.835,53.48
		c-0.361,2.567-3.126,1.989-3.597,0.246c-0.606-2.275,7.767-55.268,5.225-54.879c-2.553,0.388-15.1,64.314-14.784,72.196
		c0.316,7.877,7.432,15.599,9.11,21.429c1.187,4.163-3.312,23.072-5.994,33.587c-1.631-0.08-2.293,0.031-2.334,0.324
		c-0.077,0.546-0.821,5.344-0.821,5.344l0.947,0.202c0,0-1.2,0.045-1.872,2.981c-0.403,1.805-10.763,68.651-12.833,78.064
		c-2.069,9.413,1.567,18.881,8.525,19.859c6.949,0.977,13.053-7.122,13.658-16.741c0.605-9.618,9.072-76.731,9.182-78.577
		c0.164-3.007-0.968-3.38-0.968-3.38l0.966,0.066c0,0,0.617-4.815,0.694-5.361c0.041-0.293-0.575-0.584-2.165-0.956
		c0.31-10.849,1.198-30.265,3.496-33.938C111.071,223.284,120.04,217.822,122.515,210.338z"/>
</g>
</svg>
