<?xml version="1.0" encoding="iso-8859-1"?>
<!-- Generator: Adobe Illustrator 23.0.6, SVG Export Plug-In . SVG Version: 6.00 Build 0)  -->
<svg version="1.1" id="&#x30EC;&#x30A4;&#x30E4;&#x30FC;_1"
	 xmlns="http://www.w3.org/2000/svg" xmlns:xlink="http://www.w3.org/1999/xlink" x="0px" y="0px" viewBox="0 0 512 512"
	 style="enable-background:new 0 0 512 512;" xml:space="preserve">
<g>
	<g id="&#x8089;">
		<ellipse id="&#x304A;&#x76BF;_1_" style="fill:#FFFFFF;stroke:#50342F;" cx="250" cy="247.756" rx="203.489" ry="100.248"/>
		<path style="fill:#FFFFFF;stroke:#50342F;" d="M348.146,225.521c-17.251-17.875-53.404-30.181-95.216-30.181
			c-41.813,0-77.965,12.307-95.216,30.181H146.93v23.697c0,29.756,47.458,53.878,106,53.878c58.542,0,106-24.122,106-53.878v-23.697
			H348.146z"/>
		<g>
			<polygon style="fill:#040000;stroke:#FFFFFF;" points="269.407,237.903 285.884,250.262 302.361,237.903 285.884,225.544 			"/>
			<polygon style="fill:#040000;stroke:#FFFFFF;" points="203.499,213.185 187.022,225.544 203.499,237.903 219.976,225.544 			"/>
			<polygon style="fill:#040000;stroke:#FFFFFF;" points="236.453,213.185 219.976,225.544 236.453,237.903 252.93,225.544 			"/>
			<polygon style="fill:#040000;stroke:#FFFFFF;" points="269.407,213.185 252.93,225.544 269.407,237.903 285.884,225.544 			"/>
			<polygon style="fill:#040000;stroke:#FFFFFF;" points="170.545,237.903 187.022,250.262 203.499,237.903 187.022,225.544 			"/>
			<polygon style="fill:#040000;stroke:#FFFFFF;" points="203.499,237.903 219.976,250.262 236.453,237.903 219.976,225.544 			"/>
			<path style="fill:#040000;stroke:#FFFFFF;" d="M318.838,200.826l14.153-10.616c-6.028-3.528-12.945-6.653-20.573-9.287
				l-10.058,7.544L318.838,200.826z"/>
			<path style="fill:#040000;stroke:#FFFFFF;" d="M302.361,188.467l10.058-7.544c-7.551-2.607-15.801-4.73-24.575-6.285l-1.96,1.47
				L302.361,188.467z"/>
			<path style="fill:#040000;stroke:#FFFFFF;" d="M335.315,213.185l13.788-10.342c-4.205-4.6-9.645-8.849-16.111-12.633
				l-14.153,10.616L335.315,213.185z"/>
			<polygon style="fill:#040000;stroke:#FFFFFF;" points="302.361,213.185 318.838,225.544 335.315,213.185 318.838,200.826 			"/>
			<polygon style="fill:#040000;stroke:#FFFFFF;" points="302.361,237.903 318.838,250.262 335.315,237.903 318.838,225.544 			"/>
			<polygon style="fill:#040000;stroke:#FFFFFF;" points="302.361,213.185 285.884,225.544 302.361,237.903 318.838,225.544 			"/>
			<polygon style="fill:#040000;stroke:#FFFFFF;" points="335.315,237.903 351.792,225.544 335.315,213.185 318.838,225.544 			"/>
			<polygon style="fill:#040000;stroke:#FFFFFF;" points="236.453,237.903 252.93,250.262 269.407,237.903 252.93,225.544 			"/>
			<path style="fill:#040000;stroke:#FFFFFF;" d="M287.844,174.638c-1.652-0.293-3.322-0.565-5.01-0.817l3.05,2.288L287.844,174.638
				z"/>
			<path style="fill:#040000;stroke:#FFFFFF;" d="M252.93,279.4c1.941,0,3.869-0.028,5.784-0.081l-5.784-4.338l-5.784,4.338
				C249.061,279.371,250.989,279.4,252.93,279.4z"/>
			<polygon style="fill:#040000;stroke:#FFFFFF;" points="302.361,188.467 285.884,176.108 269.407,188.467 285.884,200.826 			"/>
			<polygon style="fill:#040000;stroke:#FFFFFF;" points="302.361,213.185 318.838,200.826 302.361,188.467 285.884,200.826 			"/>
			<polygon style="fill:#040000;stroke:#FFFFFF;" points="269.407,213.185 285.884,225.544 302.361,213.185 285.884,200.826 			"/>
			<polygon style="fill:#040000;stroke:#FFFFFF;" points="203.499,213.185 219.976,225.544 236.453,213.185 219.976,200.826 			"/>
			<polygon style="fill:#CCCCCC;stroke:#FFFFFF;" points="236.453,213.185 252.93,225.544 269.407,213.185 252.93,200.826 			"/>
			<polygon style="fill:#040000;stroke:#FFFFFF;" points="269.407,188.467 252.93,176.108 236.453,188.467 252.93,200.826 			"/>
			<polygon style="fill:#040000;stroke:#FFFFFF;" points="236.453,188.467 219.976,176.108 203.499,188.467 219.976,200.826 			"/>
			<polygon style="fill:#040000;stroke:#FFFFFF;" points="219.976,200.826 203.499,188.467 187.022,200.826 203.499,213.185 			"/>
			<polygon style="fill:#040000;stroke:#FFFFFF;" points="269.407,213.185 285.884,200.826 269.407,188.467 252.93,200.826 			"/>
			<polygon style="fill:#040000;stroke:#FFFFFF;" points="203.499,213.185 187.022,200.826 170.545,213.185 187.022,225.544 			"/>
			<polygon style="fill:#040000;stroke:#FFFFFF;" points="170.545,213.185 154.068,225.544 170.545,237.903 187.022,225.544 			"/>
			<polygon style="fill:#040000;stroke:#FFFFFF;" points="236.453,213.185 252.93,200.826 236.453,188.467 219.976,200.826 			"/>
			<path style="fill:#040000;stroke:#FFFFFF;" d="M335.315,237.903l13.762,10.323c4.997-5.458,8.248-11.411,9.389-17.676
				l-6.674-5.006L335.315,237.903z"/>
			<path style="fill:#040000;stroke:#FFFFFF;" d="M335.315,213.185l16.477,12.359l6.681-5.012
				c-1.133-6.269-4.377-12.227-9.371-17.689L335.315,213.185z"/>
			<path style="fill:#040000;stroke:#FFFFFF;" d="M269.407,188.467l16.477-12.359l-3.05-2.288
				c-7.694-1.148-15.749-1.866-24.061-2.095l-5.843,4.383L269.407,188.467z"/>
			<path style="fill:#040000;stroke:#FFFFFF;" d="M358.466,230.551c0.302-1.656,0.464-3.333,0.464-5.029
				c0-1.682-0.16-3.346-0.456-4.989l-6.681,5.012L358.466,230.551z"/>
			<path style="fill:#040000;stroke:#FFFFFF;" d="M318.838,250.262l14.118,10.59c6.469-3.782,11.912-8.029,16.121-12.626
				l-13.762-10.323L318.838,250.262z"/>
			<polygon style="fill:#040000;stroke:#FFFFFF;" points="302.361,237.903 285.884,250.262 302.361,262.621 318.838,250.262 			"/>
			<polygon style="fill:#040000;stroke:#FFFFFF;" points="269.407,237.903 252.93,250.262 269.407,262.621 285.884,250.262 			"/>
			<polygon style="fill:#040000;stroke:#FFFFFF;" points="269.407,262.621 285.884,274.98 302.361,262.621 285.884,250.262 			"/>
			<path style="fill:#040000;stroke:#FFFFFF;" d="M302.361,262.621l10.016,7.513c7.629-2.632,14.548-5.755,20.58-9.282
				l-14.118-10.59L302.361,262.621z"/>
			<path style="fill:#040000;stroke:#FFFFFF;" d="M282.911,277.21c1.645-0.246,3.273-0.512,4.883-0.797l-1.91-1.433L282.911,277.21z
				"/>
			<path style="fill:#040000;stroke:#FFFFFF;" d="M302.361,262.621l-16.477,12.359l1.91,1.433
				c8.776-1.553,17.028-3.674,24.582-6.279L302.361,262.621z"/>
			<path style="fill:#040000;stroke:#FFFFFF;" d="M269.407,262.621L252.93,274.98l5.784,4.338
				c8.361-0.229,16.462-0.951,24.197-2.109l2.973-2.23L269.407,262.621z"/>
			<path style="fill:#040000;stroke:#FFFFFF;" d="M252.93,274.98l-16.477-12.359l-16.477,12.359l2.973,2.23
				c7.736,1.157,15.837,1.88,24.197,2.109L252.93,274.98z"/>
			<path style="fill:#040000;stroke:#FFFFFF;" d="M203.499,262.621l-10.016,7.513c7.554,2.606,15.807,4.726,24.582,6.279
				l1.911-1.433L203.499,262.621z"/>
			<path style="fill:#040000;stroke:#FFFFFF;" d="M218.065,276.413c1.61,0.285,3.238,0.551,4.883,0.797l-2.973-2.23L218.065,276.413
				z"/>
			<polygon style="fill:#040000;stroke:#FFFFFF;" points="236.453,262.621 252.93,274.98 269.407,262.621 252.93,250.262 			"/>
			<path style="fill:#040000;stroke:#FFFFFF;" d="M203.499,188.467l-10.058-7.544c-7.627,2.634-14.544,5.759-20.573,9.287
				l14.153,10.616L203.499,188.467z"/>
			<path style="fill:#040000;stroke:#FFFFFF;" d="M170.545,213.185l-13.788-10.342c-4.994,5.462-8.238,11.42-9.371,17.689
				l6.681,5.012L170.545,213.185z"/>
			<path style="fill:#040000;stroke:#FFFFFF;" d="M219.976,176.108l-1.96-1.47c-8.774,1.555-17.023,3.678-24.575,6.285l10.058,7.544
				L219.976,176.108z"/>
			<path style="fill:#040000;stroke:#FFFFFF;" d="M187.022,200.826l-14.153-10.616c-6.466,3.785-11.906,8.034-16.111,12.633
				l13.788,10.342L187.022,200.826z"/>
			<path style="fill:#040000;stroke:#FFFFFF;" d="M223.026,173.821c-1.688,0.252-3.358,0.524-5.01,0.817l1.96,1.47L223.026,173.821z
				"/>
			<path style="fill:#040000;stroke:#FFFFFF;" d="M258.773,171.726c-1.935-0.053-3.882-0.083-5.843-0.083s-3.908,0.029-5.843,0.083
				l5.843,4.383L258.773,171.726z"/>
			<path style="fill:#040000;stroke:#FFFFFF;" d="M236.453,188.467l16.477-12.359l-5.843-4.383
				c-8.312,0.23-16.367,0.947-24.061,2.095l-3.05,2.288L236.453,188.467z"/>
			<path style="fill:#040000;stroke:#FFFFFF;" d="M147.386,220.533c-0.297,1.643-0.456,3.306-0.456,4.989
				c0,1.696,0.162,3.373,0.464,5.029l6.674-5.006L147.386,220.533z"/>
			<polygon style="fill:#040000;stroke:#FFFFFF;" points="203.499,237.903 187.022,250.262 203.499,262.621 219.976,250.262 			"/>
			<path style="fill:#040000;stroke:#FFFFFF;" d="M172.903,260.852c6.031,3.527,12.95,6.65,20.58,9.282l10.016-7.513l-16.477-12.359
				L172.903,260.852z"/>
			<polygon style="fill:#040000;stroke:#FFFFFF;" points="203.499,262.621 219.976,274.98 236.453,262.621 219.976,250.262 			"/>
			<polygon style="fill:#040000;stroke:#FFFFFF;" points="236.453,237.903 219.976,250.262 236.453,262.621 252.93,250.262 			"/>
			<path style="fill:#040000;stroke:#FFFFFF;" d="M170.545,237.903l-13.762,10.323c4.209,4.597,9.652,8.844,16.121,12.626
				l14.118-10.59L170.545,237.903z"/>
			<path style="fill:#040000;stroke:#FFFFFF;" d="M154.068,225.544l-6.674,5.006c1.141,6.265,4.392,12.218,9.389,17.676
				l13.762-10.323L154.068,225.544z"/>
		</g>
	</g>
	<path id="&#x30CA;&#x30A4;&#x30D5;" style="fill:#FFFFFF;stroke:#50342F;" d="M382.858,124.721c3.991-3.472,6.066,0.6,6.147,3.868
		c0.091,3.267,5.018,35.705,6.825,48.563c1.596,11.355,10.586,77.374,12.656,92.604c1.739-0.085,2.43,0.017,2.473,0.319
		c0.077,0.546,0.821,5.344,0.821,5.344l-0.947,0.202c0,0,1.191,0.047,1.862,2.983c0.413,1.803,10.773,68.65,12.842,78.063
		c2.069,9.413-1.566,18.881-8.525,19.859c-6.949,0.977-13.063-7.121-13.658-16.741c-0.606-9.618-9.082-76.73-9.182-78.577
		c-0.164-3.007,0.968-3.38,0.968-3.38l-0.966,0.066c0,0-0.607-4.817-0.684-5.363c-0.041-0.293,0.565-0.582,2.184-0.959
		c-1.417-8.315-5.262-15.841-9.018-16.298c-4.181-0.507-4.814-7.699-5.837-12.287C363.809,140.506,378.868,128.193,382.858,124.721z
		"/>
	<path id="&#x30D5;&#x30A9;&#x30FC;&#x30AF;" style="fill:#FFFFFF;stroke:#50342F;" d="M122.515,210.338
		c2.476-7.49,8.035-72.398,5.688-73.475c-2.347-1.076-8.905,52.173-10.114,54.192c-0.924,1.547-3.751,1.339-3.39-1.228
		c0.359-2.557,7.044-53.872,5.287-54.119c-1.747-0.246-8.184,51.652-9.598,53.14c-0.63,0.663-2.505,1.325-2.505,1.325
		s-1.62-1.154-2.043-1.964c-0.949-1.82,7.158-53.483,5.411-53.728c-1.747-0.246-9.476,50.923-9.835,53.48
		c-0.361,2.567-3.126,1.989-3.597,0.246c-0.606-2.275,7.767-55.268,5.225-54.879c-2.553,0.388-15.1,64.314-14.784,72.196
		c0.316,7.877,7.432,15.599,9.11,21.429c1.187,4.163-3.312,23.072-5.994,33.587c-1.631-0.08-2.293,0.031-2.334,0.324
		c-0.077,0.546-0.821,5.344-0.821,5.344l0.947,0.202c0,0-1.2,0.045-1.872,2.981c-0.403,1.805-10.763,68.651-12.833,78.064
		c-2.069,9.413,1.567,18.881,8.525,19.859c6.949,0.977,13.053-7.122,13.658-16.741c0.605-9.618,9.072-76.731,9.182-78.577
		c0.164-3.007-0.968-3.38-0.968-3.38l0.966,0.066c0,0,0.617-4.815,0.694-5.361c0.041-0.293-0.575-0.584-2.165-0.956
		c0.31-10.849,1.198-30.265,3.496-33.938C111.071,223.284,120.04,217.822,122.515,210.338z"/>
</g>
</svg>
