<?xml version="1.0" encoding="iso-8859-1"?>
<!-- Generator: Adobe Illustrator 23.0.6, SVG Export Plug-In . SVG Version: 6.00 Build 0)  -->
<svg version="1.1" id="&#x30EC;&#x30A4;&#x30E4;&#x30FC;_1"
	 xmlns="http://www.w3.org/2000/svg" xmlns:xlink="http://www.w3.org/1999/xlink" x="0px" y="0px" viewBox="0 0 512 512"
	 style="enable-background:new 0 0 512 512;" xml:space="preserve">
<g>
	<g id="&#x8089;">
		<ellipse id="&#x304A;&#x76BF;_1_" style="fill:#FFFFFF;stroke:#50342F;" cx="250" cy="247.756" rx="203.489" ry="100.248"/>
		<path style="fill:#FFFFFF;stroke:#50342F;" d="M342.926,224.201c-16.804-17.437-52.018-29.442-92.746-29.442
			c-40.728,0-75.942,12.005-92.746,29.442H146.93v23.116c0,29.027,46.227,52.558,103.25,52.558s103.25-23.531,103.25-52.558v-23.116
			H342.926z"/>
		<g>
			<polygon style="fill:#040000;stroke:#FFFFFF;" points="266.23,236.28 282.279,248.336 298.329,236.28 282.279,224.224 			"/>
			<polygon style="fill:#040000;stroke:#FFFFFF;" points="202.031,212.168 185.982,224.224 202.031,236.28 218.081,224.224 			"/>
			<polygon style="fill:#040000;stroke:#FFFFFF;" points="234.13,212.168 218.081,224.224 234.13,236.28 250.18,224.224 			"/>
			<polygon style="fill:#040000;stroke:#FFFFFF;" points="266.23,212.168 250.18,224.224 266.23,236.28 282.279,224.224 			"/>
			<polygon style="fill:#040000;stroke:#FFFFFF;" points="169.932,236.28 185.982,248.336 202.031,236.28 185.982,224.224 			"/>
			<polygon style="fill:#040000;stroke:#FFFFFF;" points="202.031,236.28 218.081,248.336 234.13,236.28 218.081,224.224 			"/>
			<path style="fill:#040000;stroke:#FFFFFF;" d="M314.378,200.111l13.786-10.356c-5.872-3.442-12.609-6.49-20.039-9.06
				l-9.797,7.359L314.378,200.111z"/>
			<path style="fill:#040000;stroke:#FFFFFF;" d="M298.329,188.055l9.797-7.359c-7.355-2.543-15.391-4.614-23.937-6.131
				l-1.909,1.434L298.329,188.055z"/>
			<path style="fill:#040000;stroke:#FFFFFF;" d="M330.428,212.168l13.43-10.088c-4.096-4.487-9.395-8.632-15.693-12.324
				l-13.786,10.356L330.428,212.168z"/>
			<polygon style="fill:#040000;stroke:#FFFFFF;" points="298.329,212.168 314.378,224.224 330.428,212.168 314.378,200.111 			"/>
			<polygon style="fill:#040000;stroke:#FFFFFF;" points="298.329,236.28 314.378,248.336 330.428,236.28 314.378,224.224 			"/>
			<polygon style="fill:#040000;stroke:#FFFFFF;" points="298.329,212.168 282.279,224.224 298.329,236.28 314.378,224.224 			"/>
			<polygon style="fill:#040000;stroke:#FFFFFF;" points="330.428,236.28 346.477,224.224 330.428,212.168 314.378,224.224 			"/>
			<polygon style="fill:#040000;stroke:#FFFFFF;" points="234.13,236.28 250.18,248.336 266.23,236.28 250.18,224.224 			"/>
			<path style="fill:#040000;stroke:#FFFFFF;" d="M284.188,174.565c-1.609-0.286-3.236-0.552-4.88-0.797l2.971,2.232
				L284.188,174.565z"/>
			<path style="fill:#040000;stroke:#FFFFFF;" d="M250.18,276.76c1.891,0,3.768-0.028,5.634-0.079l-5.634-4.232l-5.634,4.232
				C246.412,276.732,248.289,276.76,250.18,276.76z"/>
			<polygon style="fill:#040000;stroke:#FFFFFF;" points="298.329,188.055 282.279,175.999 266.23,188.055 282.279,200.111 			"/>
			<polygon style="fill:#040000;stroke:#FFFFFF;" points="298.329,212.168 314.378,200.111 298.329,188.055 282.279,200.111 			"/>
			<polygon style="fill:#040000;stroke:#FFFFFF;" points="266.23,212.168 282.279,224.224 298.329,212.168 282.279,200.111 			"/>
			<polygon style="fill:#040000;stroke:#FFFFFF;" points="202.031,212.168 218.081,224.224 234.13,212.168 218.081,200.111 			"/>
			<polygon style="fill:#CCCCCC;stroke:#FFFFFF;" points="234.13,212.168 250.18,224.224 266.23,212.168 250.18,200.111 			"/>
			<polygon style="fill:#040000;stroke:#FFFFFF;" points="266.23,188.055 250.18,175.999 234.13,188.055 250.18,200.111 			"/>
			<polygon style="fill:#040000;stroke:#FFFFFF;" points="234.13,188.055 218.081,175.999 202.031,188.055 218.081,200.111 			"/>
			<polygon style="fill:#040000;stroke:#FFFFFF;" points="218.081,200.111 202.031,188.055 185.982,200.111 202.031,212.168 			"/>
			<polygon style="fill:#040000;stroke:#FFFFFF;" points="266.23,212.168 282.279,200.111 266.23,188.055 250.18,200.111 			"/>
			<polygon style="fill:#040000;stroke:#FFFFFF;" points="202.031,212.168 185.982,200.111 169.932,212.168 185.982,224.224 			"/>
			<polygon style="fill:#040000;stroke:#FFFFFF;" points="169.932,212.168 153.883,224.224 169.932,236.28 185.982,224.224 			"/>
			<polygon style="fill:#040000;stroke:#FFFFFF;" points="234.13,212.168 250.18,200.111 234.13,188.055 218.081,200.111 			"/>
			<path style="fill:#040000;stroke:#FFFFFF;" d="M330.428,236.28l13.405,10.07c4.867-5.324,8.034-11.131,9.145-17.243l-6.501-4.884
				L330.428,236.28z"/>
			<path style="fill:#040000;stroke:#FFFFFF;" d="M330.428,212.168l16.05,12.056l6.508-4.889
				c-1.103-6.116-4.264-11.928-9.128-17.256L330.428,212.168z"/>
			<path style="fill:#040000;stroke:#FFFFFF;" d="M266.23,188.055l16.05-12.056l-2.971-2.232c-7.494-1.12-15.341-1.82-23.437-2.044
				l-5.691,4.275L266.23,188.055z"/>
			<path style="fill:#040000;stroke:#FFFFFF;" d="M352.979,229.107c0.294-1.616,0.451-3.251,0.451-4.906
				c0-1.641-0.155-3.264-0.445-4.866l-6.508,4.889L352.979,229.107z"/>
			<path style="fill:#040000;stroke:#FFFFFF;" d="M314.378,248.336l13.752,10.33c6.301-3.69,11.603-7.832,15.703-12.317
				l-13.405-10.07L314.378,248.336z"/>
			<polygon style="fill:#040000;stroke:#FFFFFF;" points="298.329,236.28 282.279,248.336 298.329,260.393 314.378,248.336 			"/>
			<polygon style="fill:#040000;stroke:#FFFFFF;" points="266.23,236.28 250.18,248.336 266.23,260.393 282.279,248.336 			"/>
			<polygon style="fill:#040000;stroke:#FFFFFF;" points="266.23,260.393 282.279,272.449 298.329,260.393 282.279,248.336 			"/>
			<path style="fill:#040000;stroke:#FFFFFF;" d="M298.329,260.393l9.756,7.329c7.431-2.567,14.171-5.614,20.046-9.054
				l-13.752-10.33L298.329,260.393z"/>
			<path style="fill:#040000;stroke:#FFFFFF;" d="M279.384,274.624c1.602-0.24,3.188-0.499,4.756-0.777l-1.861-1.398
				L279.384,274.624z"/>
			<path style="fill:#040000;stroke:#FFFFFF;" d="M298.329,260.393l-16.05,12.056l1.861,1.398
				c8.548-1.515,16.587-3.584,23.945-6.126L298.329,260.393z"/>
			<path style="fill:#040000;stroke:#FFFFFF;" d="M266.23,260.393l-16.049,12.056l5.634,4.232c8.144-0.223,16.035-0.928,23.57-2.057
				l2.896-2.175L266.23,260.393z"/>
			<path style="fill:#040000;stroke:#FFFFFF;" d="M250.18,272.449l-16.05-12.056l-16.05,12.056l2.896,2.175
				c7.535,1.129,15.426,1.834,23.57,2.057L250.18,272.449z"/>
			<path style="fill:#040000;stroke:#FFFFFF;" d="M202.031,260.393l-9.756,7.329c7.358,2.542,15.396,4.61,23.945,6.126l1.861-1.398
				L202.031,260.393z"/>
			<path style="fill:#040000;stroke:#FFFFFF;" d="M216.22,273.847c1.569,0.278,3.154,0.537,4.756,0.777l-2.896-2.175L216.22,273.847
				z"/>
			<polygon style="fill:#040000;stroke:#FFFFFF;" points="234.13,260.393 250.18,272.449 266.23,260.393 250.18,248.336 			"/>
			<path style="fill:#040000;stroke:#FFFFFF;" d="M202.031,188.055l-9.797-7.359c-7.429,2.569-14.167,5.618-20.039,9.06
				l13.786,10.356L202.031,188.055z"/>
			<path style="fill:#040000;stroke:#FFFFFF;" d="M169.932,212.168l-13.43-10.088c-4.864,5.328-8.025,11.14-9.128,17.256
				l6.508,4.889L169.932,212.168z"/>
			<path style="fill:#040000;stroke:#FFFFFF;" d="M218.081,175.999l-1.909-1.434c-8.546,1.517-16.582,3.588-23.937,6.131
				l9.797,7.359L218.081,175.999z"/>
			<path style="fill:#040000;stroke:#FFFFFF;" d="M185.982,200.111l-13.786-10.356c-6.299,3.692-11.597,7.837-15.693,12.324
				l13.43,10.088L185.982,200.111z"/>
			<path style="fill:#040000;stroke:#FFFFFF;" d="M221.052,173.767c-1.644,0.246-3.271,0.512-4.88,0.797l1.909,1.434
				L221.052,173.767z"/>
			<path style="fill:#040000;stroke:#FFFFFF;" d="M255.871,171.724c-1.885-0.052-3.781-0.081-5.691-0.081s-3.807,0.028-5.691,0.081
				l5.691,4.275L255.871,171.724z"/>
			<path style="fill:#040000;stroke:#FFFFFF;" d="M234.13,188.055l16.05-12.056l-5.691-4.275
				c-8.096,0.224-15.943,0.924-23.437,2.044l-2.971,2.232L234.13,188.055z"/>
			<path style="fill:#040000;stroke:#FFFFFF;" d="M147.375,219.335c-0.289,1.603-0.445,3.225-0.445,4.866
				c0,1.655,0.158,3.29,0.451,4.906l6.501-4.884L147.375,219.335z"/>
			<polygon style="fill:#040000;stroke:#FFFFFF;" points="202.031,236.28 185.982,248.336 202.031,260.393 218.081,248.336 			"/>
			<path style="fill:#040000;stroke:#FFFFFF;" d="M172.23,258.667c5.875,3.44,12.614,6.487,20.046,9.054l9.756-7.329l-16.05-12.056
				L172.23,258.667z"/>
			<polygon style="fill:#040000;stroke:#FFFFFF;" points="202.031,260.393 218.081,272.449 234.13,260.393 218.081,248.336 			"/>
			<polygon style="fill:#040000;stroke:#FFFFFF;" points="234.13,236.28 218.081,248.336 234.13,260.393 250.18,248.336 			"/>
			<path style="fill:#040000;stroke:#FFFFFF;" d="M169.932,236.28l-13.405,10.07c4.1,4.485,9.402,8.627,15.703,12.317l13.752-10.33
				L169.932,236.28z"/>
			<path style="fill:#040000;stroke:#FFFFFF;" d="M153.883,224.224l-6.501,4.884c1.112,6.111,4.278,11.919,9.145,17.243
				l13.405-10.07L153.883,224.224z"/>
		</g>
	</g>
	<path id="&#x30CA;&#x30A4;&#x30D5;" style="fill:#FFFFFF;stroke:#50342F;" d="M382.858,124.721c3.991-3.472,6.066,0.6,6.147,3.868
		c0.091,3.267,5.018,35.705,6.825,48.563c1.596,11.355,10.586,77.374,12.656,92.604c1.739-0.085,2.43,0.017,2.473,0.319
		c0.077,0.546,0.821,5.344,0.821,5.344l-0.947,0.202c0,0,1.191,0.047,1.862,2.983c0.413,1.803,10.773,68.65,12.842,78.063
		c2.069,9.413-1.566,18.881-8.525,19.859c-6.949,0.977-13.063-7.121-13.658-16.741c-0.606-9.618-9.082-76.73-9.182-78.577
		c-0.164-3.007,0.968-3.38,0.968-3.38l-0.966,0.066c0,0-0.607-4.817-0.684-5.363c-0.041-0.293,0.565-0.582,2.184-0.959
		c-1.417-8.315-5.262-15.841-9.018-16.298c-4.181-0.507-4.814-7.699-5.837-12.287C363.809,140.506,378.868,128.193,382.858,124.721z
		"/>
	<path id="&#x30D5;&#x30A9;&#x30FC;&#x30AF;" style="fill:#FFFFFF;stroke:#50342F;" d="M122.515,210.338
		c2.476-7.49,8.035-72.398,5.688-73.475c-2.347-1.076-8.905,52.173-10.114,54.192c-0.924,1.547-3.751,1.339-3.39-1.228
		c0.359-2.557,7.044-53.872,5.287-54.119c-1.747-0.246-8.184,51.652-9.598,53.14c-0.63,0.663-2.505,1.325-2.505,1.325
		s-1.62-1.154-2.043-1.964c-0.949-1.82,7.158-53.483,5.411-53.728c-1.747-0.246-9.476,50.923-9.835,53.48
		c-0.361,2.567-3.126,1.989-3.597,0.246c-0.606-2.275,7.767-55.268,5.225-54.879c-2.553,0.388-15.1,64.314-14.784,72.196
		c0.316,7.877,7.432,15.599,9.11,21.429c1.187,4.163-3.312,23.072-5.994,33.587c-1.631-0.08-2.293,0.031-2.334,0.324
		c-0.077,0.546-0.821,5.344-0.821,5.344l0.947,0.202c0,0-1.2,0.045-1.872,2.981c-0.403,1.805-10.763,68.651-12.833,78.064
		c-2.069,9.413,1.567,18.881,8.525,19.859c6.949,0.977,13.053-7.122,13.658-16.741c0.605-9.618,9.072-76.731,9.182-78.577
		c0.164-3.007-0.968-3.38-0.968-3.38l0.966,0.066c0,0,0.617-4.815,0.694-5.361c0.041-0.293-0.575-0.584-2.165-0.956
		c0.31-10.849,1.198-30.265,3.496-33.938C111.071,223.284,120.04,217.822,122.515,210.338z"/>
</g>
</svg>
