<?xml version="1.0" encoding="iso-8859-1"?>
<!-- Generator: Adobe Illustrator 23.0.6, SVG Export Plug-In . SVG Version: 6.00 Build 0)  -->
<svg version="1.1" id="&#x30EC;&#x30A4;&#x30E4;&#x30FC;_1"
	 xmlns="http://www.w3.org/2000/svg" xmlns:xlink="http://www.w3.org/1999/xlink" x="0px" y="0px" viewBox="0 0 512 512"
	 style="enable-background:new 0 0 512 512;" xml:space="preserve">
<g>
	<g id="&#x8089;">
		<ellipse id="&#x304A;&#x76BF;_1_" style="fill:#FFFFFF;stroke:#50342F;" cx="250" cy="247.756" rx="203.489" ry="100.248"/>
		<path style="fill:#FFFFFF;stroke:#50342F;" d="M346.248,225.013c-17.089-17.706-52.9-29.897-94.318-29.897
			c-41.418,0-77.23,12.191-94.318,29.897H146.93v23.473c0,29.475,47.01,53.37,105,53.37s105-23.895,105-53.37v-23.473H346.248z"/>
		<g>
			<polygon style="fill:#040000;stroke:#FFFFFF;" points="268.252,237.278 284.573,249.521 300.895,237.278 284.573,225.036 			"/>
			<polygon style="fill:#040000;stroke:#FFFFFF;" points="202.965,212.793 186.644,225.036 202.965,237.278 219.287,225.036 			"/>
			<polygon style="fill:#040000;stroke:#FFFFFF;" points="235.608,212.793 219.287,225.036 235.608,237.278 251.93,225.036 			"/>
			<polygon style="fill:#040000;stroke:#FFFFFF;" points="268.252,212.793 251.93,225.036 268.252,237.278 284.573,225.036 			"/>
			<polygon style="fill:#040000;stroke:#FFFFFF;" points="170.322,237.278 186.644,249.521 202.965,237.278 186.644,225.036 			"/>
			<polygon style="fill:#040000;stroke:#FFFFFF;" points="202.965,237.278 219.287,249.521 235.608,237.278 219.287,225.036 			"/>
			<path style="fill:#040000;stroke:#FFFFFF;" d="M317.216,200.551l14.02-10.516c-5.972-3.495-12.823-6.591-20.379-9.199
				l-9.963,7.473L317.216,200.551z"/>
			<path style="fill:#040000;stroke:#FFFFFF;" d="M300.895,188.309l9.963-7.473c-7.48-2.583-15.652-4.685-24.343-6.226l-1.942,1.456
				L300.895,188.309z"/>
			<path style="fill:#040000;stroke:#FFFFFF;" d="M333.538,212.793l13.657-10.244c-4.166-4.556-9.554-8.765-15.959-12.514
				l-14.02,10.516L333.538,212.793z"/>
			<polygon style="fill:#040000;stroke:#FFFFFF;" points="300.895,212.793 317.216,225.036 333.538,212.793 317.216,200.551 			"/>
			<polygon style="fill:#040000;stroke:#FFFFFF;" points="300.895,237.278 317.216,249.521 333.538,237.278 317.216,225.036 			"/>
			<polygon style="fill:#040000;stroke:#FFFFFF;" points="300.895,212.793 284.573,225.036 300.895,237.278 317.216,225.036 			"/>
			<polygon style="fill:#040000;stroke:#FFFFFF;" points="333.538,237.278 349.859,225.036 333.538,212.793 317.216,225.036 			"/>
			<polygon style="fill:#040000;stroke:#FFFFFF;" points="235.608,237.278 251.93,249.521 268.252,237.278 251.93,225.036 			"/>
			<path style="fill:#040000;stroke:#FFFFFF;" d="M286.515,174.61c-1.636-0.29-3.291-0.56-4.963-0.81l3.021,2.266L286.515,174.61z"
				/>
			<path style="fill:#040000;stroke:#FFFFFF;" d="M251.93,278.383c1.923,0,3.832-0.028,5.729-0.08l-5.729-4.297l-5.729,4.297
				C248.098,278.355,250.007,278.383,251.93,278.383z"/>
			<polygon style="fill:#040000;stroke:#FFFFFF;" points="300.895,188.309 284.573,176.066 268.252,188.309 284.573,200.551 			"/>
			<polygon style="fill:#040000;stroke:#FFFFFF;" points="300.895,212.793 317.216,200.551 300.895,188.309 284.573,200.551 			"/>
			<polygon style="fill:#040000;stroke:#FFFFFF;" points="268.252,212.793 284.573,225.036 300.895,212.793 284.573,200.551 			"/>
			<polygon style="fill:#040000;stroke:#FFFFFF;" points="202.965,212.793 219.287,225.036 235.608,212.793 219.287,200.551 			"/>
			<polygon style="fill:#CCCCCC;stroke:#FFFFFF;" points="235.608,212.793 251.93,225.036 268.252,212.793 251.93,200.551 			"/>
			<polygon style="fill:#040000;stroke:#FFFFFF;" points="268.252,188.309 251.93,176.066 235.608,188.309 251.93,200.551 			"/>
			<polygon style="fill:#040000;stroke:#FFFFFF;" points="235.608,188.309 219.287,176.066 202.965,188.309 219.287,200.551 			"/>
			<polygon style="fill:#040000;stroke:#FFFFFF;" points="219.287,200.551 202.965,188.309 186.644,200.551 202.965,212.793 			"/>
			<polygon style="fill:#040000;stroke:#FFFFFF;" points="268.252,212.793 284.573,200.551 268.252,188.309 251.93,200.551 			"/>
			<polygon style="fill:#040000;stroke:#FFFFFF;" points="202.965,212.793 186.644,200.551 170.322,212.793 186.644,225.036 			"/>
			<polygon style="fill:#040000;stroke:#FFFFFF;" points="170.322,212.793 154.001,225.036 170.322,237.278 186.644,225.036 			"/>
			<polygon style="fill:#040000;stroke:#FFFFFF;" points="235.608,212.793 251.93,200.551 235.608,188.309 219.287,200.551 			"/>
			<path style="fill:#040000;stroke:#FFFFFF;" d="M333.538,237.278l13.633,10.225c4.95-5.406,8.17-11.303,9.3-17.509l-6.611-4.959
				L333.538,237.278z"/>
			<path style="fill:#040000;stroke:#FFFFFF;" d="M333.538,212.793l16.322,12.242l6.618-4.964
				c-1.122-6.21-4.336-12.112-9.283-17.522L333.538,212.793z"/>
			<path style="fill:#040000;stroke:#FFFFFF;" d="M268.252,188.309l16.322-12.242l-3.021-2.266
				c-7.621-1.137-15.601-1.848-23.834-2.075l-5.788,4.341L268.252,188.309z"/>
			<path style="fill:#040000;stroke:#FFFFFF;" d="M356.471,229.995c0.299-1.641,0.459-3.302,0.459-4.982
				c0-1.667-0.158-3.314-0.452-4.941l-6.618,4.964L356.471,229.995z"/>
			<path style="fill:#040000;stroke:#FFFFFF;" d="M317.216,249.521l13.985,10.49c6.408-3.746,11.799-7.953,15.969-12.507
				l-13.633-10.225L317.216,249.521z"/>
			<polygon style="fill:#040000;stroke:#FFFFFF;" points="300.895,237.278 284.573,249.521 300.895,261.763 317.216,249.521 			"/>
			<polygon style="fill:#040000;stroke:#FFFFFF;" points="268.252,237.278 251.93,249.521 268.252,261.763 284.573,249.521 			"/>
			<polygon style="fill:#040000;stroke:#FFFFFF;" points="268.252,261.763 284.573,274.006 300.895,261.763 284.573,249.521 			"/>
			<path style="fill:#040000;stroke:#FFFFFF;" d="M300.895,261.763l9.921,7.442c7.557-2.607,14.411-5.701,20.385-9.194
				l-13.985-10.49L300.895,261.763z"/>
			<path style="fill:#040000;stroke:#FFFFFF;" d="M281.629,276.214c1.629-0.244,3.242-0.507,4.837-0.789l-1.892-1.419
				L281.629,276.214z"/>
			<path style="fill:#040000;stroke:#FFFFFF;" d="M300.895,261.763l-16.322,12.242l1.892,1.419
				c8.693-1.538,16.868-3.639,24.351-6.22L300.895,261.763z"/>
			<path style="fill:#040000;stroke:#FFFFFF;" d="M268.252,261.763l-16.322,12.242l5.729,4.297
				c8.282-0.226,16.307-0.942,23.969-2.089l2.945-2.209L268.252,261.763z"/>
			<path style="fill:#040000;stroke:#FFFFFF;" d="M251.93,274.006l-16.322-12.242l-16.322,12.242l2.945,2.209
				c7.663,1.146,15.687,1.862,23.969,2.089L251.93,274.006z"/>
			<path style="fill:#040000;stroke:#FFFFFF;" d="M202.965,261.763l-9.921,7.442c7.483,2.581,15.657,4.682,24.351,6.22l1.892-1.419
				L202.965,261.763z"/>
			<path style="fill:#040000;stroke:#FFFFFF;" d="M217.394,275.425c1.595,0.282,3.208,0.545,4.837,0.789l-2.945-2.209
				L217.394,275.425z"/>
			<polygon style="fill:#040000;stroke:#FFFFFF;" points="235.608,261.763 251.93,274.006 268.252,261.763 251.93,249.521 			"/>
			<path style="fill:#040000;stroke:#FFFFFF;" d="M202.965,188.309l-9.963-7.473c-7.555,2.609-14.407,5.704-20.378,9.199
				l14.02,10.516L202.965,188.309z"/>
			<path style="fill:#040000;stroke:#FFFFFF;" d="M170.322,212.793l-13.657-10.244c-4.947,5.41-8.161,11.312-9.283,17.522
				l6.618,4.964L170.322,212.793z"/>
			<path style="fill:#040000;stroke:#FFFFFF;" d="M219.287,176.066l-1.942-1.456c-8.691,1.541-16.863,3.643-24.343,6.226
				l9.963,7.473L219.287,176.066z"/>
			<path style="fill:#040000;stroke:#FFFFFF;" d="M186.644,200.551l-14.02-10.516c-6.405,3.749-11.794,7.958-15.959,12.514
				l13.657,10.244L186.644,200.551z"/>
			<path style="fill:#040000;stroke:#FFFFFF;" d="M222.308,173.8c-1.672,0.249-3.326,0.519-4.963,0.81l1.942,1.456L222.308,173.8z"
				/>
			<path style="fill:#040000;stroke:#FFFFFF;" d="M257.718,171.725c-1.916-0.053-3.845-0.082-5.788-0.082s-3.871,0.029-5.788,0.082
				l5.788,4.341L257.718,171.725z"/>
			<path style="fill:#040000;stroke:#FFFFFF;" d="M235.608,188.309l16.322-12.242l-5.788-4.341
				c-8.234,0.227-16.213,0.938-23.834,2.075l-3.021,2.266L235.608,188.309z"/>
			<path style="fill:#040000;stroke:#FFFFFF;" d="M147.382,220.072c-0.294,1.628-0.452,3.275-0.452,4.941
				c0,1.68,0.16,3.341,0.459,4.982l6.611-4.959L147.382,220.072z"/>
			<polygon style="fill:#040000;stroke:#FFFFFF;" points="202.965,237.278 186.644,249.521 202.965,261.763 219.287,249.521 			"/>
			<path style="fill:#040000;stroke:#FFFFFF;" d="M172.658,260.011c5.975,3.493,12.828,6.587,20.385,9.194l9.921-7.442
				l-16.322-12.242L172.658,260.011z"/>
			<polygon style="fill:#040000;stroke:#FFFFFF;" points="202.965,261.763 219.287,274.006 235.608,261.763 219.287,249.521 			"/>
			<polygon style="fill:#040000;stroke:#FFFFFF;" points="235.608,237.278 219.287,249.521 235.608,261.763 251.93,249.521 			"/>
			<path style="fill:#040000;stroke:#FFFFFF;" d="M170.322,237.278l-13.633,10.225c4.17,4.554,9.561,8.76,15.969,12.507
				l13.985-10.49L170.322,237.278z"/>
			<path style="fill:#040000;stroke:#FFFFFF;" d="M154.001,225.036l-6.611,4.959c1.13,6.206,4.35,12.103,9.3,17.509l13.633-10.225
				L154.001,225.036z"/>
		</g>
	</g>
	<path id="&#x30CA;&#x30A4;&#x30D5;" style="fill:#FFFFFF;stroke:#50342F;" d="M382.858,124.721c3.991-3.472,6.066,0.6,6.147,3.868
		c0.091,3.267,5.018,35.705,6.825,48.563c1.596,11.355,10.586,77.374,12.656,92.604c1.739-0.085,2.43,0.017,2.473,0.319
		c0.077,0.546,0.821,5.344,0.821,5.344l-0.947,0.202c0,0,1.191,0.047,1.862,2.983c0.413,1.803,10.773,68.65,12.842,78.063
		c2.069,9.413-1.566,18.881-8.525,19.859c-6.949,0.977-13.063-7.121-13.658-16.741c-0.606-9.618-9.082-76.73-9.182-78.577
		c-0.164-3.007,0.968-3.38,0.968-3.38l-0.966,0.066c0,0-0.607-4.817-0.684-5.363c-0.041-0.293,0.565-0.582,2.184-0.959
		c-1.417-8.315-5.262-15.841-9.018-16.298c-4.181-0.507-4.814-7.699-5.837-12.287C363.809,140.506,378.868,128.193,382.858,124.721z
		"/>
	<path id="&#x30D5;&#x30A9;&#x30FC;&#x30AF;" style="fill:#FFFFFF;stroke:#50342F;" d="M122.515,210.338
		c2.476-7.49,8.035-72.398,5.688-73.475c-2.347-1.076-8.905,52.173-10.114,54.192c-0.924,1.547-3.751,1.339-3.39-1.228
		c0.359-2.557,7.044-53.872,5.287-54.119c-1.747-0.246-8.184,51.652-9.598,53.14c-0.63,0.663-2.505,1.325-2.505,1.325
		s-1.62-1.154-2.043-1.964c-0.949-1.82,7.158-53.483,5.411-53.728c-1.747-0.246-9.476,50.923-9.835,53.48
		c-0.361,2.567-3.126,1.989-3.597,0.246c-0.606-2.275,7.767-55.268,5.225-54.879c-2.553,0.388-15.1,64.314-14.784,72.196
		c0.316,7.877,7.432,15.599,9.11,21.429c1.187,4.163-3.312,23.072-5.994,33.587c-1.631-0.08-2.293,0.031-2.334,0.324
		c-0.077,0.546-0.821,5.344-0.821,5.344l0.947,0.202c0,0-1.2,0.045-1.872,2.981c-0.403,1.805-10.763,68.651-12.833,78.064
		c-2.069,9.413,1.567,18.881,8.525,19.859c6.949,0.977,13.053-7.122,13.658-16.741c0.605-9.618,9.072-76.731,9.182-78.577
		c0.164-3.007-0.968-3.38-0.968-3.38l0.966,0.066c0,0,0.617-4.815,0.694-5.361c0.041-0.293-0.575-0.584-2.165-0.956
		c0.31-10.849,1.198-30.265,3.496-33.938C111.071,223.284,120.04,217.822,122.515,210.338z"/>
</g>
</svg>
