<?xml version="1.0" encoding="iso-8859-1"?>
<!-- Generator: Adobe Illustrator 23.0.6, SVG Export Plug-In . SVG Version: 6.00 Build 0)  -->
<svg version="1.1" id="&#x30EC;&#x30A4;&#x30E4;&#x30FC;_1"
	 xmlns="http://www.w3.org/2000/svg" xmlns:xlink="http://www.w3.org/1999/xlink" x="0px" y="0px" viewBox="0 0 500 500"
	 style="enable-background:new 0 0 500 500;" xml:space="preserve">
<g>
	<g id="&#x8089;">
		<ellipse id="&#x304A;&#x76BF;_1_" style="fill:#FFFFFF;stroke:#50342F;" cx="250" cy="247.756" rx="203.489" ry="100.248"/>
		<path style="fill:#FFFFFF;stroke:#50342F;" d="M356.98,229.994c-19.383-19.465-60.002-32.867-106.98-32.867
			c-46.978,0-87.598,13.402-106.98,32.867h-12.116V255.8c0,32.404,53.321,58.672,119.096,58.672s119.096-26.269,119.096-58.672
			v-25.805H356.98z"/>
		<g>
			<polygon style="fill:#FFFFFF;stroke:#50342F;" points="268.513,243.478 287.025,256.937 305.538,243.478 287.025,230.019 			"/>
			<polygon style="fill:#FFFFFF;stroke:#50342F;" points="194.462,216.561 175.949,230.019 194.462,243.478 212.974,230.019 			"/>
			<polygon style="fill:#FFFFFF;stroke:#50342F;" points="231.487,216.561 212.974,230.019 231.487,243.478 250,230.019 			"/>
			<polygon style="fill:#FFFFFF;stroke:#50342F;" points="268.513,216.561 250,230.019 268.513,243.478 287.025,230.019 			"/>
			<polygon style="fill:#FFFFFF;stroke:#50342F;" points="157.436,243.478 175.949,256.937 194.462,243.478 175.949,230.019 			"/>
			<polygon style="fill:#FFFFFF;stroke:#50342F;" points="194.462,243.478 212.974,256.937 231.487,243.478 212.974,230.019 			"/>
			<path style="fill:#FFFFFF;stroke:#50342F;" d="M324.051,203.102l15.902-11.561c-6.773-3.842-14.545-7.245-23.114-10.113
				l-11.3,8.215L324.051,203.102z"/>
			<path style="fill:#FFFFFF;stroke:#50342F;" d="M305.538,189.643l11.3-8.215c-8.484-2.839-17.753-5.151-27.611-6.844l-2.202,1.601
				L305.538,189.643z"/>
			<path style="fill:#FFFFFF;stroke:#50342F;" d="M342.564,216.561l15.491-11.262c-4.725-5.009-10.836-9.636-18.102-13.757
				l-15.902,11.561L342.564,216.561z"/>
			<polygon style="fill:#FFFFFF;stroke:#50342F;" points="305.538,216.561 324.051,230.019 342.564,216.561 324.051,203.102 			"/>
			<polygon style="fill:#FFFFFF;stroke:#50342F;" points="305.538,243.478 324.051,256.937 342.564,243.478 324.051,230.019 			"/>
			<polygon style="fill:#FFFFFF;stroke:#50342F;" points="305.538,216.561 287.025,230.019 305.538,243.478 324.051,230.019 			"/>
			<polygon style="fill:#FFFFFF;stroke:#50342F;" points="342.564,243.478 361.077,230.019 342.564,216.561 324.051,230.019 			"/>
			<polygon style="fill:#FFFFFF;stroke:#50342F;" points="231.487,243.478 250,256.937 268.513,243.478 250,230.019 			"/>
			<path style="fill:#FFFFFF;stroke:#50342F;" d="M289.228,174.583c-1.856-0.319-3.732-0.616-5.629-0.89l3.427,2.491
				L289.228,174.583z"/>
			<path style="fill:#FFFFFF;stroke:#50342F;" d="M250,288.667c2.181,0,4.347-0.031,6.499-0.088L250,283.854l-6.499,4.724
				C245.653,288.636,247.819,288.667,250,288.667z"/>
			<polygon style="fill:#FFFFFF;stroke:#50342F;" points="305.538,189.643 287.026,176.184 268.513,189.643 287.026,203.102 			"/>
			<polygon style="fill:#FFFFFF;stroke:#50342F;" points="305.538,216.561 324.051,203.102 305.538,189.643 287.026,203.102 			"/>
			<polygon style="fill:#FFFFFF;stroke:#50342F;" points="268.513,216.561 287.025,230.019 305.538,216.561 287.026,203.102 			"/>
			<polygon style="fill:#FFFFFF;stroke:#50342F;" points="194.462,216.561 212.974,230.019 231.487,216.561 212.974,203.102 			"/>
			<polygon style="fill:#CCCCCC;stroke:#50342F;" points="231.487,216.561 250,230.019 268.513,216.561 250,203.102 			"/>
			<polygon style="fill:#FFFFFF;stroke:#50342F;" points="268.513,189.643 250,176.184 231.487,189.643 250,203.102 			"/>
			<polygon style="fill:#FFFFFF;stroke:#50342F;" points="231.487,189.643 212.974,176.184 194.462,189.643 212.974,203.102 			"/>
			<polygon style="fill:#FFFFFF;stroke:#50342F;" points="212.974,203.102 194.462,189.643 175.949,203.102 194.462,216.561 			"/>
			<polygon style="fill:#FFFFFF;stroke:#50342F;" points="268.513,216.561 287.026,203.102 268.513,189.643 250,203.102 			"/>
			<polygon style="fill:#FFFFFF;stroke:#50342F;" points="194.462,216.561 175.949,203.102 157.436,216.561 175.949,230.019 			"/>
			<polygon style="fill:#FFFFFF;stroke:#50342F;" points="157.436,216.561 138.923,230.019 157.436,243.478 175.949,230.019 			"/>
			<polygon style="fill:#FFFFFF;stroke:#50342F;" points="231.487,216.561 250,203.102 231.487,189.643 212.974,203.102 			"/>
			<path style="fill:#FFFFFF;stroke:#50342F;" d="M342.564,243.478l15.463,11.241c5.614-5.943,9.267-12.426,10.549-19.248
				l-7.499-5.452L342.564,243.478z"/>
			<path style="fill:#FFFFFF;stroke:#50342F;" d="M342.564,216.561l18.513,13.459l7.507-5.458
				c-1.273-6.827-4.918-13.315-10.529-19.263L342.564,216.561z"/>
			<path style="fill:#FFFFFF;stroke:#50342F;" d="M268.513,189.643l18.513-13.459l-3.427-2.491
				c-8.645-1.25-17.695-2.032-27.034-2.282L250,176.184L268.513,189.643z"/>
			<path style="fill:#FFFFFF;stroke:#50342F;" d="M368.576,235.471c0.339-1.804,0.521-3.63,0.521-5.477
				c0-1.832-0.179-3.643-0.513-5.432l-7.507,5.458L368.576,235.471z"/>
			<path style="fill:#FFFFFF;stroke:#50342F;" d="M324.051,256.937l15.863,11.532c7.268-4.119,13.383-8.743,18.113-13.75
				l-15.463-11.241L324.051,256.937z"/>
			<polygon style="fill:#FFFFFF;stroke:#50342F;" points="305.538,243.478 287.025,256.937 305.538,270.395 324.051,256.937 			"/>
			<polygon style="fill:#FFFFFF;stroke:#50342F;" points="268.513,243.478 250,256.937 268.513,270.395 287.025,256.937 			"/>
			<polygon style="fill:#FFFFFF;stroke:#50342F;" points="268.513,270.395 287.025,283.854 305.538,270.395 287.025,256.937 			"/>
			<path style="fill:#FFFFFF;stroke:#50342F;" d="M305.538,270.395l11.253,8.181c8.572-2.866,16.346-6.267,23.122-10.108
				l-15.863-11.532L305.538,270.395z"/>
			<path style="fill:#FFFFFF;stroke:#50342F;" d="M283.686,286.282c1.848-0.268,3.677-0.557,5.486-0.868l-2.147-1.561
				L283.686,286.282z"/>
			<path style="fill:#FFFFFF;stroke:#50342F;" d="M305.538,270.395l-18.513,13.459l2.147,1.561c9.86-1.691,19.132-4.001,27.62-6.838
				L305.538,270.395z"/>
			<path style="fill:#FFFFFF;stroke:#50342F;" d="M268.513,270.395L250,283.854l6.499,4.724c9.394-0.249,18.496-1.036,27.187-2.296
				l3.34-2.428L268.513,270.395z"/>
			<path style="fill:#FFFFFF;stroke:#50342F;" d="M250,283.854l-18.513-13.459l-18.513,13.459l3.34,2.428
				c8.691,1.26,17.793,2.047,27.187,2.296L250,283.854z"/>
			<path style="fill:#FFFFFF;stroke:#50342F;" d="M194.462,270.395l-11.253,8.181c8.487,2.837,17.759,5.147,27.62,6.838l2.147-1.561
				L194.462,270.395z"/>
			<path style="fill:#FFFFFF;stroke:#50342F;" d="M210.828,285.415c1.809,0.31,3.639,0.6,5.486,0.868l-3.34-2.428L210.828,285.415z"
				/>
			<polygon style="fill:#FFFFFF;stroke:#50342F;" points="231.487,270.395 250,283.854 268.513,270.395 250,256.937 			"/>
			<path style="fill:#FFFFFF;stroke:#50342F;" d="M194.462,189.643l-11.3-8.215c-8.57,2.868-16.341,6.271-23.114,10.113
				l15.902,11.561L194.462,189.643z"/>
			<path style="fill:#FFFFFF;stroke:#50342F;" d="M157.436,216.561l-15.491-11.262c-5.611,5.948-9.256,12.436-10.529,19.263
				l7.507,5.458L157.436,216.561z"/>
			<path style="fill:#FFFFFF;stroke:#50342F;" d="M212.974,176.184l-2.202-1.601c-9.858,1.694-19.127,4.005-27.611,6.844l11.3,8.215
				L212.974,176.184z"/>
			<path style="fill:#FFFFFF;stroke:#50342F;" d="M175.949,203.102l-15.902-11.561c-7.265,4.121-13.377,8.748-18.102,13.757
				l15.491,11.262L175.949,203.102z"/>
			<path style="fill:#FFFFFF;stroke:#50342F;" d="M216.401,173.693c-1.897,0.274-3.773,0.571-5.629,0.89l2.202,1.601
				L216.401,173.693z"/>
			<path style="fill:#FFFFFF;stroke:#50342F;" d="M256.565,171.412c-2.174-0.058-4.362-0.09-6.565-0.09s-4.391,0.032-6.565,0.09
				l6.565,4.773L256.565,171.412z"/>
			<path style="fill:#FFFFFF;stroke:#50342F;" d="M231.487,189.643L250,176.184l-6.565-4.773c-9.339,0.25-18.389,1.032-27.034,2.282
				l-3.427,2.491L231.487,189.643z"/>
			<path style="fill:#FFFFFF;stroke:#50342F;" d="M131.416,224.562c-0.333,1.789-0.513,3.6-0.513,5.432
				c0,1.847,0.182,3.673,0.521,5.477l7.499-5.452L131.416,224.562z"/>
			<polygon style="fill:#FFFFFF;stroke:#50342F;" points="194.462,243.478 175.949,256.937 194.462,270.395 212.974,256.937 			"/>
			<path style="fill:#FFFFFF;stroke:#50342F;" d="M160.086,268.469c6.777,3.84,14.55,7.242,23.122,10.108l11.253-8.181
				l-18.513-13.459L160.086,268.469z"/>
			<polygon style="fill:#FFFFFF;stroke:#50342F;" points="194.462,270.395 212.974,283.854 231.487,270.395 212.974,256.937 			"/>
			<polygon style="fill:#FFFFFF;stroke:#50342F;" points="231.487,243.478 212.974,256.937 231.487,270.395 250,256.937 			"/>
			<path style="fill:#FFFFFF;stroke:#50342F;" d="M157.436,243.478l-15.463,11.241c4.729,5.007,10.845,9.631,18.113,13.75
				l15.863-11.532L157.436,243.478z"/>
			<path style="fill:#FFFFFF;stroke:#50342F;" d="M138.923,230.019l-7.499,5.452c1.282,6.822,4.935,13.305,10.549,19.248
				l15.463-11.241L138.923,230.019z"/>
		</g>
	</g>
	<path id="&#x30CA;&#x30A4;&#x30D5;" style="fill:#FFFFFF;stroke:#50342F;" d="M382.858,124.721c3.991-3.472,6.066,0.6,6.147,3.868
		c0.091,3.267,5.018,35.705,6.825,48.563c1.596,11.355,10.586,77.374,12.656,92.604c1.739-0.085,2.43,0.017,2.473,0.319
		c0.077,0.546,0.821,5.344,0.821,5.344l-0.947,0.202c0,0,1.191,0.047,1.862,2.983c0.413,1.803,10.773,68.65,12.842,78.063
		c2.069,9.413-1.566,18.881-8.525,19.859c-6.949,0.977-13.063-7.121-13.658-16.741c-0.606-9.618-9.082-76.73-9.182-78.577
		c-0.164-3.007,0.968-3.38,0.968-3.38l-0.966,0.066c0,0-0.607-4.817-0.684-5.363c-0.041-0.293,0.565-0.582,2.184-0.959
		c-1.417-8.315-5.262-15.841-9.018-16.298c-4.181-0.507-4.814-7.699-5.837-12.287C363.809,140.506,378.868,128.193,382.858,124.721z
		"/>
	<path id="&#x30D5;&#x30A9;&#x30FC;&#x30AF;" style="fill:#FFFFFF;stroke:#50342F;" d="M122.515,210.338
		c2.476-7.49,8.035-72.398,5.688-73.475c-2.347-1.076-8.905,52.173-10.114,54.192c-0.924,1.547-3.751,1.339-3.39-1.228
		c0.359-2.557,7.044-53.872,5.287-54.119c-1.747-0.246-8.184,51.652-9.598,53.14c-0.63,0.663-2.505,1.325-2.505,1.325
		s-1.62-1.154-2.043-1.964c-0.949-1.82,7.158-53.483,5.411-53.728c-1.747-0.246-9.476,50.923-9.835,53.48
		c-0.361,2.567-3.126,1.989-3.597,0.246c-0.606-2.275,7.767-55.268,5.225-54.879c-2.553,0.388-15.1,64.314-14.784,72.196
		c0.316,7.877,7.432,15.599,9.11,21.429c1.187,4.163-3.312,23.072-5.994,33.587c-1.631-0.08-2.293,0.031-2.334,0.324
		c-0.077,0.546-0.821,5.344-0.821,5.344l0.947,0.202c0,0-1.2,0.045-1.872,2.981c-0.403,1.805-10.763,68.651-12.833,78.064
		c-2.069,9.413,1.567,18.881,8.525,19.859c6.949,0.977,13.053-7.122,13.658-16.741c0.605-9.618,9.072-76.731,9.182-78.577
		c0.164-3.007-0.968-3.38-0.968-3.38l0.966,0.066c0,0,0.617-4.815,0.694-5.361c0.041-0.293-0.575-0.584-2.165-0.956
		c0.31-10.849,1.198-30.265,3.496-33.938C111.071,223.284,120.04,217.822,122.515,210.338z"/>
</g>
</svg>
