<?xml version="1.0" encoding="iso-8859-1"?>
<!-- Generator: Adobe Illustrator 23.0.6, SVG Export Plug-In . SVG Version: 6.00 Build 0)  -->
<svg version="1.1" id="&#x30EC;&#x30A4;&#x30E4;&#x30FC;_1"
	 xmlns="http://www.w3.org/2000/svg" xmlns:xlink="http://www.w3.org/1999/xlink" x="0px" y="0px" viewBox="0 0 512 512"
	 style="enable-background:new 0 0 512 512;" xml:space="preserve">
<g>
	<g id="&#x8089;">
		<ellipse id="&#x304A;&#x76BF;_1_" style="fill:#FFFFFF;stroke:#50342F;" cx="250" cy="247.756" rx="203.489" ry="100.248"/>
		<path style="fill:#FFFFFF;stroke:#50342F;" d="M351.943,226.538c-17.577-18.212-54.411-30.751-97.013-30.751
			c-42.601,0-79.436,12.539-97.013,30.751H146.93v24.144c0,30.318,48.353,54.895,108,54.895s108-24.577,108-54.895v-24.144H351.943z
			"/>
		<g>
			<polygon style="fill:#040000;stroke:#FFFFFF;" points="271.718,239.154 288.506,251.746 305.294,239.154 288.506,226.561 			"/>
			<polygon style="fill:#040000;stroke:#FFFFFF;" points="204.566,213.969 187.778,226.561 204.566,239.154 221.354,226.561 			"/>
			<polygon style="fill:#040000;stroke:#FFFFFF;" points="238.142,213.969 221.354,226.561 238.142,239.154 254.93,226.561 			"/>
			<polygon style="fill:#040000;stroke:#FFFFFF;" points="271.718,213.969 254.93,226.561 271.718,239.154 288.506,226.561 			"/>
			<polygon style="fill:#040000;stroke:#FFFFFF;" points="170.99,239.154 187.778,251.746 204.566,239.154 187.778,226.561 			"/>
			<polygon style="fill:#040000;stroke:#FFFFFF;" points="204.566,239.154 221.354,251.746 238.142,239.154 221.354,226.561 			"/>
			<path style="fill:#040000;stroke:#FFFFFF;" d="M322.082,201.377l14.42-10.816c-6.142-3.595-13.19-6.779-20.961-9.462
				l-10.248,7.686L322.082,201.377z"/>
			<path style="fill:#040000;stroke:#FFFFFF;" d="M305.294,188.785l10.248-7.686c-7.694-2.657-16.099-4.819-25.038-6.404
				l-1.997,1.498L305.294,188.785z"/>
			<path style="fill:#040000;stroke:#FFFFFF;" d="M338.87,213.969l14.048-10.537c-4.285-4.687-9.827-9.016-16.415-12.872
				l-14.42,10.816L338.87,213.969z"/>
			<polygon style="fill:#040000;stroke:#FFFFFF;" points="305.294,213.969 322.082,226.561 338.87,213.969 322.082,201.377 			"/>
			<polygon style="fill:#040000;stroke:#FFFFFF;" points="305.294,239.154 322.082,251.746 338.87,239.154 322.082,226.561 			"/>
			<polygon style="fill:#040000;stroke:#FFFFFF;" points="305.294,213.969 288.506,226.561 305.294,239.154 322.082,226.561 			"/>
			<polygon style="fill:#040000;stroke:#FFFFFF;" points="338.87,239.154 355.657,226.561 338.87,213.969 322.082,226.561 			"/>
			<polygon style="fill:#040000;stroke:#FFFFFF;" points="238.142,239.154 254.93,251.746 271.718,239.154 254.93,226.561 			"/>
			<path style="fill:#040000;stroke:#FFFFFF;" d="M290.503,174.695c-1.683-0.298-3.385-0.576-5.104-0.833l3.107,2.331
				L290.503,174.695z"/>
			<path style="fill:#040000;stroke:#FFFFFF;" d="M254.93,281.433c1.978,0,3.942-0.029,5.893-0.082l-5.893-4.42l-5.893,4.42
				C250.988,281.404,252.952,281.433,254.93,281.433z"/>
			<polygon style="fill:#040000;stroke:#FFFFFF;" points="305.294,188.785 288.506,176.193 271.718,188.785 288.506,201.377 			"/>
			<polygon style="fill:#040000;stroke:#FFFFFF;" points="305.294,213.969 322.082,201.377 305.294,188.785 288.506,201.377 			"/>
			<polygon style="fill:#040000;stroke:#FFFFFF;" points="271.718,213.969 288.506,226.561 305.294,213.969 288.506,201.377 			"/>
			<polygon style="fill:#040000;stroke:#FFFFFF;" points="204.566,213.969 221.354,226.561 238.142,213.969 221.354,201.377 			"/>
			<polygon style="fill:#CCCCCC;stroke:#FFFFFF;" points="238.142,213.969 254.93,226.561 271.718,213.969 254.93,201.377 			"/>
			<polygon style="fill:#040000;stroke:#FFFFFF;" points="271.718,188.785 254.93,176.193 238.142,188.785 254.93,201.377 			"/>
			<polygon style="fill:#040000;stroke:#FFFFFF;" points="238.142,188.785 221.354,176.193 204.566,188.785 221.354,201.377 			"/>
			<polygon style="fill:#040000;stroke:#FFFFFF;" points="221.354,201.377 204.566,188.785 187.778,201.377 204.566,213.969 			"/>
			<polygon style="fill:#040000;stroke:#FFFFFF;" points="271.718,213.969 288.506,201.377 271.718,188.785 254.93,201.377 			"/>
			<polygon style="fill:#040000;stroke:#FFFFFF;" points="204.566,213.969 187.778,201.377 170.99,213.969 187.778,226.561 			"/>
			<polygon style="fill:#040000;stroke:#FFFFFF;" points="170.99,213.969 154.203,226.561 170.99,239.154 187.778,226.561 			"/>
			<polygon style="fill:#040000;stroke:#FFFFFF;" points="238.142,213.969 254.93,201.377 238.142,188.785 221.354,201.377 			"/>
			<path style="fill:#040000;stroke:#FFFFFF;" d="M338.87,239.154l14.022,10.518c5.091-5.561,8.403-11.626,9.566-18.009l-6.8-5.101
				L338.87,239.154z"/>
			<path style="fill:#040000;stroke:#FFFFFF;" d="M338.87,213.969l16.788,12.592l6.808-5.106c-1.154-6.388-4.46-12.458-9.548-18.023
				L338.87,213.969z"/>
			<path style="fill:#040000;stroke:#FFFFFF;" d="M271.718,188.785l16.788-12.592l-3.107-2.331
				c-7.839-1.17-16.046-1.901-24.515-2.135l-5.953,4.465L271.718,188.785z"/>
			<path style="fill:#040000;stroke:#FFFFFF;" d="M362.458,231.662c0.307-1.687,0.472-3.396,0.472-5.124
				c0-1.714-0.163-3.409-0.465-5.083l-6.808,5.106L362.458,231.662z"/>
			<path style="fill:#040000;stroke:#FFFFFF;" d="M322.082,251.746l14.385,10.79c6.591-3.854,12.136-8.18,16.425-12.864
				l-14.022-10.518L322.082,251.746z"/>
			<polygon style="fill:#040000;stroke:#FFFFFF;" points="305.294,239.154 288.506,251.746 305.294,264.338 322.082,251.746 			"/>
			<polygon style="fill:#040000;stroke:#FFFFFF;" points="271.718,239.154 254.93,251.746 271.718,264.338 288.506,251.746 			"/>
			<polygon style="fill:#040000;stroke:#FFFFFF;" points="271.718,264.338 288.506,276.93 305.294,264.338 288.506,251.746 			"/>
			<path style="fill:#040000;stroke:#FFFFFF;" d="M305.294,264.338l10.205,7.654c7.773-2.681,14.823-5.864,20.968-9.457
				l-14.385-10.79L305.294,264.338z"/>
			<path style="fill:#040000;stroke:#FFFFFF;" d="M285.477,279.202c1.676-0.251,3.334-0.521,4.975-0.812l-1.947-1.46
				L285.477,279.202z"/>
			<path style="fill:#040000;stroke:#FFFFFF;" d="M305.294,264.338l-16.788,12.592l1.947,1.46c8.941-1.582,17.35-3.743,25.046-6.398
				L305.294,264.338z"/>
			<path style="fill:#040000;stroke:#FFFFFF;" d="M271.718,264.338L254.93,276.93l5.893,4.42c8.518-0.233,16.772-0.969,24.654-2.149
				l3.029-2.272L271.718,264.338z"/>
			<path style="fill:#040000;stroke:#FFFFFF;" d="M254.93,276.93l-16.788-12.592l-16.788,12.592l3.029,2.272
				c7.882,1.179,16.136,1.916,24.654,2.149L254.93,276.93z"/>
			<path style="fill:#040000;stroke:#FFFFFF;" d="M204.566,264.338l-10.205,7.654c7.697,2.655,16.105,4.815,25.046,6.398l1.947-1.46
				L204.566,264.338z"/>
			<path style="fill:#040000;stroke:#FFFFFF;" d="M219.408,278.39c1.641,0.29,3.3,0.561,4.975,0.812l-3.029-2.272L219.408,278.39z"
				/>
			<polygon style="fill:#040000;stroke:#FFFFFF;" points="238.142,264.338 254.93,276.93 271.718,264.338 254.93,251.746 			"/>
			<path style="fill:#040000;stroke:#FFFFFF;" d="M204.566,188.785l-10.248-7.686c-7.771,2.683-14.819,5.867-20.961,9.462
				l14.42,10.816L204.566,188.785z"/>
			<path style="fill:#040000;stroke:#FFFFFF;" d="M170.99,213.969l-14.048-10.537c-5.088,5.565-8.394,11.635-9.548,18.023
				l6.808,5.106L170.99,213.969z"/>
			<path style="fill:#040000;stroke:#FFFFFF;" d="M221.354,176.193l-1.997-1.498c-8.939,1.585-17.344,3.747-25.038,6.404
				l10.248,7.686L221.354,176.193z"/>
			<path style="fill:#040000;stroke:#FFFFFF;" d="M187.778,201.377l-14.42-10.816c-6.588,3.856-12.131,8.185-16.415,12.872
				l14.048,10.537L187.778,201.377z"/>
			<path style="fill:#040000;stroke:#FFFFFF;" d="M224.461,173.862c-1.72,0.257-3.422,0.534-5.105,0.833l1.997,1.498
				L224.461,173.862z"/>
			<path style="fill:#040000;stroke:#FFFFFF;" d="M260.883,171.727c-1.971-0.054-3.955-0.084-5.953-0.084
				c-1.998,0-3.982,0.03-5.953,0.084l5.953,4.465L260.883,171.727z"/>
			<path style="fill:#040000;stroke:#FFFFFF;" d="M238.142,188.785l16.788-12.592l-5.953-4.465
				c-8.469,0.234-16.676,0.965-24.515,2.135l-3.107,2.331L238.142,188.785z"/>
			<path style="fill:#040000;stroke:#FFFFFF;" d="M147.395,221.455c-0.302,1.674-0.465,3.369-0.465,5.083
				c0,1.728,0.165,3.437,0.472,5.124l6.8-5.101L147.395,221.455z"/>
			<polygon style="fill:#040000;stroke:#FFFFFF;" points="204.566,239.154 187.778,251.746 204.566,264.338 221.354,251.746 			"/>
			<path style="fill:#040000;stroke:#FFFFFF;" d="M173.394,262.535c6.145,3.593,13.194,6.776,20.968,9.457l10.205-7.654
				l-16.788-12.592L173.394,262.535z"/>
			<polygon style="fill:#040000;stroke:#FFFFFF;" points="204.566,264.338 221.354,276.93 238.142,264.338 221.354,251.746 			"/>
			<polygon style="fill:#040000;stroke:#FFFFFF;" points="238.142,239.154 221.354,251.746 238.142,264.338 254.93,251.746 			"/>
			<path style="fill:#040000;stroke:#FFFFFF;" d="M170.99,239.154l-14.022,10.518c4.289,4.684,9.834,9.011,16.425,12.864
				l14.385-10.79L170.99,239.154z"/>
			<path style="fill:#040000;stroke:#FFFFFF;" d="M154.203,226.561l-6.8,5.101c1.163,6.383,4.475,12.449,9.566,18.009l14.022-10.518
				L154.203,226.561z"/>
		</g>
	</g>
	<path id="&#x30CA;&#x30A4;&#x30D5;" style="fill:#FFFFFF;stroke:#50342F;" d="M382.858,124.721c3.991-3.472,6.066,0.6,6.147,3.868
		c0.091,3.267,5.018,35.705,6.825,48.563c1.596,11.355,10.586,77.374,12.656,92.604c1.739-0.085,2.43,0.017,2.473,0.319
		c0.077,0.546,0.821,5.344,0.821,5.344l-0.947,0.202c0,0,1.191,0.047,1.862,2.983c0.413,1.803,10.773,68.65,12.842,78.063
		c2.069,9.413-1.566,18.881-8.525,19.859c-6.949,0.977-13.063-7.121-13.658-16.741c-0.606-9.618-9.082-76.73-9.182-78.577
		c-0.164-3.007,0.968-3.38,0.968-3.38l-0.966,0.066c0,0-0.607-4.817-0.684-5.363c-0.041-0.293,0.565-0.582,2.184-0.959
		c-1.417-8.315-5.262-15.841-9.018-16.298c-4.181-0.507-4.814-7.699-5.837-12.287C363.809,140.506,378.868,128.193,382.858,124.721z
		"/>
	<path id="&#x30D5;&#x30A9;&#x30FC;&#x30AF;" style="fill:#FFFFFF;stroke:#50342F;" d="M122.515,210.338
		c2.476-7.49,8.035-72.398,5.688-73.475c-2.347-1.076-8.905,52.173-10.114,54.192c-0.924,1.547-3.751,1.339-3.39-1.228
		c0.359-2.557,7.044-53.872,5.287-54.119c-1.747-0.246-8.184,51.652-9.598,53.14c-0.63,0.663-2.505,1.325-2.505,1.325
		s-1.62-1.154-2.043-1.964c-0.949-1.82,7.158-53.483,5.411-53.728c-1.747-0.246-9.476,50.923-9.835,53.48
		c-0.361,2.567-3.126,1.989-3.597,0.246c-0.606-2.275,7.767-55.268,5.225-54.879c-2.553,0.388-15.1,64.314-14.784,72.196
		c0.316,7.877,7.432,15.599,9.11,21.429c1.187,4.163-3.312,23.072-5.994,33.587c-1.631-0.08-2.293,0.031-2.334,0.324
		c-0.077,0.546-0.821,5.344-0.821,5.344l0.947,0.202c0,0-1.2,0.045-1.872,2.981c-0.403,1.805-10.763,68.651-12.833,78.064
		c-2.069,9.413,1.567,18.881,8.525,19.859c6.949,0.977,13.053-7.122,13.658-16.741c0.605-9.618,9.072-76.731,9.182-78.577
		c0.164-3.007-0.968-3.38-0.968-3.38l0.966,0.066c0,0,0.617-4.815,0.694-5.361c0.041-0.293-0.575-0.584-2.165-0.956
		c0.31-10.849,1.198-30.265,3.496-33.938C111.071,223.284,120.04,217.822,122.515,210.338z"/>
</g>
</svg>
