<?xml version="1.0" encoding="iso-8859-1"?>
<!-- Generator: Adobe Illustrator 23.0.6, SVG Export Plug-In . SVG Version: 6.00 Build 0)  -->
<svg version="1.1" id="&#x30EC;&#x30A4;&#x30E4;&#x30FC;_1"
	 xmlns="http://www.w3.org/2000/svg" xmlns:xlink="http://www.w3.org/1999/xlink" x="0px" y="0px" viewBox="0 0 512 512"
	 style="enable-background:new 0 0 512 512;" xml:space="preserve">
<g>
	<g id="&#x8089;">
		<ellipse id="&#x304A;&#x76BF;_1_" style="fill:#FFFFFF;stroke:#50342F;" cx="250" cy="247.756" rx="203.489" ry="100.248"/>
		<path style="fill:#FFFFFF;stroke:#50342F;" d="M350.045,226.03c-17.414-18.043-53.908-30.466-96.115-30.466
			c-42.207,0-78.701,12.423-96.115,30.466H146.93v23.92c0,30.037,47.906,54.387,107,54.387s107-24.35,107-54.387v-23.92H350.045z"/>
		<g>
			<polygon style="fill:#040000;stroke:#FFFFFF;" points="270.562,238.528 287.195,251.004 303.827,238.528 287.195,226.053 			"/>
			<polygon style="fill:#040000;stroke:#FFFFFF;" points="204.033,213.577 187.4,226.053 204.033,238.528 220.665,226.053 			"/>
			<polygon style="fill:#040000;stroke:#FFFFFF;" points="237.298,213.577 220.665,226.053 237.298,238.528 253.93,226.053 			"/>
			<polygon style="fill:#040000;stroke:#FFFFFF;" points="270.562,213.577 253.93,226.053 270.562,238.528 287.195,226.053 			"/>
			<polygon style="fill:#040000;stroke:#FFFFFF;" points="170.768,238.528 187.4,251.004 204.033,238.528 187.4,226.053 			"/>
			<polygon style="fill:#040000;stroke:#FFFFFF;" points="204.033,238.528 220.665,251.004 237.298,238.528 220.665,226.053 			"/>
			<path style="fill:#040000;stroke:#FFFFFF;" d="M320.46,201.102l14.287-10.716c-6.085-3.562-13.067-6.716-20.767-9.375
				l-10.153,7.615L320.46,201.102z"/>
			<path style="fill:#040000;stroke:#FFFFFF;" d="M303.827,188.626l10.153-7.615c-7.622-2.632-15.95-4.775-24.806-6.345
				l-1.979,1.484L303.827,188.626z"/>
			<path style="fill:#040000;stroke:#FFFFFF;" d="M337.092,213.577l13.918-10.439c-4.245-4.643-9.736-8.932-16.263-12.753
				l-14.287,10.716L337.092,213.577z"/>
			<polygon style="fill:#040000;stroke:#FFFFFF;" points="303.827,213.577 320.46,226.053 337.092,213.577 320.46,201.102 			"/>
			<polygon style="fill:#040000;stroke:#FFFFFF;" points="303.827,238.528 320.46,251.004 337.092,238.528 320.46,226.053 			"/>
			<polygon style="fill:#040000;stroke:#FFFFFF;" points="303.827,213.577 287.195,226.053 303.827,238.528 320.46,226.053 			"/>
			<polygon style="fill:#040000;stroke:#FFFFFF;" points="337.092,238.528 353.725,226.053 337.092,213.577 320.46,226.053 			"/>
			<polygon style="fill:#040000;stroke:#FFFFFF;" points="237.298,238.528 253.93,251.004 270.562,238.528 253.93,226.053 			"/>
			<path style="fill:#040000;stroke:#FFFFFF;" d="M289.174,174.666c-1.667-0.296-3.353-0.571-5.057-0.825l3.079,2.309
				L289.174,174.666z"/>
			<path style="fill:#040000;stroke:#FFFFFF;" d="M253.93,280.416c1.959,0,3.905-0.029,5.839-0.081l-5.839-4.379l-5.839,4.379
				C250.025,280.387,251.971,280.416,253.93,280.416z"/>
			<polygon style="fill:#040000;stroke:#FFFFFF;" points="303.827,188.626 287.195,176.15 270.563,188.626 287.195,201.102 			"/>
			<polygon style="fill:#040000;stroke:#FFFFFF;" points="303.827,213.577 320.46,201.102 303.827,188.626 287.195,201.102 			"/>
			<polygon style="fill:#040000;stroke:#FFFFFF;" points="270.562,213.577 287.195,226.053 303.827,213.577 287.195,201.102 			"/>
			<polygon style="fill:#040000;stroke:#FFFFFF;" points="204.033,213.577 220.665,226.053 237.298,213.577 220.665,201.102 			"/>
			<polygon style="fill:#CCCCCC;stroke:#FFFFFF;" points="237.298,213.577 253.93,226.053 270.562,213.577 253.93,201.102 			"/>
			<polygon style="fill:#040000;stroke:#FFFFFF;" points="270.563,188.626 253.93,176.15 237.298,188.626 253.93,201.102 			"/>
			<polygon style="fill:#040000;stroke:#FFFFFF;" points="237.298,188.626 220.665,176.15 204.033,188.626 220.665,201.102 			"/>
			<polygon style="fill:#040000;stroke:#FFFFFF;" points="220.665,201.102 204.033,188.626 187.4,201.102 204.033,213.577 			"/>
			<polygon style="fill:#040000;stroke:#FFFFFF;" points="270.562,213.577 287.195,201.102 270.563,188.626 253.93,201.102 			"/>
			<polygon style="fill:#040000;stroke:#FFFFFF;" points="204.033,213.577 187.4,201.102 170.768,213.577 187.4,226.053 			"/>
			<polygon style="fill:#040000;stroke:#FFFFFF;" points="170.768,213.577 154.135,226.053 170.768,238.528 187.4,226.053 			"/>
			<polygon style="fill:#040000;stroke:#FFFFFF;" points="237.298,213.577 253.93,201.102 237.298,188.626 220.665,201.102 			"/>
			<path style="fill:#040000;stroke:#FFFFFF;" d="M337.092,238.528l13.892,10.42c5.044-5.509,8.326-11.518,9.478-17.842
				l-6.737-5.053L337.092,238.528z"/>
			<path style="fill:#040000;stroke:#FFFFFF;" d="M337.092,213.577l16.632,12.476l6.744-5.059
				c-1.143-6.329-4.419-12.342-9.459-17.856L337.092,213.577z"/>
			<path style="fill:#040000;stroke:#FFFFFF;" d="M270.563,188.626l16.632-12.476l-3.079-2.309
				c-7.767-1.159-15.898-1.883-24.288-2.115l-5.898,4.424L270.563,188.626z"/>
			<path style="fill:#040000;stroke:#FFFFFF;" d="M360.462,231.106c0.305-1.672,0.468-3.365,0.468-5.077
				c0-1.698-0.161-3.377-0.461-5.036l-6.744,5.059L360.462,231.106z"/>
			<path style="fill:#040000;stroke:#FFFFFF;" d="M320.46,251.004l14.252,10.69c6.53-3.818,12.024-8.104,16.273-12.745
				l-13.892-10.42L320.46,251.004z"/>
			<polygon style="fill:#040000;stroke:#FFFFFF;" points="303.827,238.528 287.195,251.004 303.827,263.48 320.46,251.004 			"/>
			<polygon style="fill:#040000;stroke:#FFFFFF;" points="270.562,238.528 253.93,251.004 270.562,263.48 287.195,251.004 			"/>
			<polygon style="fill:#040000;stroke:#FFFFFF;" points="270.562,263.48 287.195,275.955 303.827,263.48 287.195,251.004 			"/>
			<path style="fill:#040000;stroke:#FFFFFF;" d="M303.827,263.48l10.11,7.584c7.701-2.656,14.685-5.81,20.774-9.369l-14.252-10.69
				L303.827,263.48z"/>
			<path style="fill:#040000;stroke:#FFFFFF;" d="M284.194,278.206c1.66-0.248,3.304-0.516,4.929-0.804l-1.929-1.447
				L284.194,278.206z"/>
			<path style="fill:#040000;stroke:#FFFFFF;" d="M303.827,263.48l-16.632,12.476l1.929,1.447
				c8.859-1.568,17.189-3.708,24.814-6.339L303.827,263.48z"/>
			<path style="fill:#040000;stroke:#FFFFFF;" d="M270.562,263.48l-16.632,12.476l5.839,4.379c8.44-0.231,16.617-0.96,24.426-2.129
				l3.001-2.251L270.562,263.48z"/>
			<path style="fill:#040000;stroke:#FFFFFF;" d="M253.93,275.955l-16.632-12.476l-16.633,12.476l3.001,2.251
				c7.809,1.168,15.986,1.898,24.426,2.129L253.93,275.955z"/>
			<path style="fill:#040000;stroke:#FFFFFF;" d="M204.033,263.48l-10.11,7.584c7.625,2.63,15.956,4.771,24.814,6.339l1.929-1.447
				L204.033,263.48z"/>
			<path style="fill:#040000;stroke:#FFFFFF;" d="M218.737,277.402c1.626,0.288,3.269,0.556,4.929,0.804l-3.001-2.251
				L218.737,277.402z"/>
			<polygon style="fill:#040000;stroke:#FFFFFF;" points="237.298,263.48 253.93,275.955 270.562,263.48 253.93,251.004 			"/>
			<path style="fill:#040000;stroke:#FFFFFF;" d="M204.033,188.626l-10.153-7.615c-7.699,2.658-14.681,5.813-20.767,9.375
				l14.287,10.716L204.033,188.626z"/>
			<path style="fill:#040000;stroke:#FFFFFF;" d="M170.768,213.577l-13.918-10.439c-5.041,5.514-8.316,11.527-9.459,17.856
				l6.745,5.059L170.768,213.577z"/>
			<path style="fill:#040000;stroke:#FFFFFF;" d="M220.665,176.15l-1.979-1.484c-8.856,1.57-17.184,3.713-24.806,6.345l10.153,7.615
				L220.665,176.15z"/>
			<path style="fill:#040000;stroke:#FFFFFF;" d="M187.4,201.102l-14.287-10.716c-6.527,3.82-12.018,8.109-16.263,12.753
				l13.918,10.439L187.4,201.102z"/>
			<path style="fill:#040000;stroke:#FFFFFF;" d="M223.744,173.841c-1.704,0.254-3.39,0.529-5.057,0.825l1.979,1.484
				L223.744,173.841z"/>
			<path style="fill:#040000;stroke:#FFFFFF;" d="M259.828,171.726c-1.953-0.054-3.919-0.083-5.898-0.083
				c-1.979,0-3.945,0.029-5.898,0.083l5.898,4.424L259.828,171.726z"/>
			<path style="fill:#040000;stroke:#FFFFFF;" d="M237.298,188.626l16.633-12.476l-5.898-4.424
				c-8.39,0.232-16.522,0.956-24.288,2.115l-3.079,2.309L237.298,188.626z"/>
			<path style="fill:#040000;stroke:#FFFFFF;" d="M147.391,220.994c-0.3,1.659-0.461,3.337-0.461,5.036
				c0,1.712,0.163,3.405,0.468,5.077l6.737-5.053L147.391,220.994z"/>
			<polygon style="fill:#040000;stroke:#FFFFFF;" points="204.033,238.528 187.4,251.004 204.033,263.48 220.665,251.004 			"/>
			<path style="fill:#040000;stroke:#FFFFFF;" d="M173.148,261.694c6.088,3.56,13.072,6.713,20.774,9.369l10.11-7.584L187.4,251.004
				L173.148,261.694z"/>
			<polygon style="fill:#040000;stroke:#FFFFFF;" points="204.033,263.48 220.665,275.955 237.298,263.48 220.665,251.004 			"/>
			<polygon style="fill:#040000;stroke:#FFFFFF;" points="237.298,238.528 220.665,251.004 237.298,263.48 253.93,251.004 			"/>
			<path style="fill:#040000;stroke:#FFFFFF;" d="M170.768,238.528l-13.892,10.42c4.249,4.641,9.743,8.927,16.273,12.745
				l14.252-10.69L170.768,238.528z"/>
			<path style="fill:#040000;stroke:#FFFFFF;" d="M154.135,226.053l-6.737,5.053c1.152,6.324,4.433,12.333,9.478,17.842
				l13.892-10.42L154.135,226.053z"/>
		</g>
	</g>
	<path id="&#x30CA;&#x30A4;&#x30D5;" style="fill:#FFFFFF;stroke:#50342F;" d="M382.858,124.721c3.991-3.472,6.066,0.6,6.147,3.868
		c0.091,3.267,5.018,35.705,6.825,48.563c1.596,11.355,10.586,77.374,12.656,92.604c1.739-0.085,2.43,0.017,2.473,0.319
		c0.077,0.546,0.821,5.344,0.821,5.344l-0.947,0.202c0,0,1.191,0.047,1.862,2.983c0.413,1.803,10.773,68.65,12.842,78.063
		c2.069,9.413-1.566,18.881-8.525,19.859c-6.949,0.977-13.063-7.121-13.658-16.741c-0.606-9.618-9.082-76.73-9.182-78.577
		c-0.164-3.007,0.968-3.38,0.968-3.38l-0.966,0.066c0,0-0.607-4.817-0.684-5.363c-0.041-0.293,0.565-0.582,2.184-0.959
		c-1.417-8.315-5.262-15.841-9.018-16.298c-4.181-0.507-4.814-7.699-5.837-12.287C363.809,140.506,378.868,128.193,382.858,124.721z
		"/>
	<path id="&#x30D5;&#x30A9;&#x30FC;&#x30AF;" style="fill:#FFFFFF;stroke:#50342F;" d="M122.515,210.338
		c2.476-7.49,8.035-72.398,5.688-73.475c-2.347-1.076-8.905,52.173-10.114,54.192c-0.924,1.547-3.751,1.339-3.39-1.228
		c0.359-2.557,7.044-53.872,5.287-54.119c-1.747-0.246-8.184,51.652-9.598,53.14c-0.63,0.663-2.505,1.325-2.505,1.325
		s-1.62-1.154-2.043-1.964c-0.949-1.82,7.158-53.483,5.411-53.728c-1.747-0.246-9.476,50.923-9.835,53.48
		c-0.361,2.567-3.126,1.989-3.597,0.246c-0.606-2.275,7.767-55.268,5.225-54.879c-2.553,0.388-15.1,64.314-14.784,72.196
		c0.316,7.877,7.432,15.599,9.11,21.429c1.187,4.163-3.312,23.072-5.994,33.587c-1.631-0.08-2.293,0.031-2.334,0.324
		c-0.077,0.546-0.821,5.344-0.821,5.344l0.947,0.202c0,0-1.2,0.045-1.872,2.981c-0.403,1.805-10.763,68.651-12.833,78.064
		c-2.069,9.413,1.567,18.881,8.525,19.859c6.949,0.977,13.053-7.122,13.658-16.741c0.605-9.618,9.072-76.731,9.182-78.577
		c0.164-3.007-0.968-3.38-0.968-3.38l0.966,0.066c0,0,0.617-4.815,0.694-5.361c0.041-0.293-0.575-0.584-2.165-0.956
		c0.31-10.849,1.198-30.265,3.496-33.938C111.071,223.284,120.04,217.822,122.515,210.338z"/>
</g>
</svg>
