<?xml version="1.0" encoding="iso-8859-1"?>
<!-- Generator: Adobe Illustrator 23.0.6, SVG Export Plug-In . SVG Version: 6.00 Build 0)  -->
<svg version="1.1" xmlns="http://www.w3.org/2000/svg" xmlns:xlink="http://www.w3.org/1999/xlink" x="0px" y="0px"
	 viewBox="0 0 512 512" style="enable-background:new 0 0 512 512;" xml:space="preserve">
<g id="&#x7A2E;&#x4EE5;&#x5916;">
	<g>
		<path id="&#x76AE;_2_" style="fill:#CCCCCC;" d="M48,297.304c115.595,115.595,303.012,115.595,418.607,0L257.303,88L48,297.304z"
			/>
		<path id="&#x679C;&#x8089;_2_" style="fill:#FFFFFF;stroke:#50342F;stroke-miterlimit:10;" d="M81.941,263.363
			c96.85,96.85,253.875,96.85,350.725,0L257.303,88L81.941,263.363z"/>
	</g>
</g>
<g id="&#x7A2E;_10_">
	<path id="&#x7A2E;_20_" style="fill:#040000;stroke:#50342F;stroke-miterlimit:10;" d="M250.18,230.856
		c-0.479,5.795-3.216,10.299-6.114,10.059c-2.898-0.24-4.858-5.132-4.379-10.927c0.479-5.795,6.114-10.059,6.114-10.059
		S250.659,225.06,250.18,230.856z"/>
	<path id="&#x7A2E;_19_" style="fill:#040000;stroke:#50342F;stroke-miterlimit:10;" d="M250.098,275.388
		c-1.017,5.725-4.161,9.955-7.024,9.446s-4.359-5.562-3.343-11.287s7.024-9.446,7.024-9.446S251.114,269.662,250.098,275.388z"/>
	<path id="&#x7A2E;_18_" style="fill:#040000;stroke:#50342F;stroke-miterlimit:10;" d="M208.269,270.112
		c-1.822,5.522-5.538,9.26-8.299,8.349c-2.761-0.911-3.522-6.126-1.7-11.648s8.299-8.349,8.299-8.349
		S210.092,264.59,208.269,270.112z"/>
	<path id="&#x7A2E;_17_" style="fill:#040000;stroke:#50342F;stroke-miterlimit:10;" d="M188.309,238.474
		c-1.446,5.632-4.902,9.611-7.718,8.888s-3.926-5.875-2.48-11.507s7.718-8.888,7.718-8.888S189.755,232.842,188.309,238.474z"/>
	<path id="&#x7A2E;_16_" style="fill:#040000;stroke:#50342F;stroke-miterlimit:10;" d="M155.203,255.399
		c-2.272,5.352-6.284,8.77-8.96,7.634c-2.676-1.136-3.004-6.396-0.731-11.749c2.272-5.352,8.96-7.634,8.96-7.634
		S157.475,250.046,155.203,255.399z"/>
	<path id="&#x7A2E;_15_" style="fill:#040000;stroke:#50342F;stroke-miterlimit:10;" d="M283.089,234.23
		c0.668,5.776-1.131,10.73-4.019,11.064c-2.888,0.334-5.771-4.078-6.44-9.854c-0.668-5.776,4.019-11.064,4.019-11.064
		S282.421,228.453,283.089,234.23z"/>
	<path id="&#x7A2E;_14_" style="fill:#040000;stroke:#50342F;stroke-miterlimit:10;" d="M319.777,223.198
		c1.291,5.67,0.039,10.789-2.796,11.435c-2.835,0.645-6.179-3.428-7.47-9.098c-1.291-5.67,2.796-11.435,2.796-11.435
		S318.487,217.529,319.777,223.198z"/>
	<path id="&#x7A2E;_13_" style="fill:#040000;stroke:#50342F;stroke-miterlimit:10;" d="M293.624,273.806
		c0.731,5.769-1.014,10.742-3.898,11.107s-5.815-4.014-6.547-9.783c-0.731-5.769,3.898-11.107,3.898-11.107
		S292.893,268.038,293.624,273.806z"/>
	<path id="&#x7A2E;_12_" style="fill:#040000;stroke:#50342F;stroke-miterlimit:10;" d="M325.199,261.861
		c1.486,5.622,0.411,10.781-2.4,11.524s-6.294-3.213-7.779-8.835c-1.485-5.622,2.4-11.524,2.4-11.524
		S323.714,256.239,325.199,261.861z"/>
	<path id="&#x7A2E;_11_" style="fill:#040000;stroke:#50342F;stroke-miterlimit:10;" d="M371.495,243.87
		c1.377,5.649,0.204,10.787-2.621,11.476c-2.825,0.689-6.231-3.333-7.608-8.982c-1.377-5.649,2.621-11.476,2.621-11.476
		S370.118,238.221,371.495,243.87z"/>
</g>
</svg>
