<?xml version="1.0" encoding="iso-8859-1"?>
<!-- Generator: Adobe Illustrator 23.0.6, SVG Export Plug-In . SVG Version: 6.00 Build 0)  -->
<svg version="1.1" id="&#x30EC;&#x30A4;&#x30E4;&#x30FC;_1"
	 xmlns="http://www.w3.org/2000/svg" xmlns:xlink="http://www.w3.org/1999/xlink" x="0px" y="0px" viewBox="0 0 512 512"
	 style="enable-background:new 0 0 512 512;" xml:space="preserve">
<g>
	<ellipse style="fill:#CCCCCC;stroke:#CCCCCC;stroke-miterlimit:10;" cx="256" cy="264" rx="160" ry="120"/>
	<circle style="fill:#FFFFFF;stroke:#50342F;stroke-miterlimit:10;" cx="377.58" cy="264" r="15.312"/>
	<g id="&#x30D8;&#x30BF;">
		<polygon id="&#x30AE;&#x30B6;&#x30AE;&#x30B6;" style="fill:#FFFFFF;stroke:#50342F;stroke-miterlimit:10;" points="256,112 
			269.238,135.481 306.362,120.55 290.658,143.613 337.487,142.936 298.84,156.771 337.487,170.605 290.658,169.928 
			306.362,192.991 269.238,178.06 256,201.541 242.762,178.06 205.638,192.991 221.342,169.928 174.513,170.605 213.16,156.771 
			174.513,142.936 221.342,143.613 205.638,120.55 242.762,135.481 		"/>
		<path style="fill:#040000;stroke:#50342F;stroke-miterlimit:10;" d="M263.895,142.749c0-2.803-3.535-5.075-7.895-5.075
			c-4.36,0-7.895,2.272-7.895,5.075c0,0.002,0,0.004,0,0.005v15.005c0,0.002,0,0.004,0,0.005c0,2.803,3.535,5.075,7.895,5.075
			c4.36,0,7.895-2.272,7.895-5.075h0.001L263.895,142.749L263.895,142.749z"/>
	</g>
</g>
</svg>
