<?xml version="1.0" encoding="iso-8859-1"?>
<!-- Generator: Adobe Illustrator 23.0.6, SVG Export Plug-In . SVG Version: 6.00 Build 0)  -->
<svg version="1.1" id="&#x30EC;&#x30A4;&#x30E4;&#x30FC;_1"
	 xmlns="http://www.w3.org/2000/svg" xmlns:xlink="http://www.w3.org/1999/xlink" x="0px" y="0px" viewBox="0 0 500 500"
	 style="enable-background:new 0 0 500 500;" xml:space="preserve">
<g>
	<g id="&#x679C;&#x5B9F;">
		<ellipse style="fill:#CCCCCC;stroke:#CCCCCC;stroke-miterlimit:10;" cx="250" cy="266.311" rx="161.125" ry="122.073"/>
		<circle style="fill:#FFFFFF;stroke:#50342F;stroke-miterlimit:10;" cx="368.939" cy="261.364" r="15.404"/>
	</g>
	<g id="&#x30D8;&#x30BF;">
		<polygon id="&#x30AE;&#x30B6;&#x30AE;&#x30B6;" style="fill:#FFFFFF;stroke:#50342F;stroke-miterlimit:10;" points="250,111.616 
			263.318,135.238 300.664,120.218 284.866,143.419 331.975,142.737 293.097,156.655 331.975,170.573 284.866,169.892 
			300.664,193.092 263.318,178.072 250,201.694 236.682,178.072 199.336,193.092 215.134,169.892 168.025,170.573 206.903,156.655 
			168.025,142.737 215.134,143.419 199.336,120.218 236.682,135.238 		"/>
		<path style="fill:#040000;stroke:#50342F;stroke-miterlimit:10;" d="M257.942,142.549c0-2.82-3.556-5.106-7.942-5.106
			s-7.942,2.286-7.942,5.106c0,0.002,0,0.004,0,0.005v15.095c0,0.002,0,0.004,0,0.005c0,2.82,3.556,5.106,7.942,5.106
			s7.942-2.286,7.942-5.106h0.001L257.942,142.549L257.942,142.549z"/>
	</g>
</g>
</svg>
