<?xml version="1.0" encoding="iso-8859-1"?>
<!-- Generator: Adobe Illustrator 23.0.6, SVG Export Plug-In . SVG Version: 6.00 Build 0)  -->
<svg version="1.1" id="&#x7A2E;_10_" xmlns="http://www.w3.org/2000/svg" xmlns:xlink="http://www.w3.org/1999/xlink" x="0px"
	 y="0px" viewBox="0 0 500 500" style="enable-background:new 0 0 500 500;" xml:space="preserve">
<g>
	<path id="&#x76AE;" style="fill:#CCCCCC;stroke:#CCCCCC;stroke-miterlimit:10;" d="M41.714,311.006
		c115.033,115.033,301.539,115.033,416.573,0L250,102.719L41.714,311.006z"/>
	<path id="&#x679C;&#x8089;" style="fill:#FFFFFF;stroke:#50342F;stroke-miterlimit:10;" d="M72.957,279.763
		c97.778,97.778,256.308,97.778,354.087,0L250,102.719L72.957,279.763z"/>
	<path id="&#x7A2E;" style="fill:#040000;stroke:#50342F;stroke-miterlimit:10;" d="M237.003,229.749
		c-0.48,5.803-3.221,10.313-6.122,10.073s-4.865-5.139-4.385-10.942c0.48-5.803,6.122-10.073,6.122-10.073
		S237.483,223.946,237.003,229.749z"/>
	<path id="&#x7A2E;_6_" style="fill:#040000;stroke:#50342F;stroke-miterlimit:10;" d="M236.92,274.343
		c-1.018,5.733-4.167,9.968-7.034,9.459c-2.867-0.509-4.365-5.569-3.347-11.302s7.034-9.459,7.034-9.459
		S237.938,268.61,236.92,274.343z"/>
	<path id="&#x7A2E;_3_" style="fill:#040000;stroke:#50342F;stroke-miterlimit:10;" d="M195.034,269.06
		c-1.825,5.53-5.545,9.272-8.31,8.36c-2.765-0.912-3.527-6.135-1.702-11.664s8.31-8.36,8.31-8.36S196.859,263.53,195.034,269.06z"/>
	<path id="&#x7A2E;_4_" style="fill:#040000;stroke:#50342F;stroke-miterlimit:10;" d="M175.046,237.378
		c-1.448,5.64-4.909,9.625-7.729,8.901s-3.932-5.883-2.483-11.523s7.729-8.901,7.729-8.901S176.494,231.739,175.046,237.378z"/>
	<path id="&#x7A2E;_8_" style="fill:#040000;stroke:#50342F;stroke-miterlimit:10;" d="M141.895,254.326
		c-2.276,5.36-6.293,8.782-8.973,7.645c-2.68-1.138-3.008-6.405-0.732-11.765c2.276-5.36,8.973-7.645,8.973-7.645
		S144.17,248.967,141.895,254.326z"/>
	<path id="&#x7A2E;_1_" style="fill:#040000;stroke:#50342F;stroke-miterlimit:10;" d="M269.957,233.128
		c0.669,5.784-1.133,10.745-4.025,11.079c-2.892,0.335-5.779-4.083-6.449-9.867c-0.669-5.784,4.025-11.079,4.025-11.079
		S269.288,227.344,269.957,233.128z"/>
	<path id="&#x7A2E;_9_" style="fill:#040000;stroke:#50342F;stroke-miterlimit:10;" d="M306.696,222.082
		c1.292,5.678,0.039,10.804-2.8,11.45c-2.839,0.646-6.188-3.433-7.48-9.11c-1.292-5.678,2.8-11.45,2.8-11.45
		S305.403,216.404,306.696,222.082z"/>
	<path id="&#x7A2E;_7_" style="fill:#040000;stroke:#50342F;stroke-miterlimit:10;" d="M280.507,272.76
		c0.732,5.777-1.016,10.756-3.904,11.122c-2.888,0.366-5.823-4.02-6.556-9.797c-0.732-5.777,3.904-11.122,3.904-11.122
		S279.774,266.983,280.507,272.76z"/>
	<path id="&#x7A2E;_2_" style="fill:#040000;stroke:#50342F;stroke-miterlimit:10;" d="M312.125,260.798
		c1.488,5.63,0.412,10.796-2.403,11.54c-2.815,0.744-6.303-3.217-7.79-8.847c-1.488-5.63,2.403-11.54,2.403-11.54
		S310.638,255.168,312.125,260.798z"/>
	<path id="&#x7A2E;_5_" style="fill:#040000;stroke:#50342F;stroke-miterlimit:10;" d="M358.485,242.782
		c1.379,5.657,0.204,10.802-2.624,11.492s-6.24-3.337-7.619-8.995c-1.379-5.657,2.624-11.492,2.624-11.492
		S357.105,237.125,358.485,242.782z"/>
</g>
</svg>
